font.ufo
<glyph name="si_vocalicR" format="1">
  <advance width="894"/>
  <unicode hex="0D8D"/>
  <outline>
    <contour>
      <point x="31" y="154" type="curve" smooth="yes"/>
      <point x="31" y="229"/>
      <point x="70" y="316"/>
      <point x="204" y="316" type="curve" smooth="yes"/>
      <point x="220" y="316"/>
      <point x="246" y="313"/>
      <point x="260" y="310" type="curve"/>
      <point x="260" y="312"/>
      <point x="260" y="311"/>
      <point x="260" y="313" type="curve" smooth="yes"/>
      <point x="260" y="355"/>
      <point x="227" y="389"/>
      <point x="196" y="389" type="curve" smooth="yes"/>
      <point x="158" y="389"/>
      <point x="150" y="368"/>
      <point x="145" y="352" type="curve" smooth="yes"/>
      <point x="138" y="333"/>
      <point x="124" y="321"/>
      <point x="100" y="321" type="curve" smooth="yes"/>
      <point x="79" y="321"/>
      <point x="62" y="333"/>
      <point x="62" y="359" type="curve" smooth="yes"/>
      <point x="62" y="404"/>
      <point x="112" y="432"/>
      <point x="167" y="432" type="curve" smooth="yes"/>
      <point x="255" y="432"/>
      <point x="293" y="369"/>
      <point x="293" y="296" type="curve" smooth="yes"/>
      <point x="293" y="293"/>
      <point x="293" y="286"/>
      <point x="293" y="279" type="curve"/>
      <point x="259" y="286"/>
      <point x="231" y="288"/>
      <point x="202" y="288" type="curve" smooth="yes"/>
      <point x="145" y="288"/>
      <point x="98" y="266"/>
      <point x="98" y="213" type="curve" smooth="yes"/>
      <point x="98" y="177"/>
      <point x="132" y="140"/>
      <point x="205" y="140" type="curve" smooth="yes"/>
      <point x="261" y="140"/>
      <point x="301" y="157"/>
      <point x="301" y="198" type="curve" smooth="yes"/>
      <point x="301" y="214" type="line"/>
      <point x="328" y="214" type="line"/>
      <point x="328" y="198" type="line" smooth="yes"/>
      <point x="328" y="157"/>
      <point x="362" y="140"/>
      <point x="424" y="140" type="curve" smooth="yes"/>
      <point x="496" y="140"/>
      <point x="541" y="168"/>
      <point x="541" y="217" type="curve" smooth="yes"/>
      <point x="541" y="249"/>
      <point x="520" y="288"/>
      <point x="430" y="288" type="curve" smooth="yes"/>
      <point x="398" y="288"/>
      <point x="371" y="286"/>
      <point x="333" y="279" type="curve"/>
      <point x="333" y="283"/>
      <point x="333" y="287"/>
      <point x="333" y="291" type="curve" smooth="yes"/>
      <point x="333" y="375"/>
      <point x="381" y="432"/>
      <point x="456" y="432" type="curve" smooth="yes"/>
      <point x="510" y="432"/>
      <point x="559" y="408"/>
      <point x="559" y="350" type="curve" smooth="yes"/>
      <point x="559" y="329"/>
      <point x="543" y="305"/>
      <point x="530" y="298" type="curve"/>
      <point x="580" y="276"/>
      <point x="608" y="221"/>
      <point x="608" y="166" type="curve" smooth="yes"/>
      <point x="608" y="58"/>
      <point x="538" y="0"/>
      <point x="440" y="0" type="curve" smooth="yes"/>
      <point x="375" y="0"/>
      <point x="332" y="31"/>
      <point x="313" y="82" type="curve"/>
      <point x="292" y="30"/>
      <point x="251" y="-1"/>
      <point x="183" y="-1" type="curve" smooth="yes"/>
      <point x="88" y="-1"/>
      <point x="31" y="76"/>
    </contour>
    <contour>
      <point x="365" y="310" type="curve"/>
      <point x="376" y="313"/>
      <point x="401" y="316"/>
      <point x="425" y="316" type="curve" smooth="yes"/>
      <point x="459" y="316"/>
      <point x="480" y="314"/>
      <point x="502" y="307" type="curve"/>
      <point x="511" y="316"/>
      <point x="516" y="328"/>
      <point x="516" y="342" type="curve" smooth="yes"/>
      <point x="516" y="371"/>
      <point x="486" y="385"/>
      <point x="450" y="385" type="curve" smooth="yes"/>
      <point x="398" y="385"/>
      <point x="369" y="357"/>
    </contour>
    <component base="si_MatraR" xOffset="583"/>
  </outline>
</glyph>
<glyph name="uni0DB7" format="1">
  <advance width="670"/>
  <unicode hex="0DB7"/>
  <outline>
    <contour>
      <point x="6" y="268" type="curve"/>
      <point x="6" y="303" type="line"/>
      <point x="215" y="303" type="line"/>
      <point x="171" y="275" type="line"/>
      <point x="140" y="275" type="line" smooth="yes"/>
      <point x="69" y="274"/>
      <point x="22" y="271"/>
    </contour>
    <contour>
      <point x="49" y="155" type="curve" smooth="yes"/>
      <point x="49" y="246"/>
      <point x="138" y="303"/>
      <point x="213" y="303" type="curve" smooth="yes"/>
      <point x="216" y="303"/>
      <point x="217" y="303"/>
      <point x="220" y="303" type="curve"/>
      <point x="220" y="342"/>
      <point x="196" y="378"/>
      <point x="168" y="378" type="curve" smooth="yes"/>
      <point x="153" y="378"/>
      <point x="139" y="374"/>
      <point x="130" y="352" type="curve" smooth="yes"/>
      <point x="122" y="332"/>
      <point x="106" y="323"/>
      <point x="90" y="323" type="curve" smooth="yes"/>
      <point x="68" y="323"/>
      <point x="49" y="336"/>
      <point x="49" y="364" type="curve" smooth="yes"/>
      <point x="49" y="394"/>
      <point x="78" y="432"/>
      <point x="134" y="432" type="curve" smooth="yes"/>
      <point x="213" y="432"/>
      <point x="255" y="360"/>
      <point x="255" y="276" type="curve"/>
      <point x="243" y="277"/>
      <point x="232" y="278"/>
      <point x="221" y="278" type="curve" smooth="yes"/>
      <point x="149" y="278"/>
      <point x="110" y="245"/>
      <point x="110" y="208" type="curve" smooth="yes"/>
      <point x="110" y="156"/>
      <point x="174" y="139"/>
      <point x="228" y="139" type="curve" smooth="yes"/>
      <point x="266" y="139"/>
      <point x="334" y="152"/>
      <point x="334" y="190" type="curve" smooth="yes"/>
      <point x="334" y="208"/>
      <point x="323" y="215"/>
      <point x="312" y="215" type="curve" smooth="yes"/>
      <point x="298" y="215"/>
      <point x="287" y="207"/>
      <point x="280" y="186" type="curve"/>
      <point x="255" y="195" type="line"/>
      <point x="264" y="320"/>
      <point x="345" y="432"/>
      <point x="446" y="432" type="curve" smooth="yes"/>
      <point x="558" y="432"/>
      <point x="621" y="329"/>
      <point x="621" y="211" type="curve" smooth="yes"/>
      <point x="621" y="92"/>
      <point x="532" y="-1"/>
      <point x="409" y="-1" type="curve" smooth="yes"/>
      <point x="396" y="-1"/>
      <point x="382" y="0"/>
      <point x="368" y="2" type="curve"/>
      <point x="368" y="31" type="line"/>
      <point x="380" y="29"/>
      <point x="392" y="28"/>
      <point x="404" y="28" type="curve" smooth="yes"/>
      <point x="493" y="28"/>
      <point x="513" y="112"/>
      <point x="513" y="166" type="curve" smooth="yes"/>
      <point x="513" y="230"/>
      <point x="480" y="314"/>
      <point x="390" y="314" type="curve" smooth="yes"/>
      <point x="315" y="314"/>
      <point x="298" y="264"/>
      <point x="289" y="235" type="curve"/>
      <point x="299" y="241"/>
      <point x="307" y="242"/>
      <point x="317" y="242" type="curve" smooth="yes"/>
      <point x="358" y="242"/>
      <point x="382" y="199"/>
      <point x="382" y="145" type="curve" smooth="yes"/>
      <point x="382" y="53"/>
      <point x="311" y="-1"/>
      <point x="217" y="-1" type="curve" smooth="yes"/>
      <point x="119" y="-1"/>
      <point x="49" y="61"/>
    </contour>
  </outline>
</glyph>
<glyph name="si_Ha" format="1">
  <advance width="653"/>
  <unicode hex="0DC4"/>
  <outline>
    <contour>
      <point x="33" y="155" type="curve" smooth="yes"/>
      <point x="33" y="246"/>
      <point x="100" y="303"/>
      <point x="194" y="303" type="curve" smooth="yes"/>
      <point x="198" y="303"/>
      <point x="200" y="303"/>
      <point x="204" y="303" type="curve"/>
      <point x="204" y="342"/>
      <point x="180" y="378"/>
      <point x="152" y="378" type="curve" smooth="yes"/>
      <point x="137" y="378"/>
      <point x="123" y="374"/>
      <point x="114" y="352" type="curve" smooth="yes"/>
      <point x="106" y="332"/>
      <point x="90" y="323"/>
      <point x="74" y="323" type="curve" smooth="yes"/>
      <point x="52" y="323"/>
      <point x="33" y="336"/>
      <point x="33" y="364" type="curve" smooth="yes"/>
      <point x="33" y="394"/>
      <point x="62" y="432"/>
      <point x="118" y="432" type="curve" smooth="yes"/>
      <point x="197" y="432"/>
      <point x="239" y="360"/>
      <point x="239" y="276" type="curve"/>
      <point x="227" y="277"/>
      <point x="216" y="278"/>
      <point x="205" y="278" type="curve" smooth="yes"/>
      <point x="125" y="278"/>
      <point x="94" y="243"/>
      <point x="94" y="211" type="curve" smooth="yes"/>
      <point x="94" y="158"/>
      <point x="158" y="139"/>
      <point x="212" y="139" type="curve" smooth="yes"/>
      <point x="250" y="139"/>
      <point x="318" y="152"/>
      <point x="318" y="190" type="curve" smooth="yes"/>
      <point x="318" y="208"/>
      <point x="307" y="215"/>
      <point x="296" y="215" type="curve" smooth="yes"/>
      <point x="282" y="215"/>
      <point x="271" y="207"/>
      <point x="264" y="186" type="curve"/>
      <point x="239" y="195" type="line"/>
      <point x="248" y="320"/>
      <point x="329" y="432"/>
      <point x="430" y="432" type="curve" smooth="yes"/>
      <point x="542" y="432"/>
      <point x="605" y="329"/>
      <point x="605" y="211" type="curve" smooth="yes"/>
      <point x="605" y="92"/>
      <point x="516" y="-1"/>
      <point x="393" y="-1" type="curve" smooth="yes"/>
      <point x="380" y="-1"/>
      <point x="366" y="0"/>
      <point x="352" y="2" type="curve"/>
      <point x="352" y="31" type="line"/>
      <point x="364" y="29"/>
      <point x="376" y="28"/>
      <point x="388" y="28" type="curve" smooth="yes"/>
      <point x="477" y="28"/>
      <point x="497" y="112"/>
      <point x="497" y="166" type="curve" smooth="yes"/>
      <point x="497" y="230"/>
      <point x="464" y="314"/>
      <point x="374" y="314" type="curve" smooth="yes"/>
      <point x="299" y="314"/>
      <point x="282" y="264"/>
      <point x="273" y="235" type="curve"/>
      <point x="283" y="241"/>
      <point x="292" y="242"/>
      <point x="301" y="242" type="curve" smooth="yes"/>
      <point x="342" y="242"/>
      <point x="366" y="199"/>
      <point x="366" y="145" type="curve" smooth="yes"/>
      <point x="366" y="53"/>
      <point x="296" y="-1"/>
      <point x="201" y="-1" type="curve" smooth="yes"/>
      <point x="103" y="-1"/>
      <point x="33" y="61"/>
    </contour>
  </outline>
</glyph>
<glyph name="zwnj" format="1">
  <advance width="0"/>
  <unicode hex="200C"/>
  <outline>
    <contour>
      <point x="-40" y="-11" type="line"/>
      <point x="-40" y="781" type="line"/>
      <point x="40" y="781" type="line"/>
      <point x="40" y="-11" type="line"/>
    </contour>
  </outline>
</glyph>
<glyph name="si_Ba.reph" format="1">
  <advance width="619"/>
  <outline>
    <contour>
      <point x="261" y="628" type="curve" smooth="yes"/>
      <point x="261" y="608"/>
      <point x="279" y="592"/>
      <point x="301" y="592" type="curve" smooth="yes"/>
      <point x="323" y="592"/>
      <point x="341" y="608"/>
      <point x="341" y="628" type="curve" smooth="yes"/>
      <point x="341" y="648"/>
      <point x="323" y="664"/>
      <point x="301" y="664" type="curve" smooth="yes"/>
      <point x="279" y="664"/>
      <point x="261" y="648"/>
    </contour>
    <contour>
      <point x="158" y="647" type="curve" smooth="yes"/>
      <point x="158" y="711"/>
      <point x="216" y="748"/>
      <point x="298" y="748" type="curve" smooth="yes"/>
      <point x="375" y="748"/>
      <point x="439" y="705"/>
      <point x="439" y="634" type="curve" smooth="yes"/>
      <point x="439" y="610"/>
      <point x="431" y="588"/>
      <point x="414" y="569" type="curve" smooth="yes"/>
      <point x="378" y="569" type="line" smooth="yes"/>
      <point x="391" y="581"/>
      <point x="407" y="606"/>
      <point x="407" y="633" type="curve"/>
      <point x="407" y="688"/>
      <point x="358" y="720"/>
      <point x="297" y="720" type="curve" smooth="yes"/>
      <point x="244" y="720"/>
      <point x="191" y="697"/>
      <point x="191" y="647" type="curve" smooth="yes"/>
      <point x="191" y="608"/>
      <point x="234" y="591"/>
      <point x="252" y="588" type="curve" smooth="yes"/>
      <point x="244" y="594"/>
      <point x="233" y="608"/>
      <point x="233" y="629" type="curve"/>
      <point x="233" y="664"/>
      <point x="264" y="689"/>
      <point x="300" y="689" type="curve"/>
      <point x="341" y="689"/>
      <point x="369" y="662"/>
      <point x="369" y="627" type="curve" smooth="yes"/>
      <point x="369" y="588"/>
      <point x="334" y="562"/>
      <point x="276" y="562" type="curve" smooth="yes"/>
      <point x="217" y="562"/>
      <point x="158" y="591"/>
    </contour>
    <component base="si_Ba"/>
  </outline>
</glyph>
<glyph name="si_BhI" format="1">
  <advance width="670"/>
  <outline>
    <contour>
      <point x="178" y="537" type="curve" smooth="yes"/>
      <point x="178" y="628"/>
      <point x="277" y="667"/>
      <point x="379" y="667" type="curve"/>
      <point x="485" y="667"/>
      <point x="587" y="618"/>
      <point x="587" y="523" type="curve"/>
      <point x="587" y="461"/>
      <point x="548" y="413"/>
      <point x="467" y="407" type="curve" smooth="yes"/>
      <point x="449" y="431" type="line" smooth="yes"/>
      <point x="452" y="431"/>
      <point x="455" y="431"/>
      <point x="457" y="431" type="curve" smooth="yes"/>
      <point x="515" y="431"/>
      <point x="545" y="466"/>
      <point x="545" y="498" type="curve" smooth="yes"/>
      <point x="545" y="552"/>
      <point x="466" y="566"/>
      <point x="386" y="566" type="curve" smooth="yes"/>
      <point x="305" y="566"/>
      <point x="249" y="538"/>
      <point x="249" y="503" type="curve"/>
      <point x="249" y="454"/>
      <point x="353" y="431"/>
      <point x="439" y="431" type="curve"/>
      <point x="440" y="431"/>
      <point x="440" y="431"/>
      <point x="441" y="432" type="curve" smooth="yes"/>
      <point x="425" y="408" type="line" smooth="yes"/>
      <point x="265" y="411"/>
      <point x="178" y="462"/>
    </contour>
    <component base="si_Bha"/>
  </outline>
</glyph>
<glyph name="si_BhRIi" format="1">
  <advance width="670"/>
  <outline>
    <contour>
      <point x="422" y="520" type="curve" smooth="yes"/>
      <point x="422" y="487"/>
      <point x="451" y="460"/>
      <point x="488" y="460" type="curve" smooth="yes"/>
      <point x="525" y="460"/>
      <point x="555" y="487"/>
      <point x="555" y="520" type="curve" smooth="yes"/>
      <point x="555" y="553"/>
      <point x="525" y="580"/>
      <point x="488" y="580" type="curve" smooth="yes"/>
      <point x="451" y="580"/>
      <point x="422" y="553"/>
    </contour>
    <contour>
      <point x="178" y="537" type="curve" smooth="yes"/>
      <point x="178" y="628"/>
      <point x="277" y="667"/>
      <point x="379" y="667" type="curve" smooth="yes"/>
      <point x="485" y="667"/>
      <point x="587" y="618"/>
      <point x="587" y="525" type="curve" smooth="yes"/>
      <point x="587" y="457"/>
      <point x="530" y="431"/>
      <point x="488" y="431" type="curve" smooth="yes"/>
      <point x="443" y="431"/>
      <point x="389" y="463"/>
      <point x="389" y="520" type="curve" smooth="yes"/>
      <point x="389" y="539"/>
      <point x="396" y="554"/>
      <point x="403" y="566" type="curve"/>
      <point x="398" y="566"/>
      <point x="392" y="566"/>
      <point x="386" y="566" type="curve" smooth="yes"/>
      <point x="305" y="566"/>
      <point x="249" y="538"/>
      <point x="249" y="503" type="curve" smooth="yes"/>
      <point x="249" y="454"/>
      <point x="353" y="431"/>
      <point x="439" y="431" type="curve" smooth="yes"/>
      <point x="440" y="431"/>
      <point x="440" y="431"/>
      <point x="441" y="432" type="curve"/>
      <point x="425" y="406" type="line"/>
      <point x="265" y="409"/>
      <point x="178" y="462"/>
    </contour>
    <contour>
      <point x="76" y="-44" type="curve"/>
      <point x="105" y="-44" type="line"/>
      <point x="139" y="-93"/>
      <point x="195" y="-114"/>
      <point x="308" y="-114" type="curve" smooth="yes"/>
      <point x="460" y="-114"/>
      <point x="572" y="-31"/>
      <point x="572" y="63" type="curve" smooth="yes"/>
      <point x="572" y="78"/>
      <point x="569" y="91"/>
      <point x="562" y="102" type="curve"/>
      <point x="575" y="133" type="line"/>
      <point x="593" y="106"/>
      <point x="602" y="75"/>
      <point x="602" y="38" type="curve" smooth="yes"/>
      <point x="602" y="-124"/>
      <point x="483" y="-219"/>
      <point x="331" y="-219" type="curve" smooth="yes"/>
      <point x="191" y="-219"/>
      <point x="113" y="-153"/>
    </contour>
    <component base="si_Bha"/>
  </outline>
</glyph>
<glyph name="si_C.halant" format="1">
  <advance width="621"/>
  <outline>
    <contour>
      <point x="144" y="538" type="curve" smooth="yes"/>
      <point x="144" y="526"/>
      <point x="163" y="526"/>
      <point x="163" y="515" type="curve" smooth="yes"/>
      <point x="163" y="513"/>
      <point x="162" y="510"/>
      <point x="160" y="508" type="curve"/>
      <point x="193" y="514"/>
      <point x="233" y="519"/>
      <point x="279" y="519" type="curve" smooth="yes"/>
      <point x="387" y="519"/>
      <point x="469" y="489"/>
      <point x="524" y="425" type="curve"/>
      <point x="492" y="536"/>
      <point x="400" y="574"/>
      <point x="284" y="574" type="curve" smooth="yes"/>
      <point x="212" y="574"/>
      <point x="144" y="558"/>
    </contour>
    <contour>
      <point x="42" y="440" type="curve"/>
      <point x="42" y="473" type="line"/>
      <point x="74" y="485"/>
      <point x="124" y="499"/>
      <point x="124" y="508" type="curve" smooth="yes"/>
      <point x="124" y="520"/>
      <point x="96" y="520"/>
      <point x="96" y="546" type="curve" smooth="yes"/>
      <point x="96" y="583"/>
      <point x="163" y="629"/>
      <point x="278" y="629" type="curve" smooth="yes"/>
      <point x="486" y="629"/>
      <point x="557" y="490"/>
      <point x="569" y="356" type="curve"/>
      <point x="576" y="326"/>
      <point x="577" y="290"/>
      <point x="577" y="274" type="curve"/>
      <point x="517" y="316" type="line"/>
      <point x="517" y="324"/>
      <point x="517" y="320"/>
      <point x="517" y="324" type="curve" smooth="yes"/>
      <point x="517" y="405"/>
      <point x="445" y="492"/>
      <point x="276" y="492" type="curve" smooth="yes"/>
      <point x="200" y="492"/>
      <point x="123" y="478"/>
    </contour>
    <contour>
      <point x="64" y="165" type="curve" smooth="yes"/>
      <point x="64" y="196"/>
      <point x="74" y="228"/>
      <point x="97" y="248" type="curve" smooth="yes"/>
      <point x="113" y="262"/>
      <point x="132" y="273"/>
      <point x="158" y="278" type="curve"/>
      <point x="192" y="290"/>
      <point x="233" y="302"/>
      <point x="270" y="302" type="curve" smooth="yes"/>
      <point x="284" y="302" type="line"/>
      <point x="284" y="304"/>
      <point x="284" y="306"/>
      <point x="284" y="308" type="curve" smooth="yes"/>
      <point x="284" y="358"/>
      <point x="252" y="389"/>
      <point x="220" y="389" type="curve" smooth="yes"/>
      <point x="186" y="389"/>
      <point x="173" y="371"/>
      <point x="168" y="355" type="curve" smooth="yes"/>
      <point x="161" y="336"/>
      <point x="150" y="320"/>
      <point x="121" y="320" type="curve" smooth="yes"/>
      <point x="101" y="320"/>
      <point x="83" y="333"/>
      <point x="83" y="359" type="curve" smooth="yes"/>
      <point x="83" y="406"/>
      <point x="133" y="432"/>
      <point x="188" y="432" type="curve" smooth="yes"/>
      <point x="276" y="432"/>
      <point x="319" y="376"/>
      <point x="319" y="290" type="curve" smooth="yes"/>
      <point x="319" y="287"/>
      <point x="319" y="277"/>
      <point x="319" y="274" type="curve"/>
      <point x="271" y="274" type="line" smooth="yes"/>
      <point x="216" y="274"/>
      <point x="184" y="266"/>
      <point x="161" y="254" type="curve" smooth="yes"/>
      <point x="133" y="239"/>
      <point x="128" y="220"/>
      <point x="128" y="207" type="curve" smooth="yes"/>
      <point x="128" y="158"/>
      <point x="208" y="140"/>
      <point x="298" y="140" type="curve" smooth="yes"/>
      <point x="451" y="140"/>
      <point x="517" y="217"/>
      <point x="517" y="320" type="curve"/>
      <point x="532" y="299"/>
      <point x="552" y="305"/>
      <point x="577" y="277" type="curve"/>
      <point x="577" y="114"/>
      <point x="478" y="0"/>
      <point x="295" y="0" type="curve" smooth="yes"/>
      <point x="174" y="0"/>
      <point x="64" y="46"/>
    </contour>
    <contour>
      <point x="13" y="267" type="curve"/>
      <point x="13" y="302" type="line"/>
      <point x="282" y="302" type="line"/>
      <point x="315" y="274" type="line"/>
      <point x="148" y="274" type="line" smooth="yes"/>
      <point x="77" y="273"/>
      <point x="29" y="270"/>
    </contour>
  </outline>
</glyph>
<glyph name="si_DAae" format="1">
  <advance width="738"/>
  <outline>
    <contour>
      <point x="408" y="312" type="line"/>
      <point x="408" y="339" type="line"/>
      <point x="653" y="339" type="line"/>
      <point x="653" y="317" type="line"/>
      <point x="526" y="223" type="line"/>
      <point x="676" y="223" type="line"/>
      <point x="676" y="200" type="line"/>
      <point x="630" y="165"/>
      <point x="592" y="118"/>
      <point x="592" y="36" type="curve" smooth="yes"/>
      <point x="592" y="-29"/>
      <point x="630" y="-100"/>
      <point x="710" y="-100" type="curve"/>
      <point x="710" y="-127" type="line"/>
      <point x="677" y="-141"/>
      <point x="641" y="-148"/>
      <point x="611" y="-148" type="curve" smooth="yes"/>
      <point x="521" y="-148"/>
      <point x="460" y="-101"/>
      <point x="460" y="-18" type="curve" smooth="yes"/>
      <point x="460" y="96"/>
      <point x="563" y="156"/>
      <point x="632" y="196" type="curve"/>
      <point x="476" y="196" type="line"/>
      <point x="476" y="221" type="line"/>
      <point x="602" y="312" type="line"/>
    </contour>
    <component base="si_Da"/>
  </outline>
</glyph>
<glyph name="si_DDdh.halant" format="1">
  <advance width="729"/>
  <outline>
    <contour>
      <point x="236" y="536" type="curve" smooth="yes"/>
      <point x="236" y="527"/>
      <point x="255" y="526"/>
      <point x="255" y="515" type="curve" smooth="yes"/>
      <point x="255" y="513"/>
      <point x="254" y="510"/>
      <point x="252" y="508" type="curve"/>
      <point x="285" y="514"/>
      <point x="325" y="519"/>
      <point x="371" y="519" type="curve" smooth="yes"/>
      <point x="477" y="519"/>
      <point x="562" y="492"/>
      <point x="620" y="424" type="curve"/>
      <point x="585" y="538"/>
      <point x="492" y="574"/>
      <point x="376" y="574" type="curve" smooth="yes"/>
      <point x="309" y="574"/>
      <point x="236" y="560"/>
    </contour>
    <contour>
      <point x="125" y="195" type="curve" smooth="yes"/>
      <point x="125" y="288"/>
      <point x="178" y="364"/>
      <point x="244" y="387" type="curve" smooth="yes"/>
      <point x="265" y="394"/>
      <point x="288" y="398"/>
      <point x="313" y="398" type="curve"/>
      <point x="313" y="371" type="line" smooth="yes"/>
      <point x="310" y="371"/>
      <point x="306" y="371"/>
      <point x="303" y="371" type="curve" smooth="yes"/>
      <point x="224" y="371"/>
      <point x="180" y="312"/>
      <point x="180" y="234" type="curve" smooth="yes"/>
      <point x="180" y="198"/>
      <point x="207" y="140"/>
      <point x="280" y="140" type="curve" smooth="yes"/>
      <point x="333" y="140"/>
      <point x="380" y="159"/>
      <point x="380" y="223" type="curve" smooth="yes"/>
      <point x="380" y="249" type="line"/>
      <point x="411" y="249" type="line"/>
      <point x="411" y="223" type="line" smooth="yes"/>
      <point x="411" y="159"/>
      <point x="458" y="141"/>
      <point x="505" y="141" type="curve" smooth="yes"/>
      <point x="588" y="141"/>
      <point x="618" y="218"/>
      <point x="618" y="296" type="curve" smooth="yes"/>
      <point x="618" y="412"/>
      <point x="535" y="492"/>
      <point x="374" y="492" type="curve" smooth="yes"/>
      <point x="298" y="492"/>
      <point x="215" y="480"/>
      <point x="134" y="448" type="curve"/>
      <point x="134" y="481" type="line"/>
      <point x="166" y="490"/>
      <point x="216" y="501"/>
      <point x="216" y="508" type="curve" smooth="yes"/>
      <point x="216" y="520"/>
      <point x="187" y="521"/>
      <point x="187" y="545" type="curve" smooth="yes"/>
      <point x="187" y="583"/>
      <point x="255" y="629"/>
      <point x="370" y="629" type="curve" smooth="yes"/>
      <point x="578" y="629"/>
      <point x="652" y="490"/>
      <point x="664" y="356" type="curve"/>
      <point x="673" y="331"/>
      <point x="680" y="289"/>
      <point x="680" y="247" type="curve" smooth="yes"/>
      <point x="680" y="141"/>
      <point x="640" y="0"/>
      <point x="514" y="0" type="curve" smooth="yes"/>
      <point x="465" y="0"/>
      <point x="425" y="20"/>
      <point x="395" y="59" type="curve"/>
      <point x="364" y="20"/>
      <point x="327" y="0"/>
      <point x="282" y="0" type="curve" smooth="yes"/>
      <point x="180" y="0"/>
      <point x="125" y="96"/>
    </contour>
    <contour>
      <point x="27" y="212" type="curve" smooth="yes"/>
      <point x="27" y="343"/>
      <point x="102" y="433"/>
      <point x="220" y="433" type="curve" smooth="yes"/>
      <point x="246" y="433"/>
      <point x="289" y="427"/>
      <point x="313" y="398" type="curve"/>
      <point x="300" y="396"/>
      <point x="276" y="393"/>
      <point x="272" y="393" type="curve"/>
      <point x="267" y="399"/>
      <point x="248" y="404"/>
      <point x="224" y="404" type="curve" smooth="yes"/>
      <point x="97" y="404"/>
      <point x="59" y="298"/>
      <point x="59" y="208" type="curve" smooth="yes"/>
      <point x="59" y="131"/>
      <point x="86" y="75"/>
      <point x="135" y="34" type="curve"/>
      <point x="135" y="0" type="line"/>
      <point x="69" y="33"/>
      <point x="27" y="111"/>
    </contour>
  </outline>
</glyph>
<glyph name="si_D.halant" format="1">
  <advance width="456"/>
  <outline>
    <contour>
      <point x="263" y="413" type="line"/>
      <point x="291" y="396" type="line"/>
      <point x="291" y="478" type="line"/>
      <point x="307" y="471"/>
      <point x="322" y="468"/>
      <point x="336" y="468" type="curve" smooth="yes"/>
      <point x="379" y="468"/>
      <point x="414" y="498"/>
      <point x="414" y="542" type="curve" smooth="yes"/>
      <point x="414" y="634"/>
      <point x="317" y="639"/>
      <point x="263" y="681" type="curve"/>
    </contour>
    <contour>
      <point x="291" y="504" type="curve"/>
      <point x="291" y="637" type="line"/>
      <point x="337" y="606"/>
      <point x="369" y="587"/>
      <point x="369" y="545" type="curve" smooth="yes"/>
      <point x="369" y="522"/>
      <point x="356" y="497"/>
      <point x="324" y="497" type="curve" smooth="yes"/>
      <point x="311" y="497"/>
      <point x="300" y="500"/>
    </contour>
    <contour>
      <point x="31" y="169" type="curve" smooth="yes"/>
      <point x="31" y="274"/>
      <point x="104" y="317"/>
      <point x="223" y="317" type="curve" smooth="yes"/>
      <point x="340" y="317" type="line"/>
      <point x="331" y="363"/>
      <point x="301" y="390"/>
      <point x="268" y="390" type="curve" smooth="yes"/>
      <point x="249" y="390"/>
      <point x="235" y="379"/>
      <point x="226" y="361" type="curve" smooth="yes"/>
      <point x="216" y="339"/>
      <point x="199" y="333"/>
      <point x="179" y="333" type="curve" smooth="yes"/>
      <point x="154" y="333"/>
      <point x="136" y="350"/>
      <point x="136" y="371" type="curve" smooth="yes"/>
      <point x="136" y="407"/>
      <point x="177" y="433"/>
      <point x="232" y="433" type="curve" smooth="yes"/>
      <point x="318" y="433"/>
      <point x="362" y="389"/>
      <point x="379" y="291" type="curve"/>
      <point x="317" y="291" type="line" smooth="yes"/>
      <point x="229" y="291"/>
      <point x="184" y="257"/>
      <point x="184" y="173" type="curve" smooth="yes"/>
      <point x="184" y="89"/>
      <point x="236" y="44"/>
      <point x="286" y="44" type="curve" smooth="yes"/>
      <point x="316" y="44"/>
      <point x="341" y="48"/>
      <point x="381" y="94" type="curve"/>
      <point x="407" y="75" type="line"/>
      <point x="376" y="39"/>
      <point x="335" y="-16"/>
      <point x="335" y="-92" type="curve" smooth="yes"/>
      <point x="335" y="-134"/>
      <point x="347" y="-186"/>
      <point x="409" y="-206" type="curve"/>
      <point x="409" y="-238" type="line"/>
      <point x="389" y="-243"/>
      <point x="366" y="-246"/>
      <point x="349" y="-246" type="curve" smooth="yes"/>
      <point x="269" y="-246"/>
      <point x="235" y="-193"/>
      <point x="235" y="-136" type="curve" smooth="yes"/>
      <point x="235" y="-79"/>
      <point x="267" y="-40"/>
      <point x="315" y="8" type="curve"/>
      <point x="290" y="2"/>
      <point x="261" y="-1"/>
      <point x="234" y="-1" type="curve" smooth="yes"/>
      <point x="103" y="-1"/>
      <point x="31" y="69"/>
    </contour>
  </outline>
</glyph>
<glyph name="si_Da.reph" format="1">
  <advance width="456"/>
  <outline>
    <contour>
      <point x="199" y="511" type="curve" smooth="yes"/>
      <point x="199" y="491"/>
      <point x="218" y="475"/>
      <point x="240" y="475" type="curve" smooth="yes"/>
      <point x="261" y="475"/>
      <point x="280" y="491"/>
      <point x="280" y="511" type="curve" smooth="yes"/>
      <point x="280" y="531"/>
      <point x="261" y="547"/>
      <point x="240" y="547" type="curve" smooth="yes"/>
      <point x="218" y="547"/>
      <point x="199" y="531"/>
    </contour>
    <contour>
      <point x="96" y="530" type="curve" smooth="yes"/>
      <point x="96" y="594"/>
      <point x="155" y="631"/>
      <point x="236" y="631" type="curve" smooth="yes"/>
      <point x="314" y="631"/>
      <point x="378" y="588"/>
      <point x="378" y="517" type="curve" smooth="yes"/>
      <point x="378" y="493"/>
      <point x="369" y="471"/>
      <point x="352" y="452" type="curve"/>
      <point x="317" y="452" type="line"/>
      <point x="330" y="464"/>
      <point x="346" y="489"/>
      <point x="346" y="516" type="curve" smooth="yes"/>
      <point x="346" y="571"/>
      <point x="296" y="602"/>
      <point x="236" y="602" type="curve" smooth="yes"/>
      <point x="183" y="602"/>
      <point x="129" y="580"/>
      <point x="129" y="530" type="curve" smooth="yes"/>
      <point x="129" y="491"/>
      <point x="172" y="474"/>
      <point x="190" y="471" type="curve"/>
      <point x="182" y="477"/>
      <point x="172" y="491"/>
      <point x="172" y="512" type="curve" smooth="yes"/>
      <point x="172" y="547"/>
      <point x="203" y="572"/>
      <point x="238" y="572" type="curve" smooth="yes"/>
      <point x="280" y="572"/>
      <point x="308" y="545"/>
      <point x="308" y="510" type="curve" smooth="yes"/>
      <point x="308" y="471"/>
      <point x="272" y="445"/>
      <point x="214" y="445" type="curve" smooth="yes"/>
      <point x="156" y="445"/>
      <point x="96" y="474"/>
    </contour>
    <contour>
      <point x="31" y="169" type="curve" smooth="yes"/>
      <point x="31" y="274"/>
      <point x="104" y="317"/>
      <point x="223" y="317" type="curve" smooth="yes"/>
      <point x="340" y="317" type="line"/>
      <point x="331" y="363"/>
      <point x="301" y="390"/>
      <point x="268" y="390" type="curve" smooth="yes"/>
      <point x="249" y="390"/>
      <point x="235" y="379"/>
      <point x="226" y="361" type="curve" smooth="yes"/>
      <point x="216" y="339"/>
      <point x="199" y="333"/>
      <point x="179" y="333" type="curve" smooth="yes"/>
      <point x="154" y="333"/>
      <point x="136" y="350"/>
      <point x="136" y="371" type="curve" smooth="yes"/>
      <point x="136" y="407"/>
      <point x="177" y="433"/>
      <point x="232" y="433" type="curve" smooth="yes"/>
      <point x="318" y="433"/>
      <point x="362" y="389"/>
      <point x="379" y="291" type="curve"/>
      <point x="317" y="291" type="line" smooth="yes"/>
      <point x="229" y="291"/>
      <point x="184" y="257"/>
      <point x="184" y="173" type="curve" smooth="yes"/>
      <point x="184" y="89"/>
      <point x="236" y="44"/>
      <point x="286" y="44" type="curve" smooth="yes"/>
      <point x="316" y="44"/>
      <point x="341" y="48"/>
      <point x="381" y="94" type="curve"/>
      <point x="407" y="75" type="line"/>
      <point x="376" y="39"/>
      <point x="335" y="-16"/>
      <point x="335" y="-92" type="curve" smooth="yes"/>
      <point x="335" y="-134"/>
      <point x="347" y="-186"/>
      <point x="409" y="-206" type="curve"/>
      <point x="409" y="-238" type="line"/>
      <point x="389" y="-243"/>
      <point x="366" y="-246"/>
      <point x="349" y="-246" type="curve" smooth="yes"/>
      <point x="269" y="-246"/>
      <point x="235" y="-193"/>
      <point x="235" y="-136" type="curve" smooth="yes"/>
      <point x="235" y="-79"/>
      <point x="267" y="-40"/>
      <point x="315" y="8" type="curve"/>
      <point x="290" y="2"/>
      <point x="261" y="-1"/>
      <point x="234" y="-1" type="curve" smooth="yes"/>
      <point x="103" y="-1"/>
      <point x="31" y="69"/>
    </contour>
  </outline>
</glyph>
<glyph name="si_DdRIi" format="1">
  <advance width="647"/>
  <outline>
    <contour>
      <point x="415" y="539" type="curve" smooth="yes"/>
      <point x="415" y="568"/>
      <point x="442" y="592"/>
      <point x="474" y="592" type="curve" smooth="yes"/>
      <point x="507" y="592"/>
      <point x="534" y="568"/>
      <point x="534" y="539" type="curve" smooth="yes"/>
      <point x="534" y="509"/>
      <point x="507" y="485"/>
      <point x="474" y="485" type="curve" smooth="yes"/>
      <point x="442" y="485"/>
      <point x="415" y="509"/>
    </contour>
    <contour>
      <point x="80" y="562" type="curve" smooth="yes"/>
      <point x="80" y="476"/>
      <point x="206" y="481"/>
      <point x="295" y="476" type="curve" smooth="yes"/>
      <point x="396" y="470"/>
      <point x="460" y="469"/>
      <point x="504" y="416" type="curve" smooth="yes"/>
      <point x="532" y="383"/>
      <point x="541" y="348"/>
      <point x="541" y="295" type="curve"/>
      <point x="598" y="256" type="line"/>
      <point x="598" y="354"/>
      <point x="562" y="423"/>
      <point x="512" y="459" type="curve" smooth="yes"/>
      <point x="458" y="499"/>
      <point x="359" y="501"/>
      <point x="294" y="504" type="curve" smooth="yes"/>
      <point x="192" y="508"/>
      <point x="134" y="511"/>
      <point x="134" y="540" type="curve" smooth="yes"/>
      <point x="134" y="580"/>
      <point x="238" y="588"/>
      <point x="314" y="588" type="curve" smooth="yes"/>
      <point x="350" y="588"/>
      <point x="388" y="586"/>
      <point x="396" y="584" type="curve"/>
      <point x="393" y="579"/>
      <point x="382" y="565"/>
      <point x="382" y="542" type="curve" smooth="yes"/>
      <point x="382" y="489"/>
      <point x="430" y="458"/>
      <point x="474" y="458" type="curve" smooth="yes"/>
      <point x="518" y="458"/>
      <point x="566" y="489"/>
      <point x="566" y="542" type="curve" smooth="yes"/>
      <point x="566" y="640"/>
      <point x="452" y="670"/>
      <point x="316" y="670" type="curve" smooth="yes"/>
      <point x="216" y="670"/>
      <point x="80" y="652"/>
    </contour>
    <contour>
      <point x="15" y="285" type="line"/>
      <point x="15" y="315" type="line"/>
      <point x="258" y="315" type="line"/>
      <point x="256" y="350"/>
      <point x="231" y="388"/>
      <point x="197" y="388" type="curve" smooth="yes"/>
      <point x="188" y="388"/>
      <point x="169" y="387"/>
      <point x="154" y="360" type="curve" smooth="yes"/>
      <point x="144" y="342"/>
      <point x="129" y="335"/>
      <point x="113" y="335" type="curve" smooth="yes"/>
      <point x="89" y="335"/>
      <point x="73" y="351"/>
      <point x="73" y="373" type="curve" smooth="yes"/>
      <point x="73" y="413"/>
      <point x="121" y="432"/>
      <point x="163" y="432" type="curve" smooth="yes"/>
      <point x="242" y="432"/>
      <point x="295" y="384"/>
      <point x="295" y="285" type="curve"/>
      <point x="224" y="285" type="line" smooth="yes"/>
      <point x="131" y="285"/>
      <point x="109" y="234"/>
      <point x="109" y="210" type="curve" smooth="yes"/>
      <point x="109" y="164"/>
      <point x="150" y="140"/>
      <point x="203" y="140" type="curve" smooth="yes"/>
      <point x="267" y="140"/>
      <point x="297" y="161"/>
      <point x="297" y="200" type="curve" smooth="yes"/>
      <point x="297" y="221" type="line"/>
      <point x="328" y="221" type="line"/>
      <point x="328" y="200" type="line" smooth="yes"/>
      <point x="328" y="164"/>
      <point x="353" y="140"/>
      <point x="414" y="140" type="curve" smooth="yes"/>
      <point x="489" y="140"/>
      <point x="541" y="198"/>
      <point x="541" y="298" type="curve"/>
      <point x="559" y="290"/>
      <point x="576" y="267"/>
      <point x="598" y="258" type="curve"/>
      <point x="598" y="110"/>
      <point x="547" y="0"/>
      <point x="428" y="0" type="curve" smooth="yes"/>
      <point x="363" y="0"/>
      <point x="335" y="29"/>
      <point x="313" y="59" type="curve"/>
      <point x="283" y="22"/>
      <point x="250" y="0"/>
      <point x="199" y="0" type="curve" smooth="yes"/>
      <point x="98" y="0"/>
      <point x="46" y="81"/>
      <point x="46" y="162" type="curve" smooth="yes"/>
      <point x="46" y="212"/>
      <point x="71" y="261"/>
      <point x="125" y="285" type="curve"/>
    </contour>
    <contour>
      <point x="56" y="-44" type="curve"/>
      <point x="85" y="-44" type="line"/>
      <point x="123" y="-87"/>
      <point x="190" y="-114"/>
      <point x="295" y="-114" type="curve" smooth="yes"/>
      <point x="438" y="-114"/>
      <point x="549" y="-31"/>
      <point x="549" y="63" type="curve" smooth="yes"/>
      <point x="549" y="78"/>
      <point x="547" y="90"/>
      <point x="542" y="102" type="curve"/>
      <point x="555" y="133" type="line"/>
      <point x="573" y="106"/>
      <point x="582" y="75"/>
      <point x="582" y="38" type="curve" smooth="yes"/>
      <point x="582" y="-124"/>
      <point x="454" y="-219"/>
      <point x="310" y="-219" type="curve" smooth="yes"/>
      <point x="177" y="-219"/>
      <point x="93" y="-153"/>
    </contour>
  </outline>
</glyph>
<glyph name="si_DDhU" format="1">
  <advance width="729"/>
  <outline>
    <contour>
      <point x="144" y="-142" type="curve" smooth="yes"/>
      <point x="144" y="-90"/>
      <point x="190" y="-50"/>
      <point x="245" y="-50" type="curve" smooth="yes"/>
      <point x="287" y="-50"/>
      <point x="324" y="-74"/>
      <point x="339" y="-110" type="curve"/>
      <point x="306" y="-122" type="line"/>
      <point x="300" y="-104"/>
      <point x="278" y="-82"/>
      <point x="245" y="-82" type="curve" smooth="yes"/>
      <point x="209" y="-82"/>
      <point x="179" y="-110"/>
      <point x="179" y="-142" type="curve" smooth="yes"/>
      <point x="179" y="-172"/>
      <point x="201" y="-192"/>
      <point x="271" y="-192" type="curve" smooth="yes"/>
      <point x="632" y="-192" type="line"/>
      <point x="632" y="128" type="line"/>
      <point x="667" y="219" type="line"/>
      <point x="667" y="-235" type="line"/>
      <point x="249" y="-235" type="line" smooth="yes"/>
      <point x="170" y="-235"/>
      <point x="144" y="-186"/>
    </contour>
  </outline>
</glyph>
<glyph name="si_DDha" format="1">
  <advance width="729"/>
  <outline>
    <contour>
      <point x="27" y="212" type="curve" smooth="yes"/>
      <point x="27" y="343"/>
      <point x="102" y="433"/>
      <point x="220" y="433" type="curve" smooth="yes"/>
      <point x="246" y="433"/>
      <point x="289" y="427"/>
      <point x="313" y="398" type="curve"/>
      <point x="300" y="396"/>
      <point x="276" y="393"/>
      <point x="272" y="393" type="curve"/>
      <point x="267" y="399"/>
      <point x="248" y="404"/>
      <point x="224" y="404" type="curve" smooth="yes"/>
      <point x="97" y="404"/>
      <point x="59" y="298"/>
      <point x="59" y="208" type="curve" smooth="yes"/>
      <point x="59" y="131"/>
      <point x="86" y="75"/>
      <point x="135" y="34" type="curve"/>
      <point x="135" y="0" type="line"/>
      <point x="69" y="33"/>
      <point x="27" y="111"/>
    </contour>
    <component base="si_Dha" xOffset="93"/>
  </outline>
</glyph>
<glyph name="si_FI" format="1">
  <advance width="607"/>
  <outline>
    <contour>
      <point x="64" y="518" type="curve" smooth="yes"/>
      <point x="64" y="626"/>
      <point x="177" y="671"/>
      <point x="296" y="671" type="curve"/>
      <point x="415" y="671"/>
      <point x="528" y="626"/>
      <point x="528" y="518" type="curve"/>
      <point x="528" y="443"/>
      <point x="462" y="408"/>
      <point x="385" y="405" type="curve" smooth="yes"/>
      <point x="408" y="428" type="line" smooth="yes"/>
      <point x="446" y="437"/>
      <point x="463" y="447"/>
      <point x="463" y="479" type="curve" smooth="yes"/>
      <point x="463" y="521"/>
      <point x="382" y="536"/>
      <point x="296" y="536" type="curve"/>
      <point x="207" y="536"/>
      <point x="124" y="522"/>
      <point x="124" y="479" type="curve"/>
      <point x="124" y="450"/>
      <point x="148" y="434"/>
      <point x="187" y="427" type="curve" smooth="yes"/>
      <point x="207" y="405" type="line" smooth="yes"/>
      <point x="130" y="408"/>
      <point x="64" y="443"/>
    </contour>
    <component base="si_Fa"/>
  </outline>
</glyph>
<glyph name="si_F.halant" format="1">
  <advance width="607"/>
  <outline>
    <contour>
      <point x="404" y="423" type="line"/>
      <point x="404" y="681" type="line"/>
      <point x="458" y="639"/>
      <point x="555" y="634"/>
      <point x="555" y="542" type="curve"/>
      <point x="555" y="498"/>
      <point x="520" y="468"/>
      <point x="477" y="468" type="curve" smooth="yes"/>
      <point x="462" y="468"/>
      <point x="447" y="471"/>
      <point x="432" y="478" type="curve" smooth="yes"/>
      <point x="432" y="410" type="line"/>
    </contour>
    <contour>
      <point x="432" y="504" type="line"/>
      <point x="441" y="500"/>
      <point x="451" y="497"/>
      <point x="464" y="497" type="curve"/>
      <point x="496" y="497"/>
      <point x="510" y="522"/>
      <point x="510" y="545" type="curve" smooth="yes"/>
      <point x="510" y="587"/>
      <point x="478" y="606"/>
      <point x="432" y="637" type="curve" smooth="yes"/>
    </contour>
    <component base="si_Fa"/>
  </outline>
</glyph>
<glyph name="si_GU" format="1">
  <advance width="636"/>
  <outline>
    <contour>
      <point x="306" y="-80" type="curve" smooth="yes"/>
      <point x="306" y="-25"/>
      <point x="332" y="7"/>
      <point x="372" y="23" type="curve"/>
      <point x="381" y="-6" type="line"/>
      <point x="366" y="-11"/>
      <point x="351" y="-26"/>
      <point x="351" y="-48" type="curve" smooth="yes"/>
      <point x="351" y="-85"/>
      <point x="394" y="-105"/>
      <point x="446" y="-105" type="curve" smooth="yes"/>
      <point x="507" y="-105"/>
      <point x="554" y="-83"/>
      <point x="554" y="-45" type="curve" smooth="yes"/>
      <point x="554" y="-42"/>
      <point x="553" y="-39"/>
      <point x="553" y="-36" type="curve"/>
      <point x="583" y="-36" type="line"/>
      <point x="585" y="-45"/>
      <point x="586" y="-60"/>
      <point x="586" y="-70" type="curve" smooth="yes"/>
      <point x="586" y="-122"/>
      <point x="542" y="-192"/>
      <point x="441" y="-192" type="curve" smooth="yes"/>
      <point x="373" y="-192"/>
      <point x="306" y="-149"/>
    </contour>
    <contour>
      <point x="34" y="207" type="curve" smooth="yes"/>
      <point x="34" y="96"/>
      <point x="97" y="-2"/>
      <point x="208" y="-2" type="curve" smooth="yes"/>
      <point x="295" y="-2"/>
      <point x="352" y="56"/>
      <point x="352" y="136" type="curve" smooth="yes"/>
      <point x="352" y="202"/>
      <point x="320" y="246"/>
      <point x="270" y="246" type="curve" smooth="yes"/>
      <point x="263" y="246"/>
      <point x="256" y="244"/>
      <point x="250" y="241" type="curve"/>
      <point x="257" y="277"/>
      <point x="292" y="320"/>
      <point x="363" y="320" type="curve" smooth="yes"/>
      <point x="461" y="320"/>
      <point x="498" y="255"/>
      <point x="498" y="175" type="curve" smooth="yes"/>
      <point x="498" y="110"/>
      <point x="466" y="29"/>
      <point x="405" y="29" type="curve" smooth="yes"/>
      <point x="391" y="29"/>
      <point x="374" y="25"/>
      <point x="368" y="22" type="curve"/>
      <point x="377" y="-7" type="line"/>
      <point x="385" y="-4"/>
      <point x="397" y="-1"/>
      <point x="417" y="-1" type="curve" smooth="yes"/>
      <point x="508" y="-1"/>
      <point x="586" y="95"/>
      <point x="586" y="217" type="curve" smooth="yes"/>
      <point x="586" y="332"/>
      <point x="522" y="432"/>
      <point x="410" y="432" type="curve" smooth="yes"/>
      <point x="288" y="432"/>
      <point x="225" y="321"/>
      <point x="216" y="194" type="curve"/>
      <point x="244" y="194" type="line"/>
      <point x="244" y="197"/>
      <point x="245" y="208"/>
      <point x="246" y="214" type="curve"/>
      <point x="251" y="217"/>
      <point x="258" y="220"/>
      <point x="269" y="220" type="curve" smooth="yes"/>
      <point x="276" y="220"/>
      <point x="294" y="216"/>
      <point x="294" y="191" type="curve" smooth="yes"/>
      <point x="294" y="164"/>
      <point x="270" y="140"/>
      <point x="211" y="140" type="curve" smooth="yes"/>
      <point x="142" y="140"/>
      <point x="88" y="186"/>
      <point x="88" y="258" type="curve" smooth="yes"/>
      <point x="88" y="329"/>
      <point x="138" y="405"/>
      <point x="222" y="405" type="curve" smooth="yes"/>
      <point x="225" y="405"/>
      <point x="230" y="405"/>
      <point x="233" y="405" type="curve"/>
      <point x="233" y="431" type="line"/>
      <point x="229" y="431"/>
      <point x="224" y="432"/>
      <point x="220" y="432" type="curve" smooth="yes"/>
      <point x="109" y="432"/>
      <point x="34" y="330"/>
    </contour>
  </outline>
</glyph>
<glyph name="si_Gha.reph" format="1">
  <advance width="677"/>
  <outline>
    <contour>
      <point x="297" y="511" type="curve" smooth="yes"/>
      <point x="297" y="491"/>
      <point x="315" y="475"/>
      <point x="337" y="475" type="curve" smooth="yes"/>
      <point x="359" y="475"/>
      <point x="377" y="491"/>
      <point x="377" y="511" type="curve" smooth="yes"/>
      <point x="377" y="531"/>
      <point x="359" y="547"/>
      <point x="337" y="547" type="curve" smooth="yes"/>
      <point x="315" y="547"/>
      <point x="297" y="531"/>
    </contour>
    <contour>
      <point x="194" y="530" type="curve" smooth="yes"/>
      <point x="194" y="594"/>
      <point x="252" y="631"/>
      <point x="334" y="631" type="curve" smooth="yes"/>
      <point x="411" y="631"/>
      <point x="475" y="588"/>
      <point x="475" y="517" type="curve" smooth="yes"/>
      <point x="475" y="493"/>
      <point x="467" y="471"/>
      <point x="450" y="452" type="curve"/>
      <point x="414" y="452" type="line"/>
      <point x="427" y="464"/>
      <point x="443" y="489"/>
      <point x="443" y="516" type="curve" smooth="yes"/>
      <point x="443" y="571"/>
      <point x="394" y="602"/>
      <point x="333" y="602" type="curve" smooth="yes"/>
      <point x="280" y="602"/>
      <point x="227" y="580"/>
      <point x="227" y="530" type="curve" smooth="yes"/>
      <point x="227" y="491"/>
      <point x="270" y="474"/>
      <point x="288" y="471" type="curve"/>
      <point x="280" y="477"/>
      <point x="269" y="491"/>
      <point x="269" y="512" type="curve" smooth="yes"/>
      <point x="269" y="547"/>
      <point x="300" y="572"/>
      <point x="336" y="572" type="curve" smooth="yes"/>
      <point x="377" y="572"/>
      <point x="405" y="545"/>
      <point x="405" y="510" type="curve" smooth="yes"/>
      <point x="405" y="471"/>
      <point x="370" y="445"/>
      <point x="312" y="445" type="curve" smooth="yes"/>
      <point x="253" y="445"/>
      <point x="194" y="474"/>
    </contour>
    <component base="si_Gha"/>
  </outline>
</glyph>
<glyph name="si_HRa" format="1">
  <advance width="653"/>
  <outline>
    <contour>
      <point x="61" y="-44" type="curve"/>
      <point x="91" y="-44" type="line"/>
      <point x="124" y="-93"/>
      <point x="184" y="-114"/>
      <point x="298" y="-114" type="curve" smooth="yes"/>
      <point x="449" y="-114"/>
      <point x="572" y="-31"/>
      <point x="572" y="63" type="curve" smooth="yes"/>
      <point x="572" y="78"/>
      <point x="570" y="91"/>
      <point x="562" y="102" type="curve"/>
      <point x="576" y="133" type="line"/>
      <point x="594" y="106"/>
      <point x="602" y="75"/>
      <point x="602" y="38" type="curve" smooth="yes"/>
      <point x="602" y="-124"/>
      <point x="472" y="-219"/>
      <point x="320" y="-219" type="curve" smooth="yes"/>
      <point x="180" y="-219"/>
      <point x="99" y="-153"/>
    </contour>
  </outline>
</glyph>
<glyph name="si_H.halant" format="1">
  <advance width="653"/>
  <outline>
    <contour>
      <point x="452" y="413" type="line"/>
      <point x="480" y="407" type="line"/>
      <point x="480" y="478" type="line"/>
      <point x="495" y="471"/>
      <point x="510" y="468"/>
      <point x="525" y="468" type="curve" smooth="yes"/>
      <point x="568" y="468"/>
      <point x="603" y="498"/>
      <point x="603" y="542" type="curve" smooth="yes"/>
      <point x="603" y="634"/>
      <point x="506" y="639"/>
      <point x="452" y="681" type="curve"/>
    </contour>
    <contour>
      <point x="480" y="504" type="curve"/>
      <point x="480" y="637" type="line"/>
      <point x="526" y="606"/>
      <point x="558" y="587"/>
      <point x="558" y="545" type="curve" smooth="yes"/>
      <point x="558" y="522"/>
      <point x="544" y="497"/>
      <point x="512" y="497" type="curve" smooth="yes"/>
      <point x="499" y="497"/>
      <point x="489" y="500"/>
    </contour>
  </outline>
</glyph>
<glyph name="si_JnyIi" format="1">
  <advance width="842"/>
  <outline>
    <contour>
      <point x="639" y="492" type="curve" smooth="yes"/>
      <point x="639" y="463"/>
      <point x="668" y="439"/>
      <point x="703" y="439" type="curve" smooth="yes"/>
      <point x="737" y="439"/>
      <point x="766" y="463"/>
      <point x="766" y="492" type="curve" smooth="yes"/>
      <point x="766" y="522"/>
      <point x="737" y="546"/>
      <point x="703" y="546" type="curve" smooth="yes"/>
      <point x="668" y="546"/>
      <point x="639" y="522"/>
    </contour>
    <contour>
      <point x="425" y="522" type="curve" smooth="yes"/>
      <point x="425" y="614"/>
      <point x="516" y="671"/>
      <point x="613" y="671" type="curve" smooth="yes"/>
      <point x="710" y="671"/>
      <point x="802" y="620"/>
      <point x="802" y="511" type="curve" smooth="yes"/>
      <point x="802" y="440"/>
      <point x="753" y="408"/>
      <point x="702" y="408" type="curve" smooth="yes"/>
      <point x="642" y="408"/>
      <point x="605" y="448"/>
      <point x="605" y="494" type="curve" smooth="yes"/>
      <point x="605" y="536"/>
      <point x="637" y="556"/>
      <point x="644" y="560" type="curve"/>
      <point x="637" y="561"/>
      <point x="629" y="561"/>
      <point x="614" y="561" type="curve" smooth="yes"/>
      <point x="555" y="561"/>
      <point x="472" y="546"/>
      <point x="472" y="490" type="curve" smooth="yes"/>
      <point x="472" y="462"/>
      <point x="501" y="438"/>
      <point x="550" y="438" type="curve"/>
      <point x="498" y="423" type="line"/>
      <point x="474" y="429"/>
      <point x="425" y="463"/>
    </contour>
    <component base="si_Jnya"/>
  </outline>
</glyph>
<glyph name="si_KSsI" format="1">
  <advance width="1069"/>
  <outline>
    <contour>
      <point x="515" y="518" type="curve" smooth="yes"/>
      <point x="515" y="443"/>
      <point x="581" y="408"/>
      <point x="658" y="405" type="curve" smooth="yes"/>
      <point x="656" y="426" type="line" smooth="yes"/>
      <point x="602" y="429"/>
      <point x="576" y="450"/>
      <point x="576" y="479" type="curve"/>
      <point x="576" y="522"/>
      <point x="658" y="536"/>
      <point x="747" y="536" type="curve"/>
      <point x="834" y="536"/>
      <point x="914" y="521"/>
      <point x="914" y="479" type="curve" smooth="yes"/>
      <point x="914" y="447"/>
      <point x="892" y="429"/>
      <point x="839" y="426" type="curve" smooth="yes"/>
      <point x="836" y="405" type="line" smooth="yes"/>
      <point x="913" y="408"/>
      <point x="979" y="443"/>
      <point x="979" y="518" type="curve"/>
      <point x="979" y="626"/>
      <point x="867" y="671"/>
      <point x="747" y="671" type="curve"/>
      <point x="628" y="671"/>
      <point x="515" y="626"/>
    </contour>
  </outline>
</glyph>
<glyph name="si_KSsIi" format="1">
  <advance width="1069"/>
  <outline>
    <contour>
      <point x="834" y="514" type="curve" smooth="yes"/>
      <point x="834" y="544"/>
      <point x="863" y="569"/>
      <point x="899" y="569" type="curve" smooth="yes"/>
      <point x="934" y="569"/>
      <point x="963" y="544"/>
      <point x="963" y="514" type="curve" smooth="yes"/>
      <point x="963" y="484"/>
      <point x="934" y="459"/>
      <point x="899" y="459" type="curve" smooth="yes"/>
      <point x="863" y="459"/>
      <point x="834" y="484"/>
    </contour>
    <contour>
      <point x="496" y="517" type="curve" smooth="yes"/>
      <point x="496" y="456"/>
      <point x="533" y="411"/>
      <point x="586" y="406" type="curve" smooth="yes"/>
      <point x="590" y="428" type="line" smooth="yes"/>
      <point x="555" y="437"/>
      <point x="542" y="460"/>
      <point x="542" y="482" type="curve" smooth="yes"/>
      <point x="542" y="543"/>
      <point x="641" y="565"/>
      <point x="735" y="565" type="curve" smooth="yes"/>
      <point x="767" y="565"/>
      <point x="808" y="563"/>
      <point x="817" y="562" type="curve"/>
      <point x="804" y="549"/>
      <point x="801" y="525"/>
      <point x="801" y="515" type="curve" smooth="yes"/>
      <point x="801" y="470"/>
      <point x="841" y="429"/>
      <point x="899" y="429" type="curve" smooth="yes"/>
      <point x="955" y="429"/>
      <point x="1000" y="469"/>
      <point x="1000" y="524" type="curve"/>
      <point x="1000" y="627"/>
      <point x="863" y="671"/>
      <point x="747" y="671" type="curve"/>
      <point x="620" y="671"/>
      <point x="496" y="624"/>
    </contour>
  </outline>
</glyph>
<glyph name="si_KSsUu" format="1">
  <advance width="1069"/>
  <outline>
    <contour>
      <point x="491" y="-138" type="curve" smooth="yes"/>
      <point x="491" y="-80"/>
      <point x="540" y="-40"/>
      <point x="593" y="-40" type="curve" smooth="yes"/>
      <point x="635" y="-40"/>
      <point x="667" y="-55"/>
      <point x="690" y="-91" type="curve"/>
      <point x="657" y="-102" type="line"/>
      <point x="646" y="-85"/>
      <point x="627" y="-70"/>
      <point x="598" y="-70" type="curve" smooth="yes"/>
      <point x="559" y="-70"/>
      <point x="534" y="-95"/>
      <point x="534" y="-120" type="curve" smooth="yes"/>
      <point x="534" y="-152"/>
      <point x="568" y="-167"/>
      <point x="602" y="-167" type="curve" smooth="yes"/>
      <point x="717" y="-167"/>
      <point x="751" y="-114"/>
      <point x="859" y="-114" type="curve" smooth="yes"/>
      <point x="910" y="-114"/>
      <point x="953" y="-134"/>
      <point x="980" y="-166" type="curve"/>
      <point x="980" y="152" type="line"/>
      <point x="1015" y="212" type="line"/>
      <point x="1015" y="-231" type="line"/>
      <point x="989" y="-231" type="line"/>
      <point x="974" y="-195"/>
      <point x="932" y="-146"/>
      <point x="869" y="-146" type="curve" smooth="yes"/>
      <point x="778" y="-146"/>
      <point x="730" y="-237"/>
      <point x="607" y="-237" type="curve" smooth="yes"/>
      <point x="552" y="-237"/>
      <point x="491" y="-206"/>
    </contour>
    <component base="si_KSsa"/>
  </outline>
</glyph>
<glyph name="si_KSs.halant" format="1">
  <advance width="1069"/>
  <outline>
    <contour>
      <point x="869" y="423" type="line"/>
      <point x="897" y="410" type="line"/>
      <point x="897" y="478" type="line" smooth="yes"/>
      <point x="913" y="471"/>
      <point x="928" y="468"/>
      <point x="942" y="468" type="curve" smooth="yes"/>
      <point x="985" y="468"/>
      <point x="1020" y="498"/>
      <point x="1020" y="542" type="curve"/>
      <point x="1020" y="634"/>
      <point x="923" y="639"/>
      <point x="869" y="681" type="curve"/>
    </contour>
    <contour>
      <point x="897" y="504" type="curve"/>
      <point x="897" y="637" type="line" smooth="yes"/>
      <point x="943" y="606"/>
      <point x="975" y="587"/>
      <point x="975" y="545" type="curve" smooth="yes"/>
      <point x="975" y="522"/>
      <point x="962" y="497"/>
      <point x="930" y="497" type="curve"/>
      <point x="917" y="497"/>
      <point x="906" y="500"/>
    </contour>
  </outline>
</glyph>
<glyph name="si_KVUu" format="1">
  <advance width="1061"/>
  <outline>
    <contour>
      <point x="511" y="-138" type="curve" smooth="yes"/>
      <point x="511" y="-80"/>
      <point x="560" y="-40"/>
      <point x="613" y="-40" type="curve" smooth="yes"/>
      <point x="655" y="-40"/>
      <point x="687" y="-55"/>
      <point x="710" y="-91" type="curve"/>
      <point x="677" y="-102" type="line"/>
      <point x="665" y="-85"/>
      <point x="647" y="-70"/>
      <point x="618" y="-70" type="curve" smooth="yes"/>
      <point x="579" y="-70"/>
      <point x="554" y="-95"/>
      <point x="554" y="-120" type="curve" smooth="yes"/>
      <point x="554" y="-152"/>
      <point x="583" y="-167"/>
      <point x="617" y="-167" type="curve" smooth="yes"/>
      <point x="693" y="-167"/>
      <point x="749" y="-114"/>
      <point x="849" y="-114" type="curve" smooth="yes"/>
      <point x="896" y="-114"/>
      <point x="941" y="-134"/>
      <point x="968" y="-166" type="curve"/>
      <point x="968" y="152" type="line"/>
      <point x="1003" y="212" type="line"/>
      <point x="1003" y="-231" type="line"/>
      <point x="977" y="-231" type="line"/>
      <point x="962" y="-195"/>
      <point x="922" y="-146"/>
      <point x="859" y="-146" type="curve" smooth="yes"/>
      <point x="768" y="-146"/>
      <point x="720" y="-237"/>
      <point x="622" y="-237" type="curve" smooth="yes"/>
      <point x="567" y="-237"/>
      <point x="511" y="-206"/>
    </contour>
  </outline>
</glyph>
<glyph name="si_KV.halant" format="1">
  <advance width="1061"/>
  <outline>
    <contour>
      <point x="21" y="22" type="line"/>
      <point x="29" y="91"/>
      <point x="74" y="184"/>
      <point x="109" y="232" type="curve" smooth="yes"/>
      <point x="135" y="268"/>
      <point x="148" y="280"/>
      <point x="171" y="304" type="curve"/>
      <point x="180" y="314"/>
      <point x="191" y="331"/>
      <point x="191" y="352" type="curve" smooth="yes"/>
      <point x="191" y="371"/>
      <point x="182" y="386"/>
      <point x="158" y="386" type="curve" smooth="yes"/>
      <point x="144" y="386"/>
      <point x="128" y="379"/>
      <point x="124" y="363" type="curve" smooth="yes"/>
      <point x="118" y="342"/>
      <point x="122" y="342"/>
      <point x="113" y="323" type="curve" smooth="yes"/>
      <point x="105" y="306"/>
      <point x="87" y="297"/>
      <point x="72" y="297" type="curve" smooth="yes"/>
      <point x="35" y="297"/>
      <point x="29" y="328"/>
      <point x="29" y="340" type="curve" smooth="yes"/>
      <point x="29" y="394"/>
      <point x="79" y="433"/>
      <point x="136" y="433" type="curve" smooth="yes"/>
      <point x="188" y="433"/>
      <point x="220" y="399"/>
      <point x="220" y="358" type="curve" smooth="yes"/>
      <point x="220" y="352"/>
      <point x="220" y="349"/>
      <point x="219" y="341" type="curve"/>
      <point x="255" y="367"/>
      <point x="302" y="392"/>
      <point x="367" y="411" type="curve" smooth="yes"/>
      <point x="433" y="432"/>
      <point x="508" y="436"/>
      <point x="551" y="436" type="curve" smooth="yes"/>
      <point x="620" y="436"/>
      <point x="655" y="429"/>
      <point x="673" y="425" type="curve"/>
      <point x="668" y="424"/>
      <point x="606" y="405"/>
      <point x="597" y="404" type="curve"/>
      <point x="582" y="405"/>
      <point x="561" y="406"/>
      <point x="549" y="406" type="curve" smooth="yes"/>
      <point x="490" y="406"/>
      <point x="440" y="397"/>
      <point x="412" y="391" type="curve" smooth="yes"/>
      <point x="325" y="373"/>
      <point x="262" y="335"/>
      <point x="220" y="306" type="curve"/>
      <point x="248" y="313"/>
      <point x="278" y="314"/>
      <point x="305" y="314" type="curve" smooth="yes"/>
      <point x="425" y="314"/>
      <point x="515" y="250"/>
      <point x="515" y="126" type="curve" smooth="yes"/>
      <point x="515" y="68"/>
      <point x="482" y="-1"/>
      <point x="397" y="-1" type="curve" smooth="yes"/>
      <point x="351" y="-1"/>
      <point x="317" y="20"/>
      <point x="296" y="63" type="curve"/>
      <point x="279" y="22"/>
      <point x="246" y="-1"/>
      <point x="204" y="-1" type="curve" smooth="yes"/>
      <point x="117" y="-1"/>
      <point x="120" y="73"/>
      <point x="87" y="73" type="curve" smooth="yes"/>
      <point x="65" y="73"/>
      <point x="52" y="51"/>
      <point x="49" y="11" type="curve"/>
    </contour>
    <contour>
      <point x="91" y="143" type="curve"/>
      <point x="103" y="153"/>
      <point x="115" y="160"/>
      <point x="129" y="160" type="curve" smooth="yes"/>
      <point x="161" y="160"/>
      <point x="172" y="140"/>
      <point x="212" y="140" type="curve" smooth="yes"/>
      <point x="258" y="140"/>
      <point x="280" y="157"/>
      <point x="280" y="214" type="curve" smooth="yes"/>
      <point x="280" y="216"/>
      <point x="280" y="214"/>
      <point x="280" y="216" type="curve"/>
      <point x="308" y="216" type="line"/>
      <point x="308" y="215"/>
      <point x="308" y="216"/>
      <point x="308" y="215" type="curve" smooth="yes"/>
      <point x="308" y="154"/>
      <point x="332" y="140"/>
      <point x="377" y="140" type="curve" smooth="yes"/>
      <point x="418" y="140"/>
      <point x="443" y="169"/>
      <point x="443" y="204" type="curve" smooth="yes"/>
      <point x="443" y="246"/>
      <point x="402" y="287"/>
      <point x="301" y="287" type="curve" smooth="yes"/>
      <point x="244" y="287"/>
      <point x="205" y="280"/>
      <point x="180" y="268" type="curve"/>
      <point x="163" y="253"/>
      <point x="147" y="235"/>
      <point x="131" y="212" type="curve" smooth="yes"/>
      <point x="104" y="172"/>
      <point x="101" y="163"/>
    </contour>
    <contour>
      <point x="497" y="165" type="curve" smooth="yes"/>
      <point x="497" y="250"/>
      <point x="562" y="304"/>
      <point x="663" y="304" type="curve" smooth="yes"/>
      <point x="720" y="304" type="line" smooth="yes"/>
      <point x="720" y="306"/>
      <point x="720" y="306"/>
      <point x="720" y="308" type="curve" smooth="yes"/>
      <point x="720" y="358"/>
      <point x="688" y="387"/>
      <point x="655" y="387" type="curve" smooth="yes"/>
      <point x="621" y="387"/>
      <point x="610" y="371"/>
      <point x="604" y="355" type="curve" smooth="yes"/>
      <point x="598" y="336"/>
      <point x="586" y="319"/>
      <point x="560" y="319" type="curve" smooth="yes"/>
      <point x="537" y="319"/>
      <point x="520" y="333"/>
      <point x="520" y="359" type="curve" smooth="yes"/>
      <point x="520" y="406"/>
      <point x="570" y="432"/>
      <point x="625" y="432" type="curve" smooth="yes"/>
      <point x="713" y="432"/>
      <point x="756" y="376"/>
      <point x="756" y="290" type="curve" smooth="yes"/>
      <point x="756" y="287"/>
      <point x="756" y="280"/>
      <point x="756" y="277" type="curve" smooth="yes"/>
      <point x="675" y="277" type="line" smooth="yes"/>
      <point x="601" y="277"/>
      <point x="565" y="250"/>
      <point x="565" y="213" type="curve" smooth="yes"/>
      <point x="565" y="151"/>
      <point x="660" y="140"/>
      <point x="734" y="140" type="curve" smooth="yes"/>
      <point x="886" y="140"/>
      <point x="949" y="211"/>
      <point x="948" y="316" type="curve" smooth="yes"/>
      <point x="947" y="427"/>
      <point x="871" y="492"/>
      <point x="723" y="492" type="curve" smooth="yes"/>
      <point x="647" y="492"/>
      <point x="584" y="475"/>
      <point x="503" y="451" type="curve"/>
      <point x="503" y="484" type="line"/>
      <point x="535" y="492"/>
      <point x="585" y="499"/>
      <point x="585" y="508" type="curve" smooth="yes"/>
      <point x="585" y="520"/>
      <point x="557" y="520"/>
      <point x="557" y="546" type="curve" smooth="yes"/>
      <point x="557" y="583"/>
      <point x="623" y="629"/>
      <point x="729" y="629" type="curve" smooth="yes"/>
      <point x="932" y="629"/>
      <point x="992" y="490"/>
      <point x="1004" y="356" type="curve" smooth="yes"/>
      <point x="1011" y="328"/>
      <point x="1012" y="305"/>
      <point x="1012" y="274" type="curve"/>
      <point x="1012" y="114"/>
      <point x="914" y="0"/>
      <point x="731" y="0" type="curve" smooth="yes"/>
      <point x="610" y="0"/>
      <point x="497" y="46"/>
    </contour>
    <contour>
      <point x="605" y="538" type="curve" smooth="yes"/>
      <point x="605" y="526"/>
      <point x="624" y="526"/>
      <point x="624" y="515" type="curve" smooth="yes"/>
      <point x="624" y="513"/>
      <point x="623" y="510"/>
      <point x="621" y="508" type="curve"/>
      <point x="653" y="515"/>
      <point x="680" y="519"/>
      <point x="726" y="519" type="curve" smooth="yes"/>
      <point x="834" y="519"/>
      <point x="904" y="489"/>
      <point x="960" y="425" type="curve"/>
      <point x="927" y="536"/>
      <point x="847" y="574"/>
      <point x="731" y="574" type="curve" smooth="yes"/>
      <point x="659" y="574"/>
      <point x="605" y="558"/>
    </contour>
  </outline>
</glyph>
<glyph name="si_K.halant" format="1">
  <advance width="746"/>
  <outline>
    <contour>
      <point x="550" y="348" type="line"/>
      <point x="578" y="331" type="line"/>
      <point x="578" y="478" type="line" smooth="yes"/>
      <point x="593" y="471"/>
      <point x="608" y="468"/>
      <point x="623" y="468" type="curve" smooth="yes"/>
      <point x="666" y="468"/>
      <point x="701" y="498"/>
      <point x="701" y="542" type="curve"/>
      <point x="701" y="634"/>
      <point x="604" y="639"/>
      <point x="550" y="681" type="curve"/>
    </contour>
    <contour>
      <point x="578" y="504" type="curve"/>
      <point x="578" y="637" type="line" smooth="yes"/>
      <point x="624" y="606"/>
      <point x="656" y="587"/>
      <point x="656" y="545" type="curve" smooth="yes"/>
      <point x="656" y="522"/>
      <point x="642" y="497"/>
      <point x="610" y="497" type="curve"/>
      <point x="597" y="497"/>
      <point x="587" y="500"/>
    </contour>
    <component base="si_Ka"/>
  </outline>
</glyph>
<glyph name="si_LU" format="1">
  <advance width="670"/>
  <outline>
    <contour>
      <point x="31" y="186" type="curve" smooth="yes"/>
      <point x="31" y="342"/>
      <point x="169" y="432"/>
      <point x="364" y="432" type="curve" smooth="yes"/>
      <point x="487" y="432"/>
      <point x="611" y="393"/>
      <point x="611" y="280" type="curve" smooth="yes"/>
      <point x="611" y="210"/>
      <point x="553" y="163"/>
      <point x="485" y="163" type="curve" smooth="yes"/>
      <point x="417" y="163"/>
      <point x="366" y="210"/>
      <point x="366" y="280" type="curve"/>
      <point x="265" y="280" type="line"/>
      <point x="265" y="308" type="line"/>
      <point x="518" y="308" type="line"/>
      <point x="518" y="280" type="line"/>
      <point x="396" y="280" type="line"/>
      <point x="396" y="278"/>
      <point x="396" y="277"/>
      <point x="396" y="276" type="curve" smooth="yes"/>
      <point x="396" y="240"/>
      <point x="438" y="216"/>
      <point x="486" y="216" type="curve" smooth="yes"/>
      <point x="541" y="216"/>
      <point x="573" y="245"/>
      <point x="573" y="294" type="curve" smooth="yes"/>
      <point x="573" y="375"/>
      <point x="476" y="400"/>
      <point x="394" y="400" type="curve" smooth="yes"/>
      <point x="244" y="400"/>
      <point x="176" y="295"/>
      <point x="176" y="187" type="curve" smooth="yes"/>
      <point x="176" y="63"/>
      <point x="267" y="-6"/>
      <point x="401" y="-6" type="curve" smooth="yes"/>
      <point x="523" y="-6"/>
      <point x="572" y="86"/>
      <point x="572" y="124" type="curve"/>
      <point x="603" y="142" type="line"/>
      <point x="603" y="26"/>
      <point x="494" y="-58"/>
      <point x="345" y="-58" type="curve" smooth="yes"/>
      <point x="182" y="-58"/>
      <point x="31" y="35"/>
    </contour>
    <contour>
      <point x="36" y="-142" type="curve" smooth="yes"/>
      <point x="36" y="-90"/>
      <point x="82" y="-50"/>
      <point x="137" y="-50" type="curve" smooth="yes"/>
      <point x="179" y="-50"/>
      <point x="216" y="-74"/>
      <point x="231" y="-110" type="curve"/>
      <point x="198" y="-122" type="line"/>
      <point x="191" y="-104"/>
      <point x="170" y="-82"/>
      <point x="137" y="-82" type="curve" smooth="yes"/>
      <point x="100" y="-82"/>
      <point x="71" y="-110"/>
      <point x="71" y="-142" type="curve" smooth="yes"/>
      <point x="71" y="-172"/>
      <point x="93" y="-192"/>
      <point x="162" y="-192" type="curve" smooth="yes"/>
      <point x="568" y="-192" type="line"/>
      <point x="568" y="95" type="line"/>
      <point x="603" y="138" type="line"/>
      <point x="603" y="-235" type="line"/>
      <point x="141" y="-235" type="line" smooth="yes"/>
      <point x="61" y="-235"/>
      <point x="36" y="-186"/>
    </contour>
  </outline>
</glyph>
<glyph name="si_L.halant" format="1">
  <advance width="670"/>
  <outline>
    <contour>
      <point x="470" y="401" type="line"/>
      <point x="499" y="384" type="line"/>
      <point x="499" y="478" type="line"/>
      <point x="514" y="471"/>
      <point x="529" y="468"/>
      <point x="544" y="468" type="curve" smooth="yes"/>
      <point x="587" y="468"/>
      <point x="622" y="498"/>
      <point x="622" y="542" type="curve" smooth="yes"/>
      <point x="622" y="634"/>
      <point x="524" y="639"/>
      <point x="470" y="681" type="curve"/>
    </contour>
    <contour>
      <point x="499" y="504" type="curve"/>
      <point x="499" y="637" type="line"/>
      <point x="545" y="606"/>
      <point x="577" y="587"/>
      <point x="577" y="545" type="curve" smooth="yes"/>
      <point x="577" y="522"/>
      <point x="563" y="497"/>
      <point x="531" y="497" type="curve" smooth="yes"/>
      <point x="518" y="497"/>
      <point x="508" y="500"/>
    </contour>
    <contour>
      <point x="31" y="135" type="curve" smooth="yes"/>
      <point x="31" y="323"/>
      <point x="169" y="432"/>
      <point x="364" y="432" type="curve" smooth="yes"/>
      <point x="488" y="432"/>
      <point x="611" y="393"/>
      <point x="611" y="280" type="curve" smooth="yes"/>
      <point x="611" y="210"/>
      <point x="553" y="163"/>
      <point x="485" y="163" type="curve" smooth="yes"/>
      <point x="417" y="163"/>
      <point x="366" y="210"/>
      <point x="366" y="280" type="curve"/>
      <point x="265" y="280" type="line"/>
      <point x="265" y="308" type="line"/>
      <point x="518" y="308" type="line"/>
      <point x="518" y="280" type="line"/>
      <point x="396" y="280" type="line"/>
      <point x="396" y="278"/>
      <point x="396" y="277"/>
      <point x="396" y="276" type="curve" smooth="yes"/>
      <point x="396" y="240"/>
      <point x="438" y="216"/>
      <point x="486" y="216" type="curve" smooth="yes"/>
      <point x="541" y="216"/>
      <point x="573" y="245"/>
      <point x="573" y="294" type="curve" smooth="yes"/>
      <point x="573" y="375"/>
      <point x="477" y="399"/>
      <point x="395" y="399" type="curve" smooth="yes"/>
      <point x="269" y="399"/>
      <point x="178" y="316"/>
      <point x="178" y="171" type="curve" smooth="yes"/>
      <point x="178" y="4"/>
      <point x="279" y="-94"/>
      <point x="420" y="-94" type="curve" smooth="yes"/>
      <point x="487" y="-94"/>
      <point x="592" y="-50"/>
      <point x="592" y="66" type="curve" smooth="yes"/>
      <point x="592" y="72"/>
      <point x="590" y="81"/>
      <point x="588" y="84" type="curve"/>
      <point x="624" y="84" type="line"/>
      <point x="624" y="79"/>
      <point x="624" y="75"/>
      <point x="624" y="70" type="curve" smooth="yes"/>
      <point x="624" y="-72"/>
      <point x="500" y="-154"/>
      <point x="361" y="-154" type="curve" smooth="yes"/>
      <point x="180" y="-154"/>
      <point x="31" y="-58"/>
    </contour>
  </outline>
</glyph>
<glyph name="si_LlU" format="1">
  <advance width="662"/>
  <outline>
    <contour>
      <point x="114" y="165" type="curve" smooth="yes"/>
      <point x="114" y="269"/>
      <point x="203" y="309"/>
      <point x="312" y="309" type="curve" smooth="yes"/>
      <point x="328" y="309" type="line"/>
      <point x="329" y="311"/>
      <point x="329" y="313"/>
      <point x="329" y="315" type="curve" smooth="yes"/>
      <point x="329" y="355"/>
      <point x="300" y="389"/>
      <point x="264" y="389" type="curve" smooth="yes"/>
      <point x="236" y="389"/>
      <point x="222" y="368"/>
      <point x="217" y="355" type="curve" smooth="yes"/>
      <point x="209" y="335"/>
      <point x="197" y="321"/>
      <point x="170" y="321" type="curve" smooth="yes"/>
      <point x="154" y="321"/>
      <point x="134" y="332"/>
      <point x="134" y="359" type="curve" smooth="yes"/>
      <point x="134" y="406"/>
      <point x="184" y="432"/>
      <point x="240" y="432" type="curve" smooth="yes"/>
      <point x="327" y="432"/>
      <point x="363" y="363"/>
      <point x="363" y="295" type="curve" smooth="yes"/>
      <point x="363" y="292"/>
      <point x="363" y="285"/>
      <point x="362" y="282" type="curve"/>
      <point x="302" y="282" type="line" smooth="yes"/>
      <point x="229" y="282"/>
      <point x="182" y="259"/>
      <point x="182" y="210" type="curve" smooth="yes"/>
      <point x="182" y="156"/>
      <point x="273" y="141"/>
      <point x="350" y="141" type="curve" smooth="yes"/>
      <point x="491" y="141"/>
      <point x="566" y="202"/>
      <point x="566" y="297" type="curve" smooth="yes"/>
      <point x="566" y="342"/>
      <point x="556" y="383"/>
      <point x="542" y="412" type="curve"/>
      <point x="527" y="379"/>
      <point x="496" y="359"/>
      <point x="454" y="359" type="curve" smooth="yes"/>
      <point x="390" y="359"/>
      <point x="354" y="414"/>
      <point x="354" y="480" type="curve" smooth="yes"/>
      <point x="354" y="530"/>
      <point x="368" y="566"/>
      <point x="396" y="597" type="curve"/>
      <point x="456" y="564"/>
      <point x="527" y="492"/>
      <point x="564" y="430" type="curve" smooth="yes"/>
      <point x="602" y="363"/>
      <point x="616" y="315"/>
      <point x="616" y="245" type="curve" smooth="yes"/>
      <point x="616" y="117"/>
      <point x="530" y="0"/>
      <point x="346" y="0" type="curve" smooth="yes"/>
      <point x="225" y="0"/>
      <point x="114" y="46"/>
    </contour>
    <contour>
      <point x="388" y="486" type="curve" smooth="yes"/>
      <point x="388" y="442"/>
      <point x="419" y="406"/>
      <point x="460" y="406" type="curve" smooth="yes"/>
      <point x="483" y="406"/>
      <point x="510" y="415"/>
      <point x="520" y="441" type="curve"/>
      <point x="490" y="485"/>
      <point x="442" y="530"/>
      <point x="404" y="557" type="curve"/>
      <point x="395" y="540"/>
      <point x="388" y="518"/>
    </contour>
    <contour>
      <point x="27" y="248" type="curve" smooth="yes"/>
      <point x="27" y="380"/>
      <point x="126" y="432"/>
      <point x="230" y="432" type="curve" smooth="yes"/>
      <point x="238" y="432"/>
      <point x="259" y="432"/>
      <point x="277" y="426" type="curve"/>
      <point x="261" y="406" type="line"/>
      <point x="233" y="404"/>
      <point x="206" y="406"/>
      <point x="173" y="397" type="curve" smooth="yes"/>
      <point x="104" y="378"/>
      <point x="59" y="336"/>
      <point x="59" y="246" type="curve" smooth="yes"/>
      <point x="59" y="166"/>
      <point x="106" y="96"/>
      <point x="178" y="77" type="curve"/>
      <point x="178" y="44" type="line"/>
      <point x="86" y="68"/>
      <point x="27" y="148"/>
    </contour>
  </outline>
</glyph>
<glyph name="si_LlUu" format="1">
  <advance width="929"/>
  <outline>
    <contour>
      <point x="583" y="312" type="line"/>
      <point x="583" y="339" type="line"/>
      <point x="844" y="339" type="line"/>
      <point x="844" y="317" type="line"/>
      <point x="717" y="223" type="line"/>
      <point x="867" y="223" type="line"/>
      <point x="867" y="200" type="line"/>
      <point x="821" y="165"/>
      <point x="783" y="118"/>
      <point x="783" y="36" type="curve" smooth="yes"/>
      <point x="783" y="-29"/>
      <point x="821" y="-100"/>
      <point x="901" y="-100" type="curve"/>
      <point x="901" y="-127" type="line"/>
      <point x="868" y="-141"/>
      <point x="832" y="-148"/>
      <point x="802" y="-148" type="curve" smooth="yes"/>
      <point x="712" y="-148"/>
      <point x="651" y="-91"/>
      <point x="651" y="-16" type="curve" smooth="yes"/>
      <point x="651" y="93"/>
      <point x="754" y="156"/>
      <point x="822" y="196" type="curve"/>
      <point x="667" y="196" type="line"/>
      <point x="667" y="221" type="line"/>
      <point x="793" y="312" type="line"/>
    </contour>
    <component base="si_LlU"/>
  </outline>
</glyph>
<glyph name="si_Ll.halant" format="1">
  <advance width="636"/>
  <outline>
    <contour>
      <point x="436" y="413" type="line"/>
      <point x="464" y="407" type="line"/>
      <point x="464" y="478" type="line"/>
      <point x="480" y="471"/>
      <point x="495" y="468"/>
      <point x="509" y="468" type="curve" smooth="yes"/>
      <point x="552" y="468"/>
      <point x="587" y="498"/>
      <point x="587" y="542" type="curve" smooth="yes"/>
      <point x="587" y="634"/>
      <point x="490" y="639"/>
      <point x="436" y="681" type="curve"/>
    </contour>
    <contour>
      <point x="464" y="504" type="curve"/>
      <point x="464" y="637" type="line"/>
      <point x="510" y="606"/>
      <point x="542" y="587"/>
      <point x="542" y="545" type="curve" smooth="yes"/>
      <point x="542" y="522"/>
      <point x="529" y="497"/>
      <point x="497" y="497" type="curve" smooth="yes"/>
      <point x="484" y="497"/>
      <point x="473" y="500"/>
    </contour>
  </outline>
</glyph>
<glyph name="si_MUu" format="1">
  <advance width="635"/>
  <outline>
    <contour>
      <point x="51" y="-138" type="curve" smooth="yes"/>
      <point x="51" y="-80"/>
      <point x="100" y="-40"/>
      <point x="153" y="-40" type="curve" smooth="yes"/>
      <point x="195" y="-40"/>
      <point x="227" y="-55"/>
      <point x="250" y="-91" type="curve"/>
      <point x="217" y="-102" type="line"/>
      <point x="206" y="-85"/>
      <point x="187" y="-70"/>
      <point x="158" y="-70" type="curve" smooth="yes"/>
      <point x="119" y="-70"/>
      <point x="94" y="-95"/>
      <point x="94" y="-120" type="curve" smooth="yes"/>
      <point x="94" y="-152"/>
      <point x="123" y="-167"/>
      <point x="157" y="-167" type="curve" smooth="yes"/>
      <point x="233" y="-167"/>
      <point x="308" y="-114"/>
      <point x="416" y="-114" type="curve" smooth="yes"/>
      <point x="467" y="-114"/>
      <point x="513" y="-134"/>
      <point x="540" y="-166" type="curve"/>
      <point x="540" y="152" type="line"/>
      <point x="575" y="212" type="line"/>
      <point x="575" y="-231" type="line"/>
      <point x="550" y="-231" type="line"/>
      <point x="534" y="-195"/>
      <point x="489" y="-146"/>
      <point x="426" y="-146" type="curve" smooth="yes"/>
      <point x="335" y="-146"/>
      <point x="260" y="-237"/>
      <point x="162" y="-237" type="curve" smooth="yes"/>
      <point x="107" y="-237"/>
      <point x="51" y="-206"/>
    </contour>
    <contour>
      <point x="265" y="352" type="curve" smooth="yes"/>
      <point x="265" y="326"/>
      <point x="287" y="304"/>
      <point x="313" y="304" type="curve" smooth="yes"/>
      <point x="339" y="304"/>
      <point x="361" y="326"/>
      <point x="361" y="352" type="curve" smooth="yes"/>
      <point x="361" y="378"/>
      <point x="339" y="400"/>
      <point x="313" y="400" type="curve" smooth="yes"/>
      <point x="287" y="400"/>
      <point x="265" y="378"/>
    </contour>
    <contour>
      <point x="33" y="250" type="curve" smooth="yes"/>
      <point x="33" y="339"/>
      <point x="79" y="432"/>
      <point x="156" y="432" type="curve" smooth="yes"/>
      <point x="205" y="432"/>
      <point x="210" y="400"/>
      <point x="210" y="378" type="curve" smooth="yes"/>
      <point x="210" y="351"/>
      <point x="204" y="344"/>
      <point x="204" y="310" type="curve" smooth="yes"/>
      <point x="204" y="261"/>
      <point x="245" y="230"/>
      <point x="300" y="230" type="curve" smooth="yes"/>
      <point x="360" y="230"/>
      <point x="401" y="260"/>
      <point x="401" y="320" type="curve" smooth="yes"/>
      <point x="401" y="348"/>
      <point x="392" y="359"/>
      <point x="387" y="366" type="curve"/>
      <point x="389" y="356"/>
      <point x="389" y="351"/>
      <point x="389" y="343" type="curve" smooth="yes"/>
      <point x="389" y="306"/>
      <point x="361" y="271"/>
      <point x="313" y="271" type="curve" smooth="yes"/>
      <point x="262" y="271"/>
      <point x="233" y="315"/>
      <point x="233" y="351" type="curve" smooth="yes"/>
      <point x="233" y="397"/>
      <point x="270" y="432"/>
      <point x="318" y="432" type="curve" smooth="yes"/>
      <point x="387" y="432"/>
      <point x="433" y="387"/>
      <point x="433" y="315" type="curve" smooth="yes"/>
      <point x="433" y="239"/>
      <point x="375" y="198"/>
      <point x="302" y="198" type="curve" smooth="yes"/>
      <point x="242" y="198"/>
      <point x="170" y="232"/>
      <point x="170" y="304" type="curve" smooth="yes"/>
      <point x="170" y="337"/>
      <point x="178" y="358"/>
      <point x="178" y="376" type="curve" smooth="yes"/>
      <point x="178" y="388"/>
      <point x="176" y="402"/>
      <point x="154" y="402" type="curve" smooth="yes"/>
      <point x="112" y="402"/>
      <point x="93" y="350"/>
      <point x="93" y="310" type="curve" smooth="yes"/>
      <point x="93" y="205"/>
      <point x="181" y="134"/>
      <point x="302" y="134" type="curve" smooth="yes"/>
      <point x="420" y="134"/>
      <point x="516" y="203"/>
      <point x="516" y="333" type="curve" smooth="yes"/>
      <point x="516" y="441"/>
      <point x="444" y="557"/>
      <point x="303" y="557" type="curve" smooth="yes"/>
      <point x="222" y="557"/>
      <point x="160" y="528"/>
      <point x="113" y="469" type="curve"/>
      <point x="78" y="469" type="line"/>
      <point x="127" y="544"/>
      <point x="209" y="586"/>
      <point x="302" y="586" type="curve" smooth="yes"/>
      <point x="462" y="586"/>
      <point x="585" y="454"/>
      <point x="585" y="292" type="curve" smooth="yes"/>
      <point x="585" y="110"/>
      <point x="475" y="0"/>
      <point x="310" y="0" type="curve" smooth="yes"/>
      <point x="143" y="0"/>
      <point x="33" y="94"/>
    </contour>
  </outline>
</glyph>
<glyph name="si_MatraUu.alt" format="1">
  <advance width="746"/>
  <outline>
    <contour>
      <point x="-294" y="-129" type="curve" smooth="yes"/>
      <point x="-294" y="-93"/>
      <point x="-267" y="-72"/>
      <point x="-230" y="-67" type="curve"/>
      <point x="-285" y="-39" type="line"/>
      <point x="-200" y="-14" type="line"/>
      <point x="-234" y="-1" type="line"/>
      <point x="-234" y="21" type="line"/>
      <point x="-138" y="-15" type="line"/>
      <point x="-222" y="-43" type="line"/>
      <point x="-162" y="-76" type="line"/>
      <point x="-190" y="-83"/>
      <point x="-244" y="-83"/>
      <point x="-244" y="-104" type="curve" smooth="yes"/>
      <point x="-244" y="-121"/>
      <point x="-212" y="-129"/>
      <point x="-170" y="-129" type="curve" smooth="yes"/>
      <point x="-116" y="-129"/>
      <point x="-72" y="-113"/>
      <point x="-72" y="-82" type="curve" smooth="yes"/>
      <point x="-72" y="-77"/>
      <point x="-73" y="-67"/>
      <point x="-78" y="-59" type="curve"/>
      <point x="-43" y="-59" type="line"/>
      <point x="-39" y="-71"/>
      <point x="-39" y="-83"/>
      <point x="-39" y="-94" type="curve" smooth="yes"/>
      <point x="-39" y="-161"/>
      <point x="-90" y="-205"/>
      <point x="-172" y="-205" type="curve" smooth="yes"/>
      <point x="-230" y="-205"/>
      <point x="-294" y="-187"/>
    </contour>
  </outline>
</glyph>
<glyph name="si_NdAa" format="1">
  <advance width="795"/>
  <outline>
    <contour>
      <point x="508" y="110" type="curve" smooth="yes"/>
      <point x="508" y="118"/>
      <point x="509" y="125"/>
      <point x="509" y="132" type="curve"/>
      <point x="537" y="132" type="line"/>
      <point x="536" y="128"/>
      <point x="536" y="123"/>
      <point x="536" y="117" type="curve" smooth="yes"/>
      <point x="536" y="70"/>
      <point x="560" y="66"/>
      <point x="571" y="66" type="curve" smooth="yes"/>
      <point x="594" y="66"/>
      <point x="618" y="91"/>
      <point x="618" y="201" type="curve" smooth="yes"/>
      <point x="618" y="311"/>
      <point x="593" y="338"/>
      <point x="571" y="338" type="curve" smooth="yes"/>
      <point x="561" y="338"/>
      <point x="536" y="331"/>
      <point x="536" y="285" type="curve" smooth="yes"/>
      <point x="536" y="279"/>
      <point x="536" y="274"/>
      <point x="537" y="270" type="curve"/>
      <point x="509" y="270" type="line"/>
      <point x="509" y="277"/>
      <point x="508" y="284"/>
      <point x="508" y="292" type="curve" smooth="yes"/>
      <point x="508" y="361"/>
      <point x="560" y="403"/>
      <point x="619" y="403" type="curve" smooth="yes"/>
      <point x="710" y="403"/>
      <point x="756" y="329"/>
      <point x="756" y="201" type="curve" smooth="yes"/>
      <point x="756" y="73"/>
      <point x="710" y="-1"/>
      <point x="619" y="-1" type="curve" smooth="yes"/>
      <point x="552" y="-1"/>
      <point x="508" y="41"/>
    </contour>
    <component base="si_Nda"/>
  </outline>
</glyph>
<glyph name="si_NDhI" format="1">
  <advance width="1078"/>
  <outline>
    <contour>
      <point x="24" y="176" type="curve"/>
      <point x="32" y="167"/>
      <point x="50" y="160"/>
      <point x="67" y="160" type="curve" smooth="yes"/>
      <point x="130" y="160"/>
      <point x="131" y="206"/>
      <point x="208" y="279" type="curve"/>
      <point x="221" y="292"/>
      <point x="223" y="309"/>
      <point x="223" y="322" type="curve" smooth="yes"/>
      <point x="223" y="356"/>
      <point x="204" y="380"/>
      <point x="180" y="380" type="curve" smooth="yes"/>
      <point x="160" y="380"/>
      <point x="146" y="370"/>
      <point x="144" y="345" type="curve" smooth="yes"/>
      <point x="142" y="323"/>
      <point x="131" y="294"/>
      <point x="99" y="294" type="curve" smooth="yes"/>
      <point x="82" y="294"/>
      <point x="55" y="304"/>
      <point x="55" y="339" type="curve" smooth="yes"/>
      <point x="55" y="384"/>
      <point x="89" y="431"/>
      <point x="154" y="431" type="curve" smooth="yes"/>
      <point x="219" y="431"/>
      <point x="253" y="386"/>
      <point x="253" y="331" type="curve" smooth="yes"/>
      <point x="253" y="325"/>
      <point x="252" y="318"/>
      <point x="251" y="315" type="curve"/>
      <point x="302" y="375"/>
      <point x="401" y="433"/>
      <point x="506" y="433" type="curve" smooth="yes"/>
      <point x="595" y="433"/>
      <point x="642" y="406"/>
      <point x="662" y="398" type="curve"/>
      <point x="643" y="394"/>
      <point x="618" y="390"/>
      <point x="606" y="390" type="curve"/>
      <point x="588" y="396"/>
      <point x="559" y="405"/>
      <point x="501" y="405" type="curve" smooth="yes"/>
      <point x="401" y="405"/>
      <point x="315" y="343"/>
      <point x="271" y="298" type="curve"/>
      <point x="296" y="306"/>
      <point x="317" y="308"/>
      <point x="345" y="308" type="curve" smooth="yes"/>
      <point x="429" y="308"/>
      <point x="498" y="249"/>
      <point x="498" y="169" type="curve" smooth="yes"/>
      <point x="498" y="53"/>
      <point x="398" y="-1"/>
      <point x="276" y="-1" type="curve" smooth="yes"/>
      <point x="136" y="-1"/>
      <point x="24" y="65"/>
    </contour>
    <contour>
      <point x="125" y="147" type="curve"/>
      <point x="154" y="138"/>
      <point x="190" y="133"/>
      <point x="248" y="133" type="curve" smooth="yes"/>
      <point x="360" y="133"/>
      <point x="418" y="177"/>
      <point x="418" y="225" type="curve" smooth="yes"/>
      <point x="418" y="259"/>
      <point x="390" y="281"/>
      <point x="334" y="281" type="curve" smooth="yes"/>
      <point x="190" y="281"/>
      <point x="189" y="190"/>
    </contour>
    <component base="si_DhI" xOffset="441"/>
  </outline>
</glyph>
<glyph name="si_NDhU" format="1">
  <advance width="1078"/>
  <outline>
    <contour>
      <point x="492" y="-142" type="curve" smooth="yes"/>
      <point x="492" y="-90"/>
      <point x="539" y="-50"/>
      <point x="594" y="-50" type="curve" smooth="yes"/>
      <point x="636" y="-50"/>
      <point x="673" y="-74"/>
      <point x="688" y="-110" type="curve"/>
      <point x="655" y="-122" type="line"/>
      <point x="648" y="-104"/>
      <point x="627" y="-82"/>
      <point x="594" y="-82" type="curve" smooth="yes"/>
      <point x="557" y="-82"/>
      <point x="528" y="-110"/>
      <point x="528" y="-142" type="curve" smooth="yes"/>
      <point x="528" y="-172"/>
      <point x="550" y="-192"/>
      <point x="620" y="-192" type="curve" smooth="yes"/>
      <point x="981" y="-192" type="line"/>
      <point x="981" y="128" type="line"/>
      <point x="1016" y="219" type="line"/>
      <point x="1016" y="-235" type="line"/>
      <point x="598" y="-235" type="line" smooth="yes"/>
      <point x="518" y="-235"/>
      <point x="492" y="-186"/>
    </contour>
    <contour>
      <point x="474" y="195" type="curve" smooth="yes"/>
      <point x="474" y="288"/>
      <point x="527" y="364"/>
      <point x="593" y="387" type="curve" smooth="yes"/>
      <point x="614" y="394"/>
      <point x="637" y="398"/>
      <point x="662" y="398" type="curve"/>
      <point x="662" y="372" type="line"/>
      <point x="659" y="372"/>
      <point x="655" y="372"/>
      <point x="652" y="372" type="curve" smooth="yes"/>
      <point x="573" y="372"/>
      <point x="529" y="307"/>
      <point x="529" y="242" type="curve" smooth="yes"/>
      <point x="529" y="187"/>
      <point x="561" y="140"/>
      <point x="634" y="140" type="curve" smooth="yes"/>
      <point x="685" y="140"/>
      <point x="730" y="161"/>
      <point x="730" y="225" type="curve" smooth="yes"/>
      <point x="730" y="249" type="line"/>
      <point x="760" y="249" type="line"/>
      <point x="760" y="225" type="line" smooth="yes"/>
      <point x="760" y="161"/>
      <point x="804" y="140"/>
      <point x="853" y="140" type="curve" smooth="yes"/>
      <point x="949" y="140"/>
      <point x="967" y="231"/>
      <point x="967" y="304" type="curve" smooth="yes"/>
      <point x="967" y="427"/>
      <point x="882" y="554"/>
      <point x="735" y="554" type="curve" smooth="yes"/>
      <point x="654" y="554"/>
      <point x="593" y="525"/>
      <point x="540" y="468" type="curve"/>
      <point x="506" y="468" type="line"/>
      <point x="563" y="543"/>
      <point x="641" y="580"/>
      <point x="740" y="580" type="curve" smooth="yes"/>
      <point x="903" y="580"/>
      <point x="1030" y="446"/>
      <point x="1030" y="261" type="curve" smooth="yes"/>
      <point x="1030" y="139"/>
      <point x="989" y="0"/>
      <point x="863" y="0" type="curve" smooth="yes"/>
      <point x="814" y="0"/>
      <point x="774" y="20"/>
      <point x="744" y="59" type="curve"/>
      <point x="713" y="20"/>
      <point x="676" y="0"/>
      <point x="631" y="0" type="curve" smooth="yes"/>
      <point x="529" y="0"/>
      <point x="474" y="96"/>
    </contour>
    <contour>
      <point x="24" y="176" type="curve"/>
      <point x="32" y="167"/>
      <point x="50" y="160"/>
      <point x="67" y="160" type="curve" smooth="yes"/>
      <point x="130" y="160"/>
      <point x="131" y="206"/>
      <point x="208" y="279" type="curve"/>
      <point x="221" y="292"/>
      <point x="223" y="309"/>
      <point x="223" y="322" type="curve" smooth="yes"/>
      <point x="223" y="356"/>
      <point x="204" y="380"/>
      <point x="180" y="380" type="curve" smooth="yes"/>
      <point x="160" y="380"/>
      <point x="146" y="370"/>
      <point x="144" y="345" type="curve" smooth="yes"/>
      <point x="142" y="323"/>
      <point x="131" y="294"/>
      <point x="99" y="294" type="curve" smooth="yes"/>
      <point x="82" y="294"/>
      <point x="55" y="304"/>
      <point x="55" y="339" type="curve" smooth="yes"/>
      <point x="55" y="384"/>
      <point x="89" y="431"/>
      <point x="154" y="431" type="curve" smooth="yes"/>
      <point x="219" y="431"/>
      <point x="253" y="386"/>
      <point x="253" y="331" type="curve" smooth="yes"/>
      <point x="253" y="325"/>
      <point x="252" y="318"/>
      <point x="251" y="315" type="curve"/>
      <point x="302" y="375"/>
      <point x="401" y="433"/>
      <point x="506" y="433" type="curve" smooth="yes"/>
      <point x="595" y="433"/>
      <point x="642" y="406"/>
      <point x="662" y="398" type="curve"/>
      <point x="643" y="394"/>
      <point x="618" y="390"/>
      <point x="606" y="390" type="curve"/>
      <point x="588" y="396"/>
      <point x="559" y="405"/>
      <point x="501" y="405" type="curve" smooth="yes"/>
      <point x="401" y="405"/>
      <point x="315" y="343"/>
      <point x="271" y="298" type="curve"/>
      <point x="296" y="306"/>
      <point x="317" y="308"/>
      <point x="345" y="308" type="curve" smooth="yes"/>
      <point x="429" y="308"/>
      <point x="498" y="249"/>
      <point x="498" y="169" type="curve" smooth="yes"/>
      <point x="498" y="53"/>
      <point x="398" y="-1"/>
      <point x="276" y="-1" type="curve" smooth="yes"/>
      <point x="136" y="-1"/>
      <point x="24" y="65"/>
    </contour>
    <contour>
      <point x="125" y="147" type="curve"/>
      <point x="154" y="138"/>
      <point x="190" y="133"/>
      <point x="248" y="133" type="curve" smooth="yes"/>
      <point x="360" y="133"/>
      <point x="418" y="177"/>
      <point x="418" y="225" type="curve" smooth="yes"/>
      <point x="418" y="259"/>
      <point x="390" y="281"/>
      <point x="334" y="281" type="curve" smooth="yes"/>
      <point x="190" y="281"/>
      <point x="189" y="190"/>
    </contour>
  </outline>
</glyph>
<glyph name="si_NI" format="1">
  <advance width="806"/>
  <outline>
    <contour>
      <point x="269" y="421" type="curve" smooth="yes"/>
      <point x="269" y="390"/>
      <point x="274" y="356"/>
      <point x="278" y="338" type="curve" smooth="yes"/>
      <point x="303" y="356" type="line" smooth="yes"/>
      <point x="300" y="366"/>
      <point x="299" y="382"/>
      <point x="299" y="391" type="curve"/>
      <point x="299" y="478"/>
      <point x="387" y="550"/>
      <point x="524" y="550" type="curve"/>
      <point x="606" y="550"/>
      <point x="684" y="515"/>
      <point x="684" y="456" type="curve" smooth="yes"/>
      <point x="684" y="426"/>
      <point x="664" y="408"/>
      <point x="630" y="404" type="curve" smooth="yes"/>
      <point x="661" y="383" type="line" smooth="yes"/>
      <point x="709" y="402"/>
      <point x="739" y="444"/>
      <point x="739" y="505" type="curve"/>
      <point x="739" y="610"/>
      <point x="654" y="671"/>
      <point x="524" y="671" type="curve"/>
      <point x="381" y="671"/>
      <point x="269" y="590"/>
    </contour>
    <component base="si_Na"/>
  </outline>
</glyph>
<glyph name="si_NThI" format="1">
  <advance width="1046"/>
  <outline>
    <contour>
      <point x="467" y="235" type="curve" smooth="yes"/>
      <point x="467" y="345"/>
      <point x="563" y="430"/>
      <point x="679" y="430" type="curve" smooth="yes"/>
      <point x="679" y="403" type="line" smooth="yes"/>
      <point x="596" y="403"/>
      <point x="521" y="347"/>
      <point x="521" y="265" type="curve"/>
      <point x="521" y="169"/>
      <point x="627" y="140"/>
      <point x="733" y="140" type="curve"/>
      <point x="855" y="140"/>
      <point x="948" y="213"/>
      <point x="948" y="319" type="curve" smooth="yes"/>
      <point x="948" y="351"/>
      <point x="943" y="380"/>
      <point x="926" y="417" type="curve" smooth="yes"/>
      <point x="913" y="388"/>
      <point x="882" y="367"/>
      <point x="839" y="367" type="curve" smooth="yes"/>
      <point x="776" y="367"/>
      <point x="739" y="422"/>
      <point x="739" y="488" type="curve" smooth="yes"/>
      <point x="739" y="538"/>
      <point x="757" y="575"/>
      <point x="781" y="605" type="curve"/>
      <point x="842" y="572"/>
      <point x="913" y="500"/>
      <point x="949" y="438" type="curve"/>
      <point x="988" y="371"/>
      <point x="1000" y="322"/>
      <point x="1000" y="252" type="curve" smooth="yes"/>
      <point x="1000" y="103"/>
      <point x="884" y="-1"/>
    </contour>
  </outline>
</glyph>
<glyph name="si_NThIi" format="1">
  <advance width="1046"/>
  <outline>
    <contour>
      <point x="465" y="235" type="curve" smooth="yes"/>
      <point x="465" y="345"/>
      <point x="566" y="430"/>
      <point x="677" y="430" type="curve"/>
      <point x="677" y="403" type="line"/>
      <point x="594" y="403"/>
      <point x="519" y="347"/>
      <point x="519" y="265" type="curve" smooth="yes"/>
      <point x="519" y="169"/>
      <point x="623" y="140"/>
      <point x="737" y="140" type="curve" smooth="yes"/>
      <point x="859" y="140"/>
      <point x="946" y="213"/>
      <point x="946" y="317" type="curve" smooth="yes"/>
      <point x="946" y="351"/>
      <point x="939" y="380"/>
      <point x="916" y="417" type="curve"/>
      <point x="901" y="387"/>
      <point x="872" y="367"/>
      <point x="829" y="367" type="curve" smooth="yes"/>
      <point x="766" y="367"/>
      <point x="729" y="422"/>
      <point x="729" y="488" type="curve" smooth="yes"/>
      <point x="729" y="538"/>
      <point x="744" y="574"/>
      <point x="771" y="605" type="curve"/>
      <point x="829" y="572"/>
      <point x="900" y="499"/>
      <point x="939" y="438" type="curve" smooth="yes"/>
      <point x="982" y="371"/>
      <point x="998" y="322"/>
      <point x="998" y="252" type="curve" smooth="yes"/>
      <point x="998" y="103"/>
      <point x="882" y="-1"/>
      <point x="727" y="-1" type="curve" smooth="yes"/>
      <point x="583" y="-1"/>
      <point x="465" y="92"/>
    </contour>
    <contour>
      <point x="761" y="492" type="curve" smooth="yes"/>
      <point x="761" y="444"/>
      <point x="783" y="408"/>
      <point x="829" y="408" type="curve" smooth="yes"/>
      <point x="855" y="408"/>
      <point x="882" y="417"/>
      <point x="893" y="448" type="curve"/>
      <point x="864" y="494"/>
      <point x="818" y="536"/>
      <point x="781" y="564" type="curve"/>
      <point x="769" y="546"/>
      <point x="761" y="527"/>
    </contour>
    <contour>
      <point x="866" y="554" type="curve" smooth="yes"/>
      <point x="866" y="527"/>
      <point x="887" y="505"/>
      <point x="914" y="505" type="curve" smooth="yes"/>
      <point x="942" y="505"/>
      <point x="963" y="527"/>
      <point x="963" y="554" type="curve" smooth="yes"/>
      <point x="963" y="581"/>
      <point x="942" y="603"/>
      <point x="914" y="603" type="curve" smooth="yes"/>
      <point x="887" y="603"/>
      <point x="866" y="581"/>
    </contour>
    <contour>
      <point x="532" y="574" type="curve" smooth="yes"/>
      <point x="532" y="666"/>
      <point x="646" y="700"/>
      <point x="755" y="700" type="curve" smooth="yes"/>
      <point x="922" y="700"/>
      <point x="999" y="647"/>
      <point x="999" y="565" type="curve" smooth="yes"/>
      <point x="999" y="512"/>
      <point x="964" y="474"/>
      <point x="914" y="474" type="curve" smooth="yes"/>
      <point x="866" y="474"/>
      <point x="834" y="513"/>
      <point x="834" y="553" type="curve" smooth="yes"/>
      <point x="834" y="567"/>
      <point x="838" y="594"/>
      <point x="861" y="611" type="curve"/>
      <point x="851" y="616"/>
      <point x="813" y="624"/>
      <point x="764" y="624" type="curve" smooth="yes"/>
      <point x="649" y="624"/>
      <point x="585" y="597"/>
      <point x="585" y="558" type="curve" smooth="yes"/>
      <point x="585" y="530"/>
      <point x="614" y="516"/>
      <point x="648" y="516" type="curve" smooth="yes"/>
      <point x="693" y="516"/>
      <point x="727" y="528"/>
      <point x="744" y="536" type="curve"/>
      <point x="742" y="530"/>
      <point x="743" y="519"/>
      <point x="740" y="503" type="curve"/>
      <point x="715" y="495"/>
      <point x="689" y="487"/>
      <point x="646" y="487" type="curve" smooth="yes"/>
      <point x="586" y="487"/>
      <point x="532" y="516"/>
    </contour>
    <contour>
      <point x="24" y="176" type="curve"/>
      <point x="32" y="167"/>
      <point x="50" y="160"/>
      <point x="67" y="160" type="curve" smooth="yes"/>
      <point x="130" y="160"/>
      <point x="131" y="206"/>
      <point x="208" y="279" type="curve"/>
      <point x="221" y="292"/>
      <point x="223" y="309"/>
      <point x="223" y="322" type="curve" smooth="yes"/>
      <point x="223" y="356"/>
      <point x="204" y="380"/>
      <point x="180" y="380" type="curve" smooth="yes"/>
      <point x="160" y="380"/>
      <point x="146" y="370"/>
      <point x="144" y="345" type="curve" smooth="yes"/>
      <point x="142" y="323"/>
      <point x="131" y="294"/>
      <point x="99" y="294" type="curve" smooth="yes"/>
      <point x="82" y="294"/>
      <point x="55" y="304"/>
      <point x="55" y="339" type="curve" smooth="yes"/>
      <point x="55" y="384"/>
      <point x="89" y="431"/>
      <point x="154" y="431" type="curve" smooth="yes"/>
      <point x="219" y="431"/>
      <point x="253" y="385"/>
      <point x="253" y="332" type="curve" smooth="yes"/>
      <point x="253" y="327"/>
      <point x="252" y="318"/>
      <point x="251" y="315" type="curve"/>
      <point x="308" y="369"/>
      <point x="401" y="436"/>
      <point x="591" y="436" type="curve" smooth="yes"/>
      <point x="616" y="436"/>
      <point x="656" y="434"/>
      <point x="679" y="430" type="curve"/>
      <point x="660" y="426"/>
      <point x="618" y="406"/>
      <point x="606" y="406" type="curve"/>
      <point x="597" y="406"/>
      <point x="595" y="407"/>
      <point x="585" y="407" type="curve" smooth="yes"/>
      <point x="428" y="407"/>
      <point x="343" y="359"/>
      <point x="274" y="300" type="curve"/>
      <point x="297" y="305"/>
      <point x="317" y="308"/>
      <point x="345" y="308" type="curve" smooth="yes"/>
      <point x="429" y="308"/>
      <point x="498" y="249"/>
      <point x="498" y="169" type="curve" smooth="yes"/>
      <point x="498" y="53"/>
      <point x="398" y="-1"/>
      <point x="276" y="-1" type="curve" smooth="yes"/>
      <point x="136" y="-1"/>
      <point x="24" y="65"/>
    </contour>
    <contour>
      <point x="125" y="147" type="curve"/>
      <point x="154" y="138"/>
      <point x="190" y="133"/>
      <point x="248" y="133" type="curve" smooth="yes"/>
      <point x="360" y="133"/>
      <point x="418" y="177"/>
      <point x="418" y="225" type="curve" smooth="yes"/>
      <point x="418" y="259"/>
      <point x="390" y="281"/>
      <point x="334" y="281" type="curve" smooth="yes"/>
      <point x="190" y="281"/>
      <point x="189" y="190"/>
    </contour>
  </outline>
</glyph>
<glyph name="si_NThUu" format="1">
  <advance width="1046"/>
  <outline>
    <contour>
      <point x="486" y="-138" type="curve" smooth="yes"/>
      <point x="486" y="-80"/>
      <point x="536" y="-40"/>
      <point x="588" y="-40" type="curve" smooth="yes"/>
      <point x="630" y="-40"/>
      <point x="663" y="-55"/>
      <point x="686" y="-91" type="curve"/>
      <point x="652" y="-102" type="line"/>
      <point x="641" y="-85"/>
      <point x="622" y="-70"/>
      <point x="594" y="-70" type="curve" smooth="yes"/>
      <point x="554" y="-70"/>
      <point x="530" y="-95"/>
      <point x="530" y="-120" type="curve" smooth="yes"/>
      <point x="530" y="-152"/>
      <point x="558" y="-167"/>
      <point x="592" y="-167" type="curve" smooth="yes"/>
      <point x="669" y="-167"/>
      <point x="728" y="-114"/>
      <point x="835" y="-114" type="curve" smooth="yes"/>
      <point x="886" y="-114"/>
      <point x="929" y="-134"/>
      <point x="956" y="-166" type="curve"/>
      <point x="956" y="152" type="line"/>
      <point x="991" y="212" type="line"/>
      <point x="991" y="-231" type="line"/>
      <point x="966" y="-231" type="line"/>
      <point x="950" y="-195"/>
      <point x="908" y="-146"/>
      <point x="845" y="-146" type="curve" smooth="yes"/>
      <point x="754" y="-146"/>
      <point x="696" y="-237"/>
      <point x="598" y="-237" type="curve" smooth="yes"/>
      <point x="542" y="-237"/>
      <point x="486" y="-206"/>
    </contour>
  </outline>
</glyph>
<glyph name="si_NUu" format="1">
  <advance width="806"/>
  <outline>
    <contour>
      <point x="24" y="176" type="curve" smooth="yes"/>
      <point x="32" y="167"/>
      <point x="50" y="160"/>
      <point x="67" y="160" type="curve" smooth="yes"/>
      <point x="130" y="160"/>
      <point x="131" y="206"/>
      <point x="208" y="279" type="curve"/>
      <point x="221" y="292"/>
      <point x="223" y="309"/>
      <point x="223" y="322" type="curve"/>
      <point x="223" y="356"/>
      <point x="204" y="380"/>
      <point x="180" y="380" type="curve" smooth="yes"/>
      <point x="160" y="380"/>
      <point x="146" y="370"/>
      <point x="144" y="345" type="curve" smooth="yes"/>
      <point x="142" y="323"/>
      <point x="131" y="294"/>
      <point x="99" y="294" type="curve" smooth="yes"/>
      <point x="82" y="294"/>
      <point x="55" y="304"/>
      <point x="55" y="339" type="curve" smooth="yes"/>
      <point x="55" y="384"/>
      <point x="89" y="431"/>
      <point x="154" y="431" type="curve"/>
      <point x="219" y="431"/>
      <point x="253" y="387"/>
      <point x="253" y="320" type="curve"/>
      <point x="253" y="319"/>
      <point x="253" y="318"/>
      <point x="253" y="317" type="curve"/>
      <point x="303" y="375"/>
      <point x="401" y="433"/>
      <point x="506" y="433" type="curve"/>
      <point x="646" y="433"/>
      <point x="760" y="335"/>
      <point x="760" y="183" type="curve"/>
      <point x="760" y="63"/>
      <point x="677" y="-1"/>
      <point x="593" y="-1" type="curve" smooth="yes"/>
      <point x="562" y="-1"/>
      <point x="540" y="4"/>
      <point x="528" y="9" type="curve" smooth="yes"/>
      <point x="528" y="9"/>
      <point x="528" y="38"/>
    </contour>
  </outline>
</glyph>
<glyph name="si_NVIi" format="1">
  <advance width="1032"/>
  <outline>
    <contour>
      <point x="804" y="539" type="curve" smooth="yes"/>
      <point x="804" y="568"/>
      <point x="830" y="592"/>
      <point x="863" y="592" type="curve" smooth="yes"/>
      <point x="895" y="592"/>
      <point x="922" y="568"/>
      <point x="922" y="539" type="curve" smooth="yes"/>
      <point x="922" y="509"/>
      <point x="895" y="485"/>
      <point x="863" y="485" type="curve" smooth="yes"/>
      <point x="830" y="485"/>
      <point x="804" y="509"/>
    </contour>
    <contour>
      <point x="485" y="562" type="curve" smooth="yes"/>
      <point x="485" y="476"/>
      <point x="599" y="481"/>
      <point x="688" y="476" type="curve" smooth="yes"/>
      <point x="789" y="470"/>
      <point x="848" y="469"/>
      <point x="893" y="416" type="curve" smooth="yes"/>
      <point x="918" y="385"/>
      <point x="922" y="347"/>
      <point x="922" y="322" type="curve"/>
      <point x="986" y="269" type="line"/>
      <point x="986" y="359"/>
      <point x="950" y="423"/>
      <point x="901" y="459" type="curve" smooth="yes"/>
      <point x="846" y="499"/>
      <point x="752" y="501"/>
      <point x="687" y="504" type="curve" smooth="yes"/>
      <point x="585" y="508"/>
      <point x="540" y="511"/>
      <point x="540" y="540" type="curve" smooth="yes"/>
      <point x="540" y="580"/>
      <point x="631" y="588"/>
      <point x="707" y="588" type="curve" smooth="yes"/>
      <point x="743" y="588"/>
      <point x="776" y="586"/>
      <point x="785" y="584" type="curve"/>
      <point x="781" y="579"/>
      <point x="771" y="565"/>
      <point x="771" y="542" type="curve" smooth="yes"/>
      <point x="771" y="489"/>
      <point x="819" y="458"/>
      <point x="863" y="458" type="curve" smooth="yes"/>
      <point x="907" y="458"/>
      <point x="955" y="489"/>
      <point x="955" y="542" type="curve" smooth="yes"/>
      <point x="955" y="640"/>
      <point x="845" y="670"/>
      <point x="709" y="670" type="curve" smooth="yes"/>
      <point x="608" y="670"/>
      <point x="485" y="652"/>
    </contour>
    <contour>
      <point x="471" y="165" type="curve" smooth="yes"/>
      <point x="471" y="250"/>
      <point x="536" y="304"/>
      <point x="637" y="304" type="curve" smooth="yes"/>
      <point x="694" y="304" type="line"/>
      <point x="694" y="306"/>
      <point x="694" y="306"/>
      <point x="694" y="308" type="curve" smooth="yes"/>
      <point x="694" y="358"/>
      <point x="662" y="387"/>
      <point x="629" y="387" type="curve" smooth="yes"/>
      <point x="595" y="387"/>
      <point x="584" y="371"/>
      <point x="578" y="355" type="curve" smooth="yes"/>
      <point x="572" y="336"/>
      <point x="560" y="319"/>
      <point x="534" y="319" type="curve" smooth="yes"/>
      <point x="511" y="319"/>
      <point x="494" y="333"/>
      <point x="494" y="359" type="curve" smooth="yes"/>
      <point x="494" y="406"/>
      <point x="544" y="432"/>
      <point x="599" y="432" type="curve" smooth="yes"/>
      <point x="687" y="432"/>
      <point x="730" y="376"/>
      <point x="730" y="290" type="curve" smooth="yes"/>
      <point x="730" y="287"/>
      <point x="730" y="280"/>
      <point x="730" y="277" type="curve"/>
      <point x="649" y="277" type="line" smooth="yes"/>
      <point x="575" y="277"/>
      <point x="539" y="250"/>
      <point x="539" y="213" type="curve" smooth="yes"/>
      <point x="539" y="151"/>
      <point x="634" y="140"/>
      <point x="708" y="140" type="curve" smooth="yes"/>
      <point x="861" y="140"/>
      <point x="922" y="214"/>
      <point x="922" y="326" type="curve"/>
      <point x="940" y="310"/>
      <point x="964" y="291"/>
      <point x="986" y="274" type="curve"/>
      <point x="986" y="114"/>
      <point x="888" y="0"/>
      <point x="705" y="0" type="curve" smooth="yes"/>
      <point x="584" y="0"/>
      <point x="471" y="46"/>
    </contour>
    <contour>
      <point x="24" y="176" type="curve"/>
      <point x="32" y="167"/>
      <point x="50" y="160"/>
      <point x="67" y="160" type="curve" smooth="yes"/>
      <point x="130" y="160"/>
      <point x="131" y="206"/>
      <point x="208" y="279" type="curve"/>
      <point x="221" y="292"/>
      <point x="223" y="309"/>
      <point x="223" y="322" type="curve" smooth="yes"/>
      <point x="223" y="356"/>
      <point x="204" y="380"/>
      <point x="180" y="380" type="curve" smooth="yes"/>
      <point x="160" y="380"/>
      <point x="146" y="370"/>
      <point x="144" y="345" type="curve" smooth="yes"/>
      <point x="142" y="323"/>
      <point x="131" y="294"/>
      <point x="99" y="294" type="curve" smooth="yes"/>
      <point x="82" y="294"/>
      <point x="55" y="304"/>
      <point x="55" y="339" type="curve" smooth="yes"/>
      <point x="55" y="384"/>
      <point x="89" y="431"/>
      <point x="154" y="431" type="curve" smooth="yes"/>
      <point x="219" y="431"/>
      <point x="253" y="385"/>
      <point x="253" y="332" type="curve" smooth="yes"/>
      <point x="253" y="325"/>
      <point x="252" y="318"/>
      <point x="251" y="315" type="curve"/>
      <point x="299" y="367"/>
      <point x="396" y="434"/>
      <point x="558" y="434" type="curve" smooth="yes"/>
      <point x="569" y="434"/>
      <point x="597" y="433"/>
      <point x="620" y="430" type="curve"/>
      <point x="605" y="423"/>
      <point x="539" y="410"/>
      <point x="527" y="404" type="curve"/>
      <point x="423" y="404"/>
      <point x="325" y="351"/>
      <point x="276" y="300" type="curve"/>
      <point x="297" y="306"/>
      <point x="317" y="308"/>
      <point x="345" y="308" type="curve" smooth="yes"/>
      <point x="429" y="308"/>
      <point x="498" y="249"/>
      <point x="498" y="169" type="curve" smooth="yes"/>
      <point x="498" y="53"/>
      <point x="398" y="-1"/>
      <point x="276" y="-1" type="curve" smooth="yes"/>
      <point x="136" y="-1"/>
      <point x="24" y="65"/>
    </contour>
    <contour>
      <point x="125" y="147" type="curve"/>
      <point x="154" y="138"/>
      <point x="190" y="133"/>
      <point x="248" y="133" type="curve" smooth="yes"/>
      <point x="360" y="133"/>
      <point x="418" y="177"/>
      <point x="418" y="225" type="curve" smooth="yes"/>
      <point x="418" y="259"/>
      <point x="390" y="281"/>
      <point x="334" y="281" type="curve" smooth="yes"/>
      <point x="190" y="281"/>
      <point x="189" y="190"/>
    </contour>
  </outline>
</glyph>
<glyph name="si_NVU" format="1">
  <advance width="1032"/>
  <outline>
    <contour>
      <point x="482" y="-142" type="curve" smooth="yes"/>
      <point x="482" y="-90"/>
      <point x="528" y="-50"/>
      <point x="583" y="-50" type="curve" smooth="yes"/>
      <point x="625" y="-50"/>
      <point x="662" y="-74"/>
      <point x="677" y="-110" type="curve"/>
      <point x="644" y="-122" type="line"/>
      <point x="637" y="-104"/>
      <point x="616" y="-82"/>
      <point x="583" y="-82" type="curve" smooth="yes"/>
      <point x="546" y="-82"/>
      <point x="517" y="-110"/>
      <point x="517" y="-142" type="curve" smooth="yes"/>
      <point x="517" y="-172"/>
      <point x="539" y="-192"/>
      <point x="608" y="-192" type="curve" smooth="yes"/>
      <point x="940" y="-192" type="line"/>
      <point x="940" y="128" type="line"/>
      <point x="976" y="219" type="line"/>
      <point x="976" y="-235" type="line"/>
      <point x="587" y="-235" type="line" smooth="yes"/>
      <point x="507" y="-235"/>
      <point x="482" y="-186"/>
    </contour>
  </outline>
</glyph>
<glyph name="si_NVUu" format="1">
  <advance width="1032"/>
  <outline>
    <contour>
      <point x="484" y="-138" type="curve" smooth="yes"/>
      <point x="484" y="-80"/>
      <point x="532" y="-40"/>
      <point x="586" y="-40" type="curve" smooth="yes"/>
      <point x="628" y="-40"/>
      <point x="660" y="-55"/>
      <point x="682" y="-91" type="curve"/>
      <point x="650" y="-102" type="line"/>
      <point x="638" y="-85"/>
      <point x="620" y="-70"/>
      <point x="590" y="-70" type="curve" smooth="yes"/>
      <point x="552" y="-70"/>
      <point x="526" y="-95"/>
      <point x="526" y="-120" type="curve" smooth="yes"/>
      <point x="526" y="-152"/>
      <point x="555" y="-167"/>
      <point x="590" y="-167" type="curve" smooth="yes"/>
      <point x="666" y="-167"/>
      <point x="722" y="-114"/>
      <point x="822" y="-114" type="curve" smooth="yes"/>
      <point x="869" y="-114"/>
      <point x="914" y="-134"/>
      <point x="940" y="-166" type="curve"/>
      <point x="940" y="152" type="line"/>
      <point x="976" y="212" type="line"/>
      <point x="976" y="-231" type="line"/>
      <point x="950" y="-231" type="line"/>
      <point x="935" y="-195"/>
      <point x="895" y="-146"/>
      <point x="832" y="-146" type="curve" smooth="yes"/>
      <point x="741" y="-146"/>
      <point x="692" y="-237"/>
      <point x="594" y="-237" type="curve" smooth="yes"/>
      <point x="540" y="-237"/>
      <point x="484" y="-206"/>
    </contour>
    <component base="si_NVa"/>
  </outline>
</glyph>
<glyph name="si_NV.halant" format="1">
  <advance width="1032"/>
  <outline>
    <contour>
      <point x="471" y="165" type="curve" smooth="yes"/>
      <point x="471" y="250"/>
      <point x="536" y="304"/>
      <point x="637" y="304" type="curve" smooth="yes"/>
      <point x="694" y="304" type="line" smooth="yes"/>
      <point x="694" y="306"/>
      <point x="694" y="306"/>
      <point x="694" y="308" type="curve" smooth="yes"/>
      <point x="694" y="358"/>
      <point x="662" y="387"/>
      <point x="629" y="387" type="curve" smooth="yes"/>
      <point x="595" y="387"/>
      <point x="584" y="371"/>
      <point x="578" y="355" type="curve" smooth="yes"/>
      <point x="572" y="336"/>
      <point x="560" y="319"/>
      <point x="534" y="319" type="curve" smooth="yes"/>
      <point x="511" y="319"/>
      <point x="494" y="333"/>
      <point x="494" y="359" type="curve" smooth="yes"/>
      <point x="494" y="406"/>
      <point x="544" y="432"/>
      <point x="599" y="432" type="curve" smooth="yes"/>
      <point x="687" y="432"/>
      <point x="730" y="376"/>
      <point x="730" y="290" type="curve" smooth="yes"/>
      <point x="730" y="287"/>
      <point x="730" y="280"/>
      <point x="730" y="277" type="curve" smooth="yes"/>
      <point x="649" y="277" type="line" smooth="yes"/>
      <point x="575" y="277"/>
      <point x="539" y="250"/>
      <point x="539" y="213" type="curve" smooth="yes"/>
      <point x="539" y="151"/>
      <point x="634" y="140"/>
      <point x="708" y="140" type="curve" smooth="yes"/>
      <point x="860" y="140"/>
      <point x="923" y="211"/>
      <point x="922" y="316" type="curve" smooth="yes"/>
      <point x="921" y="427"/>
      <point x="845" y="492"/>
      <point x="697" y="492" type="curve" smooth="yes"/>
      <point x="621" y="492"/>
      <point x="558" y="475"/>
      <point x="477" y="451" type="curve"/>
      <point x="477" y="484" type="line"/>
      <point x="509" y="492"/>
      <point x="559" y="499"/>
      <point x="559" y="508" type="curve" smooth="yes"/>
      <point x="559" y="520"/>
      <point x="531" y="520"/>
      <point x="531" y="546" type="curve" smooth="yes"/>
      <point x="531" y="583"/>
      <point x="597" y="629"/>
      <point x="703" y="629" type="curve" smooth="yes"/>
      <point x="906" y="629"/>
      <point x="966" y="490"/>
      <point x="978" y="356" type="curve" smooth="yes"/>
      <point x="985" y="328"/>
      <point x="986" y="305"/>
      <point x="986" y="274" type="curve"/>
      <point x="986" y="114"/>
      <point x="888" y="0"/>
      <point x="705" y="0" type="curve" smooth="yes"/>
      <point x="584" y="0"/>
      <point x="471" y="46"/>
    </contour>
    <contour>
      <point x="579" y="538" type="curve" smooth="yes"/>
      <point x="579" y="526"/>
      <point x="598" y="526"/>
      <point x="598" y="515" type="curve" smooth="yes"/>
      <point x="598" y="513"/>
      <point x="597" y="510"/>
      <point x="595" y="508" type="curve"/>
      <point x="627" y="515"/>
      <point x="654" y="519"/>
      <point x="700" y="519" type="curve" smooth="yes"/>
      <point x="808" y="519"/>
      <point x="878" y="489"/>
      <point x="934" y="425" type="curve"/>
      <point x="901" y="536"/>
      <point x="821" y="574"/>
      <point x="705" y="574" type="curve" smooth="yes"/>
      <point x="633" y="574"/>
      <point x="579" y="558"/>
    </contour>
    <contour>
      <point x="24" y="176" type="curve"/>
      <point x="32" y="167"/>
      <point x="50" y="160"/>
      <point x="67" y="160" type="curve" smooth="yes"/>
      <point x="130" y="160"/>
      <point x="131" y="206"/>
      <point x="208" y="279" type="curve"/>
      <point x="221" y="292"/>
      <point x="223" y="309"/>
      <point x="223" y="322" type="curve" smooth="yes"/>
      <point x="223" y="356"/>
      <point x="204" y="380"/>
      <point x="180" y="380" type="curve" smooth="yes"/>
      <point x="160" y="380"/>
      <point x="146" y="370"/>
      <point x="144" y="345" type="curve" smooth="yes"/>
      <point x="142" y="323"/>
      <point x="131" y="294"/>
      <point x="99" y="294" type="curve" smooth="yes"/>
      <point x="82" y="294"/>
      <point x="55" y="304"/>
      <point x="55" y="339" type="curve" smooth="yes"/>
      <point x="55" y="384"/>
      <point x="89" y="431"/>
      <point x="154" y="431" type="curve" smooth="yes"/>
      <point x="219" y="431"/>
      <point x="253" y="385"/>
      <point x="253" y="332" type="curve" smooth="yes"/>
      <point x="253" y="325"/>
      <point x="252" y="318"/>
      <point x="251" y="315" type="curve"/>
      <point x="299" y="367"/>
      <point x="396" y="434"/>
      <point x="558" y="434" type="curve" smooth="yes"/>
      <point x="569" y="434"/>
      <point x="597" y="433"/>
      <point x="620" y="430" type="curve"/>
      <point x="605" y="423"/>
      <point x="539" y="410"/>
      <point x="527" y="404" type="curve"/>
      <point x="423" y="404"/>
      <point x="325" y="351"/>
      <point x="276" y="300" type="curve"/>
      <point x="297" y="306"/>
      <point x="317" y="308"/>
      <point x="345" y="308" type="curve" smooth="yes"/>
      <point x="429" y="308"/>
      <point x="498" y="249"/>
      <point x="498" y="169" type="curve" smooth="yes"/>
      <point x="498" y="53"/>
      <point x="398" y="-1"/>
      <point x="276" y="-1" type="curve" smooth="yes"/>
      <point x="136" y="-1"/>
      <point x="24" y="65"/>
    </contour>
    <contour>
      <point x="125" y="147" type="curve"/>
      <point x="154" y="138"/>
      <point x="190" y="133"/>
      <point x="248" y="133" type="curve" smooth="yes"/>
      <point x="360" y="133"/>
      <point x="418" y="177"/>
      <point x="418" y="225" type="curve" smooth="yes"/>
      <point x="418" y="259"/>
      <point x="390" y="281"/>
      <point x="334" y="281" type="curve" smooth="yes"/>
      <point x="190" y="281"/>
      <point x="189" y="190"/>
    </contour>
  </outline>
</glyph>
<glyph name="si_NdAae" format="1">
  <advance width="825"/>
  <outline>
    <contour>
      <point x="492" y="312" type="line"/>
      <point x="492" y="339" type="line"/>
      <point x="737" y="339" type="line"/>
      <point x="737" y="317" type="line"/>
      <point x="610" y="223" type="line"/>
      <point x="760" y="223" type="line"/>
      <point x="760" y="200" type="line"/>
      <point x="714" y="165"/>
      <point x="676" y="118"/>
      <point x="676" y="36" type="curve" smooth="yes"/>
      <point x="676" y="-29"/>
      <point x="714" y="-100"/>
      <point x="794" y="-100" type="curve"/>
      <point x="794" y="-127" type="line"/>
      <point x="761" y="-141"/>
      <point x="725" y="-148"/>
      <point x="695" y="-148" type="curve" smooth="yes"/>
      <point x="605" y="-148"/>
      <point x="544" y="-101"/>
      <point x="544" y="-18" type="curve" smooth="yes"/>
      <point x="544" y="96"/>
      <point x="647" y="156"/>
      <point x="716" y="196" type="curve"/>
      <point x="560" y="196" type="line"/>
      <point x="560" y="221" type="line"/>
      <point x="686" y="312" type="line"/>
    </contour>
    <component base="si_Nda"/>
  </outline>
</glyph>
<glyph name="si_NDIi" format="1">
  <advance width="894"/>
  <outline>
    <contour>
      <point x="688" y="514" type="curve" smooth="yes"/>
      <point x="688" y="484"/>
      <point x="717" y="460"/>
      <point x="751" y="460" type="curve" smooth="yes"/>
      <point x="786" y="460"/>
      <point x="815" y="484"/>
      <point x="815" y="514" type="curve" smooth="yes"/>
      <point x="815" y="544"/>
      <point x="786" y="568"/>
      <point x="751" y="568" type="curve" smooth="yes"/>
      <point x="717" y="568"/>
      <point x="688" y="544"/>
    </contour>
    <contour>
      <point x="474" y="518" type="curve" smooth="yes"/>
      <point x="474" y="619"/>
      <point x="565" y="671"/>
      <point x="662" y="671" type="curve" smooth="yes"/>
      <point x="758" y="671"/>
      <point x="849" y="614"/>
      <point x="849" y="523" type="curve" smooth="yes"/>
      <point x="849" y="463"/>
      <point x="802" y="429"/>
      <point x="751" y="429" type="curve" smooth="yes"/>
      <point x="691" y="429"/>
      <point x="653" y="470"/>
      <point x="653" y="515" type="curve" smooth="yes"/>
      <point x="653" y="533"/>
      <point x="660" y="560"/>
      <point x="684" y="576" type="curve"/>
      <point x="677" y="577"/>
      <point x="665" y="578"/>
      <point x="651" y="578" type="curve" smooth="yes"/>
      <point x="579" y="578"/>
      <point x="516" y="551"/>
      <point x="516" y="498" type="curve" smooth="yes"/>
      <point x="516" y="467"/>
      <point x="543" y="436"/>
      <point x="596" y="436" type="curve"/>
      <point x="529" y="432" type="line"/>
      <point x="521" y="433"/>
      <point x="474" y="455"/>
    </contour>
  </outline>
</glyph>
<glyph name="si_NdjU" format="1">
  <advance width="699"/>
  <outline>
    <contour>
      <point x="140" y="-142" type="curve" smooth="yes"/>
      <point x="140" y="-90"/>
      <point x="186" y="-50"/>
      <point x="242" y="-50" type="curve" smooth="yes"/>
      <point x="283" y="-50"/>
      <point x="321" y="-74"/>
      <point x="336" y="-110" type="curve"/>
      <point x="303" y="-122" type="line"/>
      <point x="296" y="-104"/>
      <point x="274" y="-82"/>
      <point x="242" y="-82" type="curve" smooth="yes"/>
      <point x="205" y="-82"/>
      <point x="176" y="-110"/>
      <point x="176" y="-142" type="curve" smooth="yes"/>
      <point x="176" y="-172"/>
      <point x="197" y="-192"/>
      <point x="267" y="-192" type="curve" smooth="yes"/>
      <point x="606" y="-192" type="line"/>
      <point x="606" y="128" type="line"/>
      <point x="642" y="219" type="line"/>
      <point x="642" y="-235" type="line"/>
      <point x="246" y="-235" type="line" smooth="yes"/>
      <point x="166" y="-235"/>
      <point x="140" y="-186"/>
    </contour>
    <component base="si_Ndja"/>
  </outline>
</glyph>
<glyph name="si_Ng.halant" format="1">
  <advance width="617"/>
  <outline>
    <contour>
      <point x="154" y="538" type="curve" smooth="yes"/>
      <point x="154" y="558"/>
      <point x="211" y="574"/>
      <point x="283" y="574" type="curve" smooth="yes"/>
      <point x="399" y="574"/>
      <point x="481" y="536"/>
      <point x="514" y="425" type="curve"/>
      <point x="459" y="489"/>
      <point x="386" y="519"/>
      <point x="278" y="519" type="curve" smooth="yes"/>
      <point x="231" y="519"/>
      <point x="201" y="515"/>
      <point x="170" y="508" type="curve"/>
      <point x="172" y="510"/>
      <point x="172" y="513"/>
      <point x="172" y="515" type="curve" smooth="yes"/>
      <point x="172" y="526"/>
      <point x="154" y="526"/>
    </contour>
    <contour>
      <point x="52" y="440" type="line"/>
      <point x="132" y="478"/>
      <point x="199" y="492"/>
      <point x="275" y="492" type="curve" smooth="yes"/>
      <point x="444" y="492"/>
      <point x="497" y="384"/>
      <point x="497" y="312" type="curve" smooth="yes"/>
      <point x="497" y="308"/>
      <point x="497" y="312"/>
      <point x="497" y="304" type="curve"/>
      <point x="570" y="254" type="line"/>
      <point x="570" y="292"/>
      <point x="565" y="326"/>
      <point x="559" y="356" type="curve"/>
      <point x="547" y="490"/>
      <point x="485" y="629"/>
      <point x="277" y="629" type="curve" smooth="yes"/>
      <point x="162" y="629"/>
      <point x="105" y="583"/>
      <point x="105" y="546" type="curve" smooth="yes"/>
      <point x="105" y="520"/>
      <point x="133" y="520"/>
      <point x="133" y="508" type="curve" smooth="yes"/>
      <point x="133" y="499"/>
      <point x="84" y="485"/>
      <point x="52" y="473" type="curve"/>
    </contour>
    <contour>
      <point x="89" y="347" type="curve" smooth="yes"/>
      <point x="89" y="320"/>
      <point x="113" y="298"/>
      <point x="142" y="298" type="curve" smooth="yes"/>
      <point x="170" y="298"/>
      <point x="194" y="320"/>
      <point x="194" y="347" type="curve" smooth="yes"/>
      <point x="194" y="373"/>
      <point x="170" y="395"/>
      <point x="142" y="395" type="curve" smooth="yes"/>
      <point x="113" y="395"/>
      <point x="89" y="373"/>
    </contour>
    <contour>
      <point x="51" y="140" type="curve" smooth="yes"/>
      <point x="51" y="212"/>
      <point x="109" y="260"/>
      <point x="179" y="260" type="curve" smooth="yes"/>
      <point x="215" y="260"/>
      <point x="244" y="253"/>
      <point x="280" y="253" type="curve" smooth="yes"/>
      <point x="326" y="253"/>
      <point x="341" y="277"/>
      <point x="341" y="310" type="curve" smooth="yes"/>
      <point x="341" y="381"/>
      <point x="263" y="409"/>
      <point x="214" y="409" type="curve" smooth="yes"/>
      <point x="199" y="409"/>
      <point x="192" y="408"/>
      <point x="184" y="407" type="curve"/>
      <point x="203" y="397"/>
      <point x="222" y="380"/>
      <point x="222" y="345" type="curve" smooth="yes"/>
      <point x="222" y="309"/>
      <point x="189" y="272"/>
      <point x="141" y="272" type="curve" smooth="yes"/>
      <point x="100" y="272"/>
      <point x="60" y="303"/>
      <point x="60" y="346" type="curve" smooth="yes"/>
      <point x="60" y="402"/>
      <point x="119" y="434"/>
      <point x="208" y="434" type="curve" smooth="yes"/>
      <point x="310" y="434"/>
      <point x="372" y="379"/>
      <point x="372" y="306" type="curve" smooth="yes"/>
      <point x="372" y="265"/>
      <point x="348" y="224"/>
      <point x="280" y="224" type="curve" smooth="yes"/>
      <point x="239" y="224"/>
      <point x="224" y="230"/>
      <point x="181" y="230" type="curve" smooth="yes"/>
      <point x="132" y="230"/>
      <point x="118" y="205"/>
      <point x="118" y="189" type="curve" smooth="yes"/>
      <point x="118" y="163"/>
      <point x="142" y="140"/>
      <point x="201" y="140" type="curve" smooth="yes"/>
      <point x="229" y="140"/>
      <point x="284" y="142"/>
      <point x="284" y="190" type="curve" smooth="yes"/>
      <point x="284" y="196" type="line"/>
      <point x="311" y="196" type="line"/>
      <point x="311" y="190" type="line" smooth="yes"/>
      <point x="311" y="144"/>
      <point x="354" y="140"/>
      <point x="386" y="140" type="curve" smooth="yes"/>
      <point x="460" y="140"/>
      <point x="497" y="222"/>
      <point x="497" y="308" type="curve"/>
      <point x="515" y="292"/>
      <point x="535" y="289"/>
      <point x="570" y="260" type="curve"/>
      <point x="570" y="114"/>
      <point x="516" y="0"/>
      <point x="416" y="0" type="curve" smooth="yes"/>
      <point x="354" y="0"/>
      <point x="329" y="21"/>
      <point x="298" y="59" type="curve"/>
      <point x="267" y="20"/>
      <point x="233" y="0"/>
      <point x="188" y="0" type="curve" smooth="yes"/>
      <point x="107" y="0"/>
      <point x="51" y="60"/>
    </contour>
  </outline>
</glyph>
<glyph name="si_NnIi" format="1">
  <advance width="963"/>
  <outline>
    <contour>
      <point x="475" y="503" type="curve" smooth="yes"/>
      <point x="475" y="533"/>
      <point x="504" y="557"/>
      <point x="538" y="557" type="curve" smooth="yes"/>
      <point x="573" y="557"/>
      <point x="602" y="533"/>
      <point x="602" y="503" type="curve" smooth="yes"/>
      <point x="602" y="473"/>
      <point x="573" y="448"/>
      <point x="538" y="448" type="curve" smooth="yes"/>
      <point x="504" y="448"/>
      <point x="475" y="473"/>
    </contour>
    <contour>
      <point x="203" y="500" type="curve" smooth="yes"/>
      <point x="203" y="454"/>
      <point x="236" y="423"/>
      <point x="270" y="416" type="curve" smooth="yes"/>
      <point x="287" y="419"/>
      <point x="286" y="423"/>
      <point x="316" y="429" type="curve" smooth="yes"/>
      <point x="288" y="429"/>
      <point x="255" y="440"/>
      <point x="255" y="473" type="curve" smooth="yes"/>
      <point x="255" y="538"/>
      <point x="379" y="565"/>
      <point x="459" y="565" type="curve" smooth="yes"/>
      <point x="463" y="565"/>
      <point x="468" y="565"/>
      <point x="472" y="564" type="curve"/>
      <point x="463" y="555"/>
      <point x="442" y="536"/>
      <point x="442" y="502" type="curve" smooth="yes"/>
      <point x="442" y="464"/>
      <point x="478" y="419"/>
      <point x="540" y="419" type="curve" smooth="yes"/>
      <point x="607" y="419"/>
      <point x="635" y="466"/>
      <point x="635" y="506" type="curve"/>
      <point x="635" y="604"/>
      <point x="524" y="637"/>
      <point x="430" y="637" type="curve"/>
      <point x="351" y="637"/>
      <point x="203" y="606"/>
    </contour>
  </outline>
</glyph>
<glyph name="si_NnddIi" format="1">
  <advance width="731"/>
  <outline>
    <contour>
      <point x="503" y="539" type="curve" smooth="yes"/>
      <point x="503" y="568"/>
      <point x="529" y="592"/>
      <point x="562" y="592" type="curve" smooth="yes"/>
      <point x="594" y="592"/>
      <point x="621" y="568"/>
      <point x="621" y="539" type="curve" smooth="yes"/>
      <point x="621" y="509"/>
      <point x="594" y="485"/>
      <point x="562" y="485" type="curve" smooth="yes"/>
      <point x="529" y="485"/>
      <point x="503" y="509"/>
    </contour>
    <contour>
      <point x="167" y="562" type="curve" smooth="yes"/>
      <point x="167" y="476"/>
      <point x="293" y="481"/>
      <point x="382" y="476" type="curve" smooth="yes"/>
      <point x="483" y="470"/>
      <point x="547" y="469"/>
      <point x="592" y="416" type="curve" smooth="yes"/>
      <point x="619" y="383"/>
      <point x="628" y="348"/>
      <point x="628" y="295" type="curve"/>
      <point x="685" y="256" type="line"/>
      <point x="685" y="354"/>
      <point x="649" y="423"/>
      <point x="600" y="459" type="curve" smooth="yes"/>
      <point x="545" y="499"/>
      <point x="446" y="501"/>
      <point x="381" y="504" type="curve" smooth="yes"/>
      <point x="279" y="508"/>
      <point x="222" y="511"/>
      <point x="222" y="540" type="curve" smooth="yes"/>
      <point x="222" y="580"/>
      <point x="325" y="588"/>
      <point x="401" y="588" type="curve" smooth="yes"/>
      <point x="438" y="588"/>
      <point x="475" y="586"/>
      <point x="484" y="584" type="curve"/>
      <point x="480" y="579"/>
      <point x="470" y="565"/>
      <point x="470" y="542" type="curve" smooth="yes"/>
      <point x="470" y="489"/>
      <point x="518" y="458"/>
      <point x="562" y="458" type="curve" smooth="yes"/>
      <point x="606" y="458"/>
      <point x="654" y="489"/>
      <point x="654" y="542" type="curve" smooth="yes"/>
      <point x="654" y="640"/>
      <point x="539" y="670"/>
      <point x="403" y="670" type="curve" smooth="yes"/>
      <point x="303" y="670"/>
      <point x="167" y="652"/>
    </contour>
    <contour>
      <point x="102" y="285" type="line"/>
      <point x="102" y="315" type="line"/>
      <point x="345" y="315" type="line"/>
      <point x="343" y="350"/>
      <point x="318" y="388"/>
      <point x="284" y="388" type="curve" smooth="yes"/>
      <point x="275" y="388"/>
      <point x="256" y="387"/>
      <point x="241" y="360" type="curve" smooth="yes"/>
      <point x="231" y="342"/>
      <point x="216" y="335"/>
      <point x="200" y="335" type="curve" smooth="yes"/>
      <point x="176" y="335"/>
      <point x="160" y="351"/>
      <point x="160" y="373" type="curve" smooth="yes"/>
      <point x="160" y="413"/>
      <point x="208" y="432"/>
      <point x="250" y="432" type="curve" smooth="yes"/>
      <point x="329" y="432"/>
      <point x="382" y="384"/>
      <point x="382" y="285" type="curve"/>
      <point x="311" y="285" type="line" smooth="yes"/>
      <point x="218" y="285"/>
      <point x="196" y="234"/>
      <point x="196" y="210" type="curve" smooth="yes"/>
      <point x="196" y="164"/>
      <point x="237" y="140"/>
      <point x="290" y="140" type="curve" smooth="yes"/>
      <point x="354" y="140"/>
      <point x="384" y="161"/>
      <point x="384" y="200" type="curve" smooth="yes"/>
      <point x="384" y="221" type="line"/>
      <point x="415" y="221" type="line"/>
      <point x="415" y="200" type="line" smooth="yes"/>
      <point x="415" y="164"/>
      <point x="440" y="140"/>
      <point x="501" y="140" type="curve" smooth="yes"/>
      <point x="576" y="140"/>
      <point x="628" y="198"/>
      <point x="628" y="298" type="curve"/>
      <point x="646" y="290"/>
      <point x="663" y="267"/>
      <point x="685" y="258" type="curve"/>
      <point x="685" y="110"/>
      <point x="634" y="0"/>
      <point x="515" y="0" type="curve" smooth="yes"/>
      <point x="450" y="0"/>
      <point x="422" y="29"/>
      <point x="400" y="59" type="curve"/>
      <point x="371" y="22"/>
      <point x="337" y="0"/>
      <point x="286" y="0" type="curve" smooth="yes"/>
      <point x="185" y="0"/>
      <point x="133" y="81"/>
      <point x="133" y="162" type="curve" smooth="yes"/>
      <point x="133" y="212"/>
      <point x="158" y="261"/>
      <point x="212" y="285" type="curve"/>
    </contour>
    <contour>
      <point x="27" y="221" type="curve" smooth="yes"/>
      <point x="27" y="353"/>
      <point x="100" y="433"/>
      <point x="239" y="433" type="curve" smooth="yes"/>
      <point x="248" y="433"/>
      <point x="271" y="433"/>
      <point x="293" y="427" type="curve"/>
      <point x="272" y="416"/>
      <point x="195" y="404"/>
      <point x="178" y="398" type="curve"/>
      <point x="106" y="381"/>
      <point x="59" y="319"/>
      <point x="59" y="218" type="curve" smooth="yes"/>
      <point x="59" y="137"/>
      <point x="86" y="78"/>
      <point x="135" y="34" type="curve"/>
      <point x="135" y="0" type="line"/>
      <point x="69" y="33"/>
      <point x="27" y="120"/>
    </contour>
  </outline>
</glyph>
<glyph name="si_NnddU" format="1">
  <advance width="731"/>
  <outline>
    <contour>
      <point x="139" y="-142" type="curve" smooth="yes"/>
      <point x="139" y="-90"/>
      <point x="185" y="-50"/>
      <point x="240" y="-50" type="curve" smooth="yes"/>
      <point x="282" y="-50"/>
      <point x="319" y="-74"/>
      <point x="334" y="-110" type="curve"/>
      <point x="301" y="-122" type="line"/>
      <point x="295" y="-104"/>
      <point x="273" y="-82"/>
      <point x="240" y="-82" type="curve" smooth="yes"/>
      <point x="203" y="-82"/>
      <point x="174" y="-110"/>
      <point x="174" y="-142" type="curve" smooth="yes"/>
      <point x="174" y="-172"/>
      <point x="196" y="-192"/>
      <point x="266" y="-192" type="curve" smooth="yes"/>
      <point x="637" y="-192" type="line"/>
      <point x="637" y="128" type="line"/>
      <point x="672" y="219" type="line"/>
      <point x="672" y="-235" type="line"/>
      <point x="244" y="-235" type="line" smooth="yes"/>
      <point x="165" y="-235"/>
      <point x="139" y="-186"/>
    </contour>
    <contour>
      <point x="102" y="285" type="line"/>
      <point x="102" y="315" type="line"/>
      <point x="345" y="315" type="line"/>
      <point x="343" y="350"/>
      <point x="318" y="388"/>
      <point x="284" y="388" type="curve" smooth="yes"/>
      <point x="275" y="388"/>
      <point x="256" y="387"/>
      <point x="241" y="360" type="curve" smooth="yes"/>
      <point x="231" y="342"/>
      <point x="216" y="335"/>
      <point x="200" y="335" type="curve" smooth="yes"/>
      <point x="176" y="335"/>
      <point x="160" y="351"/>
      <point x="160" y="373" type="curve" smooth="yes"/>
      <point x="160" y="413"/>
      <point x="208" y="432"/>
      <point x="250" y="432" type="curve" smooth="yes"/>
      <point x="329" y="432"/>
      <point x="382" y="384"/>
      <point x="382" y="285" type="curve"/>
      <point x="311" y="285" type="line" smooth="yes"/>
      <point x="218" y="285"/>
      <point x="196" y="234"/>
      <point x="196" y="210" type="curve" smooth="yes"/>
      <point x="196" y="164"/>
      <point x="237" y="140"/>
      <point x="290" y="140" type="curve" smooth="yes"/>
      <point x="354" y="140"/>
      <point x="384" y="161"/>
      <point x="384" y="200" type="curve" smooth="yes"/>
      <point x="384" y="221" type="line"/>
      <point x="415" y="221" type="line"/>
      <point x="415" y="200" type="line" smooth="yes"/>
      <point x="415" y="164"/>
      <point x="440" y="140"/>
      <point x="501" y="140" type="curve" smooth="yes"/>
      <point x="576" y="140"/>
      <point x="626" y="200"/>
      <point x="626" y="293" type="curve" smooth="yes"/>
      <point x="626" y="422"/>
      <point x="547" y="555"/>
      <point x="386" y="555" type="curve" smooth="yes"/>
      <point x="305" y="555"/>
      <point x="241" y="522"/>
      <point x="196" y="468" type="curve"/>
      <point x="160" y="468" type="line"/>
      <point x="214" y="546"/>
      <point x="297" y="582"/>
      <point x="391" y="582" type="curve" smooth="yes"/>
      <point x="566" y="582"/>
      <point x="685" y="444"/>
      <point x="685" y="258" type="curve" smooth="yes"/>
      <point x="685" y="110"/>
      <point x="634" y="0"/>
      <point x="515" y="0" type="curve" smooth="yes"/>
      <point x="450" y="0"/>
      <point x="422" y="29"/>
      <point x="400" y="59" type="curve"/>
      <point x="371" y="22"/>
      <point x="337" y="0"/>
      <point x="286" y="0" type="curve" smooth="yes"/>
      <point x="185" y="0"/>
      <point x="133" y="81"/>
      <point x="133" y="162" type="curve" smooth="yes"/>
      <point x="133" y="212"/>
      <point x="158" y="261"/>
      <point x="212" y="285" type="curve"/>
    </contour>
    <contour>
      <point x="27" y="221" type="curve" smooth="yes"/>
      <point x="27" y="353"/>
      <point x="100" y="433"/>
      <point x="239" y="433" type="curve" smooth="yes"/>
      <point x="248" y="433"/>
      <point x="271" y="433"/>
      <point x="293" y="427" type="curve"/>
      <point x="272" y="416"/>
      <point x="195" y="404"/>
      <point x="178" y="398" type="curve"/>
      <point x="106" y="381"/>
      <point x="59" y="319"/>
      <point x="59" y="218" type="curve" smooth="yes"/>
      <point x="59" y="137"/>
      <point x="86" y="78"/>
      <point x="135" y="34" type="curve"/>
      <point x="135" y="0" type="line"/>
      <point x="69" y="33"/>
      <point x="27" y="120"/>
    </contour>
  </outline>
</glyph>
<glyph name="si_NnddUu" format="1">
  <advance width="731"/>
  <outline>
    <contour>
      <point x="137" y="-138" type="curve" smooth="yes"/>
      <point x="137" y="-80"/>
      <point x="186" y="-40"/>
      <point x="239" y="-40" type="curve" smooth="yes"/>
      <point x="281" y="-40"/>
      <point x="314" y="-55"/>
      <point x="336" y="-91" type="curve"/>
      <point x="303" y="-102" type="line"/>
      <point x="292" y="-85"/>
      <point x="273" y="-70"/>
      <point x="244" y="-70" type="curve" smooth="yes"/>
      <point x="205" y="-70"/>
      <point x="180" y="-95"/>
      <point x="180" y="-120" type="curve" smooth="yes"/>
      <point x="180" y="-152"/>
      <point x="209" y="-167"/>
      <point x="243" y="-167" type="curve" smooth="yes"/>
      <point x="320" y="-167"/>
      <point x="406" y="-114"/>
      <point x="513" y="-114" type="curve" smooth="yes"/>
      <point x="564" y="-114"/>
      <point x="610" y="-134"/>
      <point x="637" y="-166" type="curve"/>
      <point x="637" y="152" type="line"/>
      <point x="672" y="212" type="line"/>
      <point x="672" y="-231" type="line"/>
      <point x="647" y="-231" type="line"/>
      <point x="632" y="-195"/>
      <point x="586" y="-146"/>
      <point x="523" y="-146" type="curve" smooth="yes"/>
      <point x="432" y="-146"/>
      <point x="346" y="-237"/>
      <point x="248" y="-237" type="curve" smooth="yes"/>
      <point x="193" y="-237"/>
      <point x="137" y="-206"/>
    </contour>
    <contour>
      <point x="101" y="285" type="line"/>
      <point x="101" y="315" type="line"/>
      <point x="344" y="315" type="line"/>
      <point x="342" y="350"/>
      <point x="317" y="388"/>
      <point x="283" y="388" type="curve" smooth="yes"/>
      <point x="274" y="388"/>
      <point x="256" y="387"/>
      <point x="240" y="360" type="curve" smooth="yes"/>
      <point x="230" y="342"/>
      <point x="215" y="335"/>
      <point x="199" y="335" type="curve" smooth="yes"/>
      <point x="175" y="335"/>
      <point x="160" y="351"/>
      <point x="160" y="373" type="curve" smooth="yes"/>
      <point x="160" y="413"/>
      <point x="207" y="432"/>
      <point x="250" y="432" type="curve" smooth="yes"/>
      <point x="328" y="432"/>
      <point x="381" y="384"/>
      <point x="381" y="285" type="curve"/>
      <point x="310" y="285" type="line" smooth="yes"/>
      <point x="217" y="285"/>
      <point x="196" y="234"/>
      <point x="196" y="210" type="curve" smooth="yes"/>
      <point x="196" y="164"/>
      <point x="236" y="140"/>
      <point x="289" y="140" type="curve" smooth="yes"/>
      <point x="353" y="140"/>
      <point x="383" y="161"/>
      <point x="383" y="200" type="curve" smooth="yes"/>
      <point x="383" y="221" type="line"/>
      <point x="414" y="221" type="line"/>
      <point x="414" y="200" type="line" smooth="yes"/>
      <point x="414" y="164"/>
      <point x="439" y="140"/>
      <point x="500" y="140" type="curve" smooth="yes"/>
      <point x="575" y="140"/>
      <point x="626" y="200"/>
      <point x="626" y="293" type="curve" smooth="yes"/>
      <point x="626" y="422"/>
      <point x="546" y="555"/>
      <point x="385" y="555" type="curve" smooth="yes"/>
      <point x="304" y="555"/>
      <point x="240" y="522"/>
      <point x="195" y="468" type="curve"/>
      <point x="159" y="468" type="line"/>
      <point x="214" y="546"/>
      <point x="296" y="582"/>
      <point x="390" y="582" type="curve" smooth="yes"/>
      <point x="565" y="582"/>
      <point x="684" y="444"/>
      <point x="684" y="258" type="curve" smooth="yes"/>
      <point x="684" y="110"/>
      <point x="633" y="0"/>
      <point x="514" y="0" type="curve" smooth="yes"/>
      <point x="449" y="0"/>
      <point x="421" y="29"/>
      <point x="399" y="59" type="curve"/>
      <point x="370" y="22"/>
      <point x="336" y="0"/>
      <point x="285" y="0" type="curve" smooth="yes"/>
      <point x="184" y="0"/>
      <point x="132" y="81"/>
      <point x="132" y="162" type="curve" smooth="yes"/>
      <point x="132" y="212"/>
      <point x="157" y="261"/>
      <point x="211" y="285" type="curve"/>
    </contour>
    <contour>
      <point x="27" y="221" type="curve" smooth="yes"/>
      <point x="27" y="353"/>
      <point x="100" y="433"/>
      <point x="239" y="433" type="curve" smooth="yes"/>
      <point x="248" y="433"/>
      <point x="271" y="433"/>
      <point x="293" y="427" type="curve"/>
      <point x="272" y="416"/>
      <point x="195" y="404"/>
      <point x="178" y="398" type="curve"/>
      <point x="106" y="381"/>
      <point x="59" y="319"/>
      <point x="59" y="218" type="curve" smooth="yes"/>
      <point x="59" y="137"/>
      <point x="86" y="78"/>
      <point x="135" y="34" type="curve"/>
      <point x="135" y="0" type="line"/>
      <point x="69" y="33"/>
      <point x="27" y="120"/>
    </contour>
  </outline>
</glyph>
<glyph name="si_Nndd.halant" format="1">
  <advance width="731"/>
  <outline>
    <contour>
      <point x="239" y="538" type="curve" smooth="yes"/>
      <point x="239" y="526"/>
      <point x="258" y="526"/>
      <point x="258" y="515" type="curve" smooth="yes"/>
      <point x="258" y="513"/>
      <point x="257" y="510"/>
      <point x="255" y="508" type="curve"/>
      <point x="288" y="514"/>
      <point x="328" y="519"/>
      <point x="374" y="519" type="curve" smooth="yes"/>
      <point x="482" y="519"/>
      <point x="567" y="489"/>
      <point x="623" y="425" type="curve"/>
      <point x="590" y="536"/>
      <point x="495" y="574"/>
      <point x="379" y="574" type="curve" smooth="yes"/>
      <point x="307" y="574"/>
      <point x="239" y="558"/>
    </contour>
    <contour>
      <point x="137" y="440" type="curve"/>
      <point x="137" y="473" type="line"/>
      <point x="169" y="485"/>
      <point x="219" y="499"/>
      <point x="219" y="508" type="curve" smooth="yes"/>
      <point x="219" y="520"/>
      <point x="191" y="520"/>
      <point x="191" y="546" type="curve" smooth="yes"/>
      <point x="191" y="583"/>
      <point x="258" y="629"/>
      <point x="373" y="629" type="curve" smooth="yes"/>
      <point x="581" y="629"/>
      <point x="655" y="490"/>
      <point x="667" y="356" type="curve"/>
      <point x="679" y="331"/>
      <point x="685" y="288"/>
      <point x="685" y="256" type="curve"/>
      <point x="626" y="290" type="line"/>
      <point x="626" y="298"/>
      <point x="626" y="294"/>
      <point x="626" y="298" type="curve" smooth="yes"/>
      <point x="626" y="408"/>
      <point x="540" y="492"/>
      <point x="371" y="492" type="curve" smooth="yes"/>
      <point x="295" y="492"/>
      <point x="218" y="478"/>
    </contour>
    <contour>
      <point x="102" y="285" type="line"/>
      <point x="102" y="315" type="line"/>
      <point x="345" y="315" type="line"/>
      <point x="343" y="350"/>
      <point x="318" y="388"/>
      <point x="284" y="388" type="curve" smooth="yes"/>
      <point x="275" y="388"/>
      <point x="256" y="387"/>
      <point x="241" y="360" type="curve" smooth="yes"/>
      <point x="231" y="342"/>
      <point x="216" y="335"/>
      <point x="200" y="335" type="curve" smooth="yes"/>
      <point x="176" y="335"/>
      <point x="160" y="351"/>
      <point x="160" y="373" type="curve" smooth="yes"/>
      <point x="160" y="413"/>
      <point x="208" y="432"/>
      <point x="250" y="432" type="curve" smooth="yes"/>
      <point x="329" y="432"/>
      <point x="382" y="384"/>
      <point x="382" y="285" type="curve"/>
      <point x="311" y="285" type="line" smooth="yes"/>
      <point x="218" y="285"/>
      <point x="196" y="234"/>
      <point x="196" y="210" type="curve" smooth="yes"/>
      <point x="196" y="164"/>
      <point x="237" y="140"/>
      <point x="290" y="140" type="curve" smooth="yes"/>
      <point x="354" y="140"/>
      <point x="384" y="161"/>
      <point x="384" y="200" type="curve" smooth="yes"/>
      <point x="384" y="221" type="line"/>
      <point x="415" y="221" type="line"/>
      <point x="415" y="200" type="line" smooth="yes"/>
      <point x="415" y="164"/>
      <point x="440" y="140"/>
      <point x="501" y="140" type="curve" smooth="yes"/>
      <point x="576" y="140"/>
      <point x="626" y="200"/>
      <point x="626" y="293" type="curve"/>
      <point x="645" y="284"/>
      <point x="663" y="267"/>
      <point x="685" y="258" type="curve"/>
      <point x="685" y="110"/>
      <point x="634" y="0"/>
      <point x="515" y="0" type="curve" smooth="yes"/>
      <point x="450" y="0"/>
      <point x="422" y="29"/>
      <point x="400" y="59" type="curve"/>
      <point x="371" y="22"/>
      <point x="337" y="0"/>
      <point x="286" y="0" type="curve" smooth="yes"/>
      <point x="185" y="0"/>
      <point x="133" y="81"/>
      <point x="133" y="162" type="curve" smooth="yes"/>
      <point x="133" y="212"/>
      <point x="158" y="261"/>
      <point x="212" y="285" type="curve"/>
    </contour>
    <contour>
      <point x="27" y="221" type="curve" smooth="yes"/>
      <point x="27" y="353"/>
      <point x="100" y="433"/>
      <point x="239" y="433" type="curve" smooth="yes"/>
      <point x="248" y="433"/>
      <point x="271" y="433"/>
      <point x="293" y="427" type="curve"/>
      <point x="272" y="416"/>
      <point x="195" y="404"/>
      <point x="178" y="398" type="curve"/>
      <point x="106" y="381"/>
      <point x="59" y="319"/>
      <point x="59" y="218" type="curve" smooth="yes"/>
      <point x="59" y="137"/>
      <point x="86" y="78"/>
      <point x="135" y="34" type="curve"/>
      <point x="135" y="0" type="line"/>
      <point x="69" y="33"/>
      <point x="27" y="120"/>
    </contour>
  </outline>
</glyph>
<glyph name="si_Nng.halant" format="1">
  <advance width="749"/>
  <outline>
    <contour>
      <point x="552" y="348" type="line"/>
      <point x="580" y="331" type="line"/>
      <point x="580" y="478" type="line"/>
      <point x="595" y="471"/>
      <point x="610" y="468"/>
      <point x="625" y="468" type="curve" smooth="yes"/>
      <point x="668" y="468"/>
      <point x="703" y="498"/>
      <point x="703" y="542" type="curve" smooth="yes"/>
      <point x="703" y="634"/>
      <point x="606" y="639"/>
      <point x="552" y="681" type="curve"/>
    </contour>
    <contour>
      <point x="580" y="504" type="curve"/>
      <point x="580" y="637" type="line"/>
      <point x="626" y="606"/>
      <point x="658" y="587"/>
      <point x="658" y="545" type="curve" smooth="yes"/>
      <point x="658" y="522"/>
      <point x="644" y="497"/>
      <point x="612" y="497" type="curve" smooth="yes"/>
      <point x="599" y="497"/>
      <point x="589" y="500"/>
    </contour>
    <contour>
      <point x="151" y="207" type="curve" smooth="yes"/>
      <point x="151" y="330"/>
      <point x="226" y="432"/>
      <point x="337" y="432" type="curve" smooth="yes"/>
      <point x="341" y="432"/>
      <point x="346" y="431"/>
      <point x="350" y="431" type="curve"/>
      <point x="350" y="405" type="line"/>
      <point x="347" y="405"/>
      <point x="342" y="405"/>
      <point x="339" y="405" type="curve" smooth="yes"/>
      <point x="255" y="405"/>
      <point x="205" y="329"/>
      <point x="205" y="258" type="curve" smooth="yes"/>
      <point x="205" y="186"/>
      <point x="259" y="140"/>
      <point x="328" y="140" type="curve" smooth="yes"/>
      <point x="387" y="140"/>
      <point x="411" y="164"/>
      <point x="411" y="191" type="curve" smooth="yes"/>
      <point x="411" y="216"/>
      <point x="393" y="220"/>
      <point x="386" y="220" type="curve" smooth="yes"/>
      <point x="375" y="220"/>
      <point x="368" y="217"/>
      <point x="363" y="214" type="curve"/>
      <point x="362" y="208"/>
      <point x="361" y="197"/>
      <point x="361" y="194" type="curve"/>
      <point x="333" y="194" type="line"/>
      <point x="342" y="321"/>
      <point x="405" y="432"/>
      <point x="527" y="432" type="curve" smooth="yes"/>
      <point x="639" y="432"/>
      <point x="703" y="332"/>
      <point x="703" y="217" type="curve" smooth="yes"/>
      <point x="703" y="95"/>
      <point x="617" y="-1"/>
      <point x="486" y="-1" type="curve" smooth="yes"/>
      <point x="476" y="-1"/>
      <point x="466" y="0"/>
      <point x="455" y="1" type="curve"/>
      <point x="455" y="29" type="line"/>
      <point x="463" y="28"/>
      <point x="471" y="27"/>
      <point x="479" y="27" type="curve" smooth="yes"/>
      <point x="583" y="27"/>
      <point x="615" y="110"/>
      <point x="615" y="175" type="curve" smooth="yes"/>
      <point x="615" y="255"/>
      <point x="578" y="320"/>
      <point x="480" y="320" type="curve" smooth="yes"/>
      <point x="409" y="320"/>
      <point x="374" y="277"/>
      <point x="367" y="241" type="curve"/>
      <point x="373" y="244"/>
      <point x="380" y="246"/>
      <point x="387" y="246" type="curve" smooth="yes"/>
      <point x="437" y="246"/>
      <point x="469" y="202"/>
      <point x="469" y="136" type="curve" smooth="yes"/>
      <point x="469" y="56"/>
      <point x="412" y="-2"/>
      <point x="325" y="-2" type="curve" smooth="yes"/>
      <point x="214" y="-2"/>
      <point x="151" y="96"/>
    </contour>
    <contour>
      <point x="27" y="221" type="curve" smooth="yes"/>
      <point x="27" y="353"/>
      <point x="100" y="433"/>
      <point x="239" y="433" type="curve" smooth="yes"/>
      <point x="248" y="433"/>
      <point x="317" y="432"/>
      <point x="344" y="432" type="curve"/>
      <point x="323" y="420"/>
      <point x="265" y="412"/>
      <point x="256" y="407" type="curve"/>
      <point x="172" y="407"/>
      <point x="59" y="380"/>
      <point x="59" y="218" type="curve" smooth="yes"/>
      <point x="59" y="137"/>
      <point x="86" y="78"/>
      <point x="135" y="34" type="curve"/>
      <point x="135" y="0" type="line"/>
      <point x="69" y="33"/>
      <point x="27" y="120"/>
    </contour>
  </outline>
</glyph>
<glyph name="si_NyAa" format="1">
  <advance width="1288"/>
  <outline>
    <contour>
      <point x="996" y="110" type="curve"/>
      <point x="996" y="118"/>
      <point x="997" y="125"/>
      <point x="997" y="132" type="curve"/>
      <point x="1025" y="132" type="line"/>
      <point x="1024" y="128"/>
      <point x="1024" y="123"/>
      <point x="1024" y="117" type="curve" smooth="yes"/>
      <point x="1024" y="70"/>
      <point x="1048" y="66"/>
      <point x="1059" y="66" type="curve" smooth="yes"/>
      <point x="1082" y="66"/>
      <point x="1106" y="91"/>
      <point x="1106" y="201" type="curve"/>
      <point x="1106" y="311"/>
      <point x="1081" y="338"/>
    </contour>
    <contour>
      <point x="603" y="169" type="curve"/>
      <point x="603" y="274"/>
      <point x="676" y="317"/>
      <point x="795" y="317" type="curve"/>
      <point x="912" y="317" type="line" smooth="yes"/>
      <point x="898" y="365"/>
      <point x="847" y="390"/>
      <point x="814" y="390" type="curve" smooth="yes"/>
      <point x="795" y="390"/>
      <point x="781" y="379"/>
    </contour>
  </outline>
</glyph>
<glyph name="si_NyI" format="1">
  <advance width="1024"/>
  <outline>
    <contour>
      <point x="607" y="518" type="curve" smooth="yes"/>
      <point x="607" y="618"/>
      <point x="698" y="670"/>
      <point x="795" y="670" type="curve"/>
      <point x="892" y="670"/>
      <point x="983" y="617"/>
      <point x="983" y="518" type="curve"/>
      <point x="983" y="443"/>
      <point x="920" y="406"/>
      <point x="867" y="404" type="curve" smooth="yes"/>
      <point x="805" y="432" type="line" smooth="yes"/>
      <point x="820" y="429"/>
      <point x="849" y="428"/>
      <point x="856" y="428" type="curve" smooth="yes"/>
      <point x="901" y="429"/>
      <point x="929" y="457"/>
      <point x="929" y="488" type="curve" smooth="yes"/>
      <point x="929" y="536"/>
      <point x="867" y="561"/>
      <point x="795" y="561" type="curve"/>
      <point x="723" y="561"/>
      <point x="653" y="540"/>
      <point x="653" y="494" type="curve"/>
      <point x="653" y="458"/>
      <point x="694" y="441"/>
      <point x="729" y="441" type="curve" smooth="yes"/>
      <point x="718" y="414" type="line" smooth="yes"/>
      <point x="664" y="420"/>
      <point x="607" y="454"/>
    </contour>
    <component base="si_Nya"/>
  </outline>
</glyph>
<glyph name="si_NyIi" format="1">
  <advance width="1024"/>
  <outline>
    <contour>
      <point x="821" y="492" type="curve" smooth="yes"/>
      <point x="821" y="463"/>
      <point x="850" y="439"/>
      <point x="884" y="439" type="curve" smooth="yes"/>
      <point x="919" y="439"/>
      <point x="947" y="463"/>
      <point x="947" y="492" type="curve" smooth="yes"/>
      <point x="947" y="522"/>
      <point x="919" y="546"/>
      <point x="884" y="546" type="curve" smooth="yes"/>
      <point x="850" y="546"/>
      <point x="821" y="522"/>
    </contour>
    <contour>
      <point x="606" y="523" type="curve" smooth="yes"/>
      <point x="606" y="614"/>
      <point x="698" y="671"/>
      <point x="794" y="671" type="curve" smooth="yes"/>
      <point x="891" y="671"/>
      <point x="983" y="620"/>
      <point x="983" y="511" type="curve" smooth="yes"/>
      <point x="983" y="440"/>
      <point x="935" y="408"/>
      <point x="884" y="408" type="curve" smooth="yes"/>
      <point x="824" y="408"/>
      <point x="786" y="448"/>
      <point x="786" y="494" type="curve" smooth="yes"/>
      <point x="786" y="536"/>
      <point x="818" y="556"/>
      <point x="825" y="560" type="curve"/>
      <point x="819" y="561"/>
      <point x="811" y="561"/>
      <point x="795" y="561" type="curve" smooth="yes"/>
      <point x="737" y="561"/>
      <point x="654" y="549"/>
      <point x="654" y="493" type="curve" smooth="yes"/>
      <point x="654" y="465"/>
      <point x="683" y="446"/>
      <point x="709" y="442" type="curve"/>
      <point x="724" y="416" type="line"/>
      <point x="675" y="418"/>
      <point x="606" y="456"/>
    </contour>
    <component base="uni0DA4"/>
  </outline>
</glyph>
<glyph name="si_PI" format="1">
  <advance width="616"/>
  <outline>
    <contour>
      <point x="68" y="518" type="curve" smooth="yes"/>
      <point x="68" y="443"/>
      <point x="134" y="408"/>
      <point x="211" y="405" type="curve"/>
      <point x="208" y="426" type="line"/>
      <point x="155" y="429"/>
      <point x="128" y="450"/>
      <point x="128" y="479" type="curve" smooth="yes"/>
      <point x="128" y="522"/>
      <point x="211" y="536"/>
      <point x="300" y="536" type="curve" smooth="yes"/>
      <point x="386" y="536"/>
      <point x="467" y="521"/>
      <point x="467" y="479" type="curve" smooth="yes"/>
      <point x="467" y="447"/>
      <point x="445" y="429"/>
      <point x="392" y="426" type="curve"/>
      <point x="389" y="405" type="line"/>
      <point x="466" y="408"/>
      <point x="532" y="443"/>
      <point x="532" y="518" type="curve" smooth="yes"/>
      <point x="532" y="626"/>
      <point x="419" y="671"/>
      <point x="300" y="671" type="curve" smooth="yes"/>
      <point x="181" y="671"/>
      <point x="68" y="626"/>
    </contour>
  </outline>
</glyph>
<glyph name="si_PRI" format="1">
  <advance width="616"/>
  <outline>
    <contour>
      <point x="68" y="518" type="curve" smooth="yes"/>
      <point x="68" y="626"/>
      <point x="181" y="671"/>
      <point x="300" y="671" type="curve"/>
      <point x="419" y="671"/>
      <point x="532" y="626"/>
      <point x="532" y="518" type="curve"/>
      <point x="532" y="443"/>
      <point x="466" y="408"/>
      <point x="389" y="405" type="curve" smooth="yes"/>
      <point x="392" y="426" type="line" smooth="yes"/>
      <point x="445" y="429"/>
      <point x="467" y="447"/>
      <point x="467" y="479" type="curve" smooth="yes"/>
      <point x="467" y="521"/>
      <point x="386" y="536"/>
      <point x="300" y="536" type="curve"/>
      <point x="211" y="536"/>
      <point x="128" y="522"/>
      <point x="128" y="479" type="curve"/>
      <point x="128" y="450"/>
      <point x="155" y="429"/>
      <point x="208" y="426" type="curve" smooth="yes"/>
      <point x="211" y="405" type="line" smooth="yes"/>
      <point x="134" y="408"/>
      <point x="68" y="443"/>
    </contour>
    <contour>
      <point x="50" y="-44" type="curve"/>
      <point x="80" y="-44" type="line"/>
      <point x="117" y="-87"/>
      <point x="180" y="-114"/>
      <point x="286" y="-114" type="curve" smooth="yes"/>
      <point x="428" y="-114"/>
      <point x="538" y="-31"/>
      <point x="538" y="63" type="curve" smooth="yes"/>
      <point x="538" y="78"/>
      <point x="536" y="90"/>
      <point x="531" y="102" type="curve"/>
      <point x="544" y="133" type="line"/>
      <point x="562" y="106"/>
      <point x="571" y="75"/>
      <point x="571" y="38" type="curve" smooth="yes"/>
      <point x="571" y="-124"/>
      <point x="443" y="-219"/>
      <point x="299" y="-219" type="curve" smooth="yes"/>
      <point x="174" y="-219"/>
      <point x="88" y="-153"/>
    </contour>
    <component base="si_Pa"/>
  </outline>
</glyph>
<glyph name="si_PUu" format="1">
  <advance width="616"/>
  <outline>
    <contour>
      <point x="44" y="-138" type="curve" smooth="yes"/>
      <point x="44" y="-80"/>
      <point x="93" y="-40"/>
      <point x="146" y="-40" type="curve" smooth="yes"/>
      <point x="188" y="-40"/>
      <point x="220" y="-55"/>
      <point x="243" y="-91" type="curve"/>
      <point x="210" y="-102" type="line"/>
      <point x="199" y="-85"/>
      <point x="180" y="-70"/>
      <point x="151" y="-70" type="curve" smooth="yes"/>
      <point x="112" y="-70"/>
      <point x="87" y="-95"/>
      <point x="87" y="-120" type="curve" smooth="yes"/>
      <point x="87" y="-152"/>
      <point x="121" y="-167"/>
      <point x="156" y="-167" type="curve" smooth="yes"/>
      <point x="270" y="-167"/>
      <point x="304" y="-114"/>
      <point x="412" y="-114" type="curve" smooth="yes"/>
      <point x="463" y="-114"/>
      <point x="506" y="-134"/>
      <point x="533" y="-166" type="curve"/>
      <point x="533" y="152" type="line"/>
      <point x="568" y="212" type="line"/>
      <point x="568" y="-231" type="line"/>
      <point x="542" y="-231" type="line"/>
      <point x="528" y="-195"/>
      <point x="485" y="-146"/>
      <point x="422" y="-146" type="curve" smooth="yes"/>
      <point x="331" y="-146"/>
      <point x="283" y="-237"/>
      <point x="160" y="-237" type="curve" smooth="yes"/>
      <point x="106" y="-237"/>
      <point x="44" y="-206"/>
    </contour>
  </outline>
</glyph>
<glyph name="si_PhI" format="1">
  <advance width="583"/>
  <outline>
    <contour>
      <point x="77" y="576" type="curve" smooth="yes"/>
      <point x="77" y="666"/>
      <point x="187" y="700"/>
      <point x="290" y="700" type="curve" smooth="yes"/>
      <point x="389" y="700"/>
      <point x="503" y="664"/>
      <point x="503" y="575" type="curve" smooth="yes"/>
      <point x="503" y="529"/>
      <point x="467" y="502"/>
      <point x="414" y="502" type="curve"/>
      <point x="409" y="506"/>
      <point x="402" y="517"/>
      <point x="399" y="524" type="curve"/>
      <point x="411" y="525"/>
      <point x="455" y="529"/>
      <point x="455" y="560" type="curve" smooth="yes"/>
      <point x="455" y="604"/>
      <point x="364" y="620"/>
      <point x="293" y="620" type="curve" smooth="yes"/>
      <point x="179" y="620"/>
      <point x="123" y="595"/>
      <point x="123" y="559" type="curve" smooth="yes"/>
      <point x="123" y="532"/>
      <point x="156" y="519"/>
      <point x="188" y="519" type="curve" smooth="yes"/>
      <point x="232" y="519"/>
      <point x="265" y="532"/>
      <point x="282" y="540" type="curve"/>
      <point x="280" y="534"/>
      <point x="280" y="523"/>
      <point x="277" y="507" type="curve"/>
      <point x="253" y="500"/>
      <point x="228" y="492"/>
      <point x="186" y="492" type="curve" smooth="yes"/>
      <point x="128" y="492"/>
      <point x="77" y="519"/>
    </contour>
  </outline>
</glyph>
<glyph name="si_Ph.halant" format="1">
  <advance width="583"/>
  <outline>
    <contour>
      <point x="457" y="649" type="curve"/>
      <point x="457" y="517" type="line"/>
      <point x="466" y="512"/>
      <point x="477" y="510"/>
      <point x="490" y="510" type="curve" smooth="yes"/>
      <point x="522" y="510"/>
      <point x="535" y="535"/>
      <point x="535" y="558" type="curve" smooth="yes"/>
      <point x="535" y="599"/>
      <point x="503" y="619"/>
    </contour>
    <contour>
      <point x="429" y="694" type="line"/>
      <point x="483" y="652"/>
      <point x="580" y="647"/>
      <point x="580" y="555" type="curve" smooth="yes"/>
      <point x="580" y="511"/>
      <point x="545" y="481"/>
      <point x="502" y="481" type="curve" smooth="yes"/>
      <point x="488" y="481"/>
      <point x="473" y="484"/>
      <point x="457" y="491" type="curve"/>
      <point x="457" y="435" type="line"/>
      <point x="429" y="452" type="line"/>
    </contour>
    <contour>
      <point x="33" y="165" type="curve" smooth="yes"/>
      <point x="33" y="275"/>
      <point x="124" y="309"/>
      <point x="237" y="309" type="curve" smooth="yes"/>
      <point x="247" y="309" type="line"/>
      <point x="247" y="311"/>
      <point x="247" y="313"/>
      <point x="247" y="315" type="curve" smooth="yes"/>
      <point x="247" y="357"/>
      <point x="216" y="389"/>
      <point x="181" y="389" type="curve" smooth="yes"/>
      <point x="158" y="389"/>
      <point x="141" y="371"/>
      <point x="136" y="355" type="curve" smooth="yes"/>
      <point x="128" y="332"/>
      <point x="116" y="321"/>
      <point x="90" y="321" type="curve" smooth="yes"/>
      <point x="72" y="321"/>
      <point x="52" y="333"/>
      <point x="52" y="359" type="curve" smooth="yes"/>
      <point x="52" y="406"/>
      <point x="102" y="432"/>
      <point x="157" y="432" type="curve" smooth="yes"/>
      <point x="245" y="432"/>
      <point x="281" y="364"/>
      <point x="281" y="297" type="curve" smooth="yes"/>
      <point x="281" y="294"/>
      <point x="281" y="285"/>
      <point x="281" y="282" type="curve"/>
      <point x="220" y="282" type="line" smooth="yes"/>
      <point x="155" y="282"/>
      <point x="101" y="262"/>
      <point x="101" y="213" type="curve" smooth="yes"/>
      <point x="101" y="158"/>
      <point x="187" y="140"/>
      <point x="267" y="140" type="curve" smooth="yes"/>
      <point x="420" y="140"/>
      <point x="484" y="210"/>
      <point x="484" y="301" type="curve" smooth="yes"/>
      <point x="484" y="351"/>
      <point x="462" y="386"/>
      <point x="450" y="408" type="curve"/>
      <point x="434" y="378"/>
      <point x="406" y="359"/>
      <point x="363" y="359" type="curve" smooth="yes"/>
      <point x="300" y="359"/>
      <point x="263" y="414"/>
      <point x="263" y="480" type="curve" smooth="yes"/>
      <point x="263" y="530"/>
      <point x="278" y="566"/>
      <point x="305" y="597" type="curve"/>
      <point x="366" y="564"/>
      <point x="433" y="493"/>
      <point x="472" y="433" type="curve" smooth="yes"/>
      <point x="510" y="377"/>
      <point x="533" y="315"/>
      <point x="533" y="245" type="curve" smooth="yes"/>
      <point x="533" y="117"/>
      <point x="447" y="0"/>
      <point x="264" y="0" type="curve" smooth="yes"/>
      <point x="143" y="0"/>
      <point x="33" y="46"/>
    </contour>
    <contour>
      <point x="297" y="488" type="curve" smooth="yes"/>
      <point x="297" y="439"/>
      <point x="330" y="406"/>
      <point x="374" y="406" type="curve" smooth="yes"/>
      <point x="393" y="406"/>
      <point x="419" y="416"/>
      <point x="429" y="441" type="curve"/>
      <point x="399" y="485"/>
      <point x="352" y="528"/>
      <point x="314" y="556" type="curve"/>
      <point x="305" y="541"/>
      <point x="297" y="518"/>
    </contour>
  </outline>
</glyph>
<glyph name="si_Pha.touch" format="1">
  <advance width="583"/>
  <outline>
    <contour>
      <point x="33" y="165" type="curve" smooth="yes"/>
      <point x="33" y="196"/>
      <point x="40" y="240"/>
      <point x="81" y="270" type="curve" smooth="yes"/>
      <point x="126" y="305"/>
      <point x="186" y="309"/>
      <point x="237" y="309" type="curve"/>
      <point x="247" y="309" type="line" smooth="yes"/>
      <point x="247" y="311"/>
      <point x="247" y="313"/>
      <point x="247" y="315" type="curve" smooth="yes"/>
      <point x="247" y="357"/>
      <point x="216" y="389"/>
      <point x="181" y="389" type="curve" smooth="yes"/>
      <point x="158" y="389"/>
      <point x="141" y="371"/>
      <point x="136" y="355" type="curve" smooth="yes"/>
      <point x="128" y="332"/>
      <point x="116" y="321"/>
      <point x="90" y="321" type="curve" smooth="yes"/>
      <point x="72" y="321"/>
      <point x="52" y="333"/>
      <point x="52" y="359" type="curve" smooth="yes"/>
      <point x="52" y="406"/>
      <point x="102" y="432"/>
      <point x="157" y="432" type="curve" smooth="yes"/>
      <point x="245" y="432"/>
      <point x="281" y="364"/>
      <point x="281" y="297" type="curve"/>
      <point x="281" y="294"/>
      <point x="281" y="285"/>
      <point x="281" y="282" type="curve" smooth="yes"/>
      <point x="220" y="282" type="line" smooth="yes"/>
      <point x="155" y="282"/>
      <point x="101" y="262"/>
      <point x="101" y="213" type="curve" smooth="yes"/>
      <point x="101" y="158"/>
      <point x="187" y="140"/>
      <point x="267" y="140" type="curve" smooth="yes"/>
      <point x="420" y="140"/>
      <point x="484" y="210"/>
      <point x="484" y="301" type="curve"/>
      <point x="484" y="351"/>
      <point x="472" y="387"/>
      <point x="459" y="410" type="curve" smooth="yes"/>
      <point x="444" y="379"/>
      <point x="414" y="359"/>
      <point x="371" y="359" type="curve" smooth="yes"/>
      <point x="308" y="359"/>
      <point x="271" y="414"/>
      <point x="271" y="480" type="curve"/>
      <point x="271" y="530"/>
      <point x="286" y="566"/>
      <point x="313" y="597" type="curve" smooth="yes"/>
      <point x="374" y="564"/>
      <point x="445" y="492"/>
      <point x="481" y="430" type="curve" smooth="yes"/>
      <point x="520" y="363"/>
      <point x="533" y="315"/>
      <point x="533" y="245" type="curve" smooth="yes"/>
      <point x="533" y="117"/>
      <point x="447" y="0"/>
    </contour>
    <contour>
      <point x="305" y="488" type="curve" smooth="yes"/>
      <point x="305" y="439"/>
      <point x="338" y="406"/>
      <point x="382" y="406" type="curve" smooth="yes"/>
      <point x="401" y="406"/>
      <point x="427" y="416"/>
      <point x="437" y="441" type="curve"/>
      <point x="407" y="485"/>
      <point x="360" y="529"/>
      <point x="322" y="557" type="curve"/>
      <point x="314" y="540"/>
      <point x="305" y="518"/>
    </contour>
  </outline>
</glyph>
<glyph name="si_RI" format="1">
  <advance width="528"/>
  <outline>
    <contour>
      <point x="49" y="498" type="curve" smooth="yes"/>
      <point x="49" y="590"/>
      <point x="164" y="658"/>
      <point x="270" y="658" type="curve" smooth="yes"/>
      <point x="332" y="658"/>
      <point x="392" y="632"/>
      <point x="392" y="567" type="curve" smooth="yes"/>
      <point x="392" y="554"/>
      <point x="389" y="533"/>
      <point x="382" y="522" type="curve"/>
      <point x="370" y="514"/>
      <point x="355" y="500"/>
      <point x="341" y="493" type="curve"/>
      <point x="349" y="504"/>
      <point x="358" y="521"/>
      <point x="358" y="542" type="curve" smooth="yes"/>
      <point x="358" y="585"/>
      <point x="316" y="587"/>
      <point x="299" y="587" type="curve" smooth="yes"/>
      <point x="241" y="587"/>
      <point x="117" y="541"/>
      <point x="117" y="470" type="curve" smooth="yes"/>
      <point x="117" y="436"/>
      <point x="147" y="426"/>
      <point x="172" y="426" type="curve" smooth="yes"/>
      <point x="192" y="426"/>
      <point x="195" y="427"/>
      <point x="212" y="432" type="curve"/>
      <point x="203" y="426"/>
      <point x="168" y="410"/>
      <point x="150" y="404" type="curve"/>
      <point x="86" y="407"/>
      <point x="49" y="440"/>
    </contour>
    <contour>
      <point x="31" y="213" type="curve" smooth="yes"/>
      <point x="31" y="323"/>
      <point x="96" y="390"/>
      <point x="182" y="423" type="curve" smooth="yes"/>
      <point x="260" y="453"/>
      <point x="304" y="464"/>
      <point x="367" y="512" type="curve" smooth="yes"/>
      <point x="423" y="556"/>
      <point x="435" y="614"/>
      <point x="488" y="614" type="curve" smooth="yes"/>
      <point x="503" y="614"/>
      <point x="526" y="604"/>
      <point x="526" y="580" type="curve" smooth="yes"/>
      <point x="526" y="551"/>
      <point x="502" y="524"/>
      <point x="440" y="491" type="curve" smooth="yes"/>
      <point x="403" y="471"/>
      <point x="333" y="446"/>
      <point x="291" y="434" type="curve"/>
      <point x="330" y="434"/>
      <point x="388" y="413"/>
      <point x="430" y="366" type="curve" smooth="yes"/>
      <point x="465" y="326"/>
      <point x="482" y="281"/>
      <point x="482" y="225" type="curve" smooth="yes"/>
      <point x="482" y="102"/>
      <point x="384" y="0"/>
      <point x="248" y="0" type="curve" smooth="yes"/>
      <point x="124" y="0"/>
      <point x="31" y="89"/>
    </contour>
    <contour>
      <point x="79" y="256" type="curve" smooth="yes"/>
      <point x="79" y="198"/>
      <point x="120" y="138"/>
      <point x="228" y="138" type="curve" smooth="yes"/>
      <point x="333" y="138"/>
      <point x="406" y="191"/>
      <point x="406" y="291" type="curve" smooth="yes"/>
      <point x="406" y="362"/>
      <point x="352" y="411"/>
      <point x="260" y="411" type="curve" smooth="yes"/>
      <point x="182" y="411"/>
      <point x="79" y="352"/>
    </contour>
  </outline>
</glyph>
<glyph name="si_R.halant" format="1">
  <advance width="528"/>
  <outline>
    <contour>
      <point x="52" y="298" type="line"/>
      <point x="81" y="308" type="line"/>
      <point x="81" y="478" type="line"/>
      <point x="96" y="471"/>
      <point x="111" y="468"/>
      <point x="126" y="468" type="curve" smooth="yes"/>
      <point x="169" y="468"/>
      <point x="204" y="498"/>
      <point x="204" y="542" type="curve" smooth="yes"/>
      <point x="204" y="634"/>
      <point x="106" y="639"/>
      <point x="52" y="681" type="curve"/>
    </contour>
    <contour>
      <point x="81" y="504" type="curve"/>
      <point x="81" y="637" type="line"/>
      <point x="127" y="606"/>
      <point x="159" y="587"/>
      <point x="159" y="545" type="curve" smooth="yes"/>
      <point x="159" y="522"/>
      <point x="145" y="497"/>
      <point x="113" y="497" type="curve" smooth="yes"/>
      <point x="100" y="497"/>
      <point x="90" y="500"/>
    </contour>
    <contour>
      <point x="31" y="213" type="curve" smooth="yes"/>
      <point x="31" y="323"/>
      <point x="96" y="390"/>
      <point x="182" y="423" type="curve" smooth="yes"/>
      <point x="260" y="453"/>
      <point x="304" y="464"/>
      <point x="367" y="512" type="curve" smooth="yes"/>
      <point x="423" y="556"/>
      <point x="435" y="614"/>
      <point x="488" y="614" type="curve" smooth="yes"/>
      <point x="503" y="614"/>
      <point x="526" y="604"/>
      <point x="526" y="580" type="curve" smooth="yes"/>
      <point x="526" y="551"/>
      <point x="502" y="524"/>
      <point x="440" y="491" type="curve" smooth="yes"/>
      <point x="403" y="471"/>
      <point x="333" y="446"/>
      <point x="291" y="434" type="curve"/>
      <point x="330" y="434"/>
      <point x="388" y="413"/>
      <point x="430" y="366" type="curve" smooth="yes"/>
      <point x="465" y="326"/>
      <point x="482" y="281"/>
      <point x="482" y="225" type="curve" smooth="yes"/>
      <point x="482" y="102"/>
      <point x="384" y="0"/>
      <point x="248" y="0" type="curve" smooth="yes"/>
      <point x="124" y="0"/>
      <point x="31" y="89"/>
    </contour>
    <contour>
      <point x="79" y="256" type="curve" smooth="yes"/>
      <point x="79" y="198"/>
      <point x="120" y="138"/>
      <point x="228" y="138" type="curve" smooth="yes"/>
      <point x="333" y="138"/>
      <point x="406" y="191"/>
      <point x="406" y="291" type="curve" smooth="yes"/>
      <point x="406" y="362"/>
      <point x="352" y="411"/>
      <point x="260" y="411" type="curve" smooth="yes"/>
      <point x="182" y="411"/>
      <point x="79" y="352"/>
    </contour>
  </outline>
</glyph>
<glyph name="si_SI" format="1">
  <advance width="677"/>
  <outline>
    <contour>
      <point x="101" y="518" type="curve" smooth="yes"/>
      <point x="101" y="626"/>
      <point x="214" y="671"/>
      <point x="333" y="671" type="curve" smooth="yes"/>
      <point x="452" y="671"/>
      <point x="565" y="626"/>
      <point x="565" y="518" type="curve" smooth="yes"/>
      <point x="565" y="443"/>
      <point x="499" y="408"/>
      <point x="422" y="405" type="curve"/>
      <point x="445" y="428" type="line"/>
      <point x="483" y="437"/>
      <point x="500" y="447"/>
      <point x="500" y="479" type="curve" smooth="yes"/>
      <point x="500" y="521"/>
      <point x="419" y="536"/>
      <point x="333" y="536" type="curve" smooth="yes"/>
      <point x="244" y="536"/>
      <point x="162" y="522"/>
      <point x="162" y="479" type="curve" smooth="yes"/>
      <point x="162" y="450"/>
      <point x="185" y="434"/>
      <point x="224" y="427" type="curve"/>
      <point x="244" y="405" type="line"/>
      <point x="167" y="408"/>
      <point x="101" y="443"/>
    </contour>
    <component base="si_Sa"/>
  </outline>
</glyph>
<glyph name="si_SRIi" format="1">
  <advance width="677"/>
  <outline>
    <contour>
      <point x="420" y="514" type="curve" smooth="yes"/>
      <point x="420" y="544"/>
      <point x="450" y="569"/>
      <point x="485" y="569" type="curve" smooth="yes"/>
      <point x="520" y="569"/>
      <point x="550" y="544"/>
      <point x="550" y="514" type="curve" smooth="yes"/>
      <point x="550" y="484"/>
      <point x="520" y="459"/>
      <point x="485" y="459" type="curve" smooth="yes"/>
      <point x="450" y="459"/>
      <point x="420" y="484"/>
    </contour>
    <contour>
      <point x="82" y="517" type="curve" smooth="yes"/>
      <point x="82" y="456"/>
      <point x="119" y="411"/>
      <point x="172" y="406" type="curve"/>
      <point x="176" y="428" type="line"/>
      <point x="143" y="436"/>
      <point x="128" y="460"/>
      <point x="128" y="482" type="curve" smooth="yes"/>
      <point x="128" y="543"/>
      <point x="227" y="565"/>
      <point x="321" y="565" type="curve" smooth="yes"/>
      <point x="354" y="565"/>
      <point x="394" y="563"/>
      <point x="403" y="562" type="curve"/>
      <point x="390" y="549"/>
      <point x="387" y="525"/>
      <point x="387" y="515" type="curve" smooth="yes"/>
      <point x="387" y="470"/>
      <point x="427" y="429"/>
      <point x="485" y="429" type="curve" smooth="yes"/>
      <point x="541" y="429"/>
      <point x="586" y="469"/>
      <point x="586" y="524" type="curve" smooth="yes"/>
      <point x="586" y="627"/>
      <point x="450" y="671"/>
      <point x="333" y="671" type="curve" smooth="yes"/>
      <point x="206" y="671"/>
      <point x="82" y="624"/>
    </contour>
    <contour>
      <point x="74" y="-44" type="curve"/>
      <point x="104" y="-44" type="line"/>
      <point x="141" y="-87"/>
      <point x="217" y="-114"/>
      <point x="323" y="-114" type="curve" smooth="yes"/>
      <point x="466" y="-114"/>
      <point x="583" y="-31"/>
      <point x="583" y="63" type="curve" smooth="yes"/>
      <point x="583" y="78"/>
      <point x="581" y="90"/>
      <point x="576" y="102" type="curve"/>
      <point x="589" y="133" type="line"/>
      <point x="607" y="106"/>
      <point x="616" y="75"/>
      <point x="616" y="38" type="curve" smooth="yes"/>
      <point x="616" y="-124"/>
      <point x="482" y="-219"/>
      <point x="338" y="-219" type="curve" smooth="yes"/>
      <point x="198" y="-219"/>
      <point x="112" y="-153"/>
    </contour>
  </outline>
</glyph>
<glyph name="si_S.halant" format="1">
  <advance width="677"/>
  <outline>
    <contour>
      <point x="492" y="427" type="line"/>
      <point x="492" y="681" type="line"/>
      <point x="546" y="639"/>
      <point x="643" y="634"/>
      <point x="643" y="542" type="curve" smooth="yes"/>
      <point x="643" y="498"/>
      <point x="608" y="468"/>
      <point x="565" y="468" type="curve" smooth="yes"/>
      <point x="550" y="468"/>
      <point x="535" y="471"/>
      <point x="520" y="478" type="curve"/>
      <point x="520" y="410" type="line"/>
    </contour>
    <contour>
      <point x="520" y="504" type="line"/>
      <point x="529" y="500"/>
      <point x="539" y="497"/>
      <point x="552" y="497" type="curve" smooth="yes"/>
      <point x="584" y="497"/>
      <point x="598" y="522"/>
      <point x="598" y="545" type="curve" smooth="yes"/>
      <point x="598" y="587"/>
      <point x="566" y="606"/>
      <point x="520" y="637" type="curve"/>
    </contour>
    <component base="uni0DC3"/>
  </outline>
</glyph>
<glyph name="si_Sa.reph" format="1">
  <advance width="677"/>
  <outline>
    <contour>
      <point x="296" y="511" type="curve" smooth="yes"/>
      <point x="296" y="491"/>
      <point x="314" y="475"/>
      <point x="336" y="475" type="curve" smooth="yes"/>
      <point x="358" y="475"/>
      <point x="376" y="491"/>
      <point x="376" y="511" type="curve" smooth="yes"/>
      <point x="376" y="531"/>
      <point x="358" y="547"/>
      <point x="336" y="547" type="curve" smooth="yes"/>
      <point x="314" y="547"/>
      <point x="296" y="531"/>
    </contour>
    <contour>
      <point x="193" y="530" type="curve" smooth="yes"/>
      <point x="193" y="594"/>
      <point x="251" y="631"/>
      <point x="333" y="631" type="curve" smooth="yes"/>
      <point x="410" y="631"/>
      <point x="474" y="588"/>
      <point x="474" y="517" type="curve" smooth="yes"/>
      <point x="474" y="493"/>
      <point x="466" y="471"/>
      <point x="449" y="452" type="curve"/>
      <point x="414" y="452" type="line"/>
      <point x="427" y="464"/>
      <point x="442" y="489"/>
      <point x="442" y="516" type="curve" smooth="yes"/>
      <point x="442" y="571"/>
      <point x="393" y="602"/>
      <point x="332" y="602" type="curve" smooth="yes"/>
      <point x="279" y="602"/>
      <point x="226" y="580"/>
      <point x="226" y="530" type="curve" smooth="yes"/>
      <point x="226" y="491"/>
      <point x="269" y="474"/>
      <point x="287" y="471" type="curve"/>
      <point x="279" y="477"/>
      <point x="268" y="491"/>
      <point x="268" y="512" type="curve" smooth="yes"/>
      <point x="268" y="547"/>
      <point x="300" y="572"/>
      <point x="335" y="572" type="curve" smooth="yes"/>
      <point x="376" y="572"/>
      <point x="404" y="545"/>
      <point x="404" y="510" type="curve" smooth="yes"/>
      <point x="404" y="471"/>
      <point x="369" y="445"/>
      <point x="311" y="445" type="curve" smooth="yes"/>
      <point x="252" y="445"/>
      <point x="193" y="474"/>
    </contour>
    <contour>
      <point x="51" y="154" type="curve" smooth="yes"/>
      <point x="51" y="226"/>
      <point x="92" y="269"/>
      <point x="144" y="285" type="curve"/>
      <point x="178" y="297"/>
      <point x="232" y="308"/>
      <point x="269" y="308" type="curve" smooth="yes"/>
      <point x="280" y="308" type="line"/>
      <point x="280" y="310"/>
      <point x="280" y="309"/>
      <point x="280" y="311" type="curve" smooth="yes"/>
      <point x="280" y="357"/>
      <point x="247" y="389"/>
      <point x="216" y="389" type="curve" smooth="yes"/>
      <point x="178" y="389"/>
      <point x="170" y="368"/>
      <point x="165" y="352" type="curve" smooth="yes"/>
      <point x="158" y="333"/>
      <point x="144" y="321"/>
      <point x="120" y="321" type="curve" smooth="yes"/>
      <point x="99" y="321"/>
      <point x="82" y="333"/>
      <point x="82" y="359" type="curve" smooth="yes"/>
      <point x="82" y="404"/>
      <point x="132" y="432"/>
      <point x="187" y="432" type="curve" smooth="yes"/>
      <point x="275" y="432"/>
      <point x="313" y="369"/>
      <point x="313" y="296" type="curve" smooth="yes"/>
      <point x="313" y="293"/>
      <point x="313" y="284"/>
      <point x="313" y="280" type="curve"/>
      <point x="234" y="280" type="line" smooth="yes"/>
      <point x="181" y="280"/>
      <point x="120" y="266"/>
      <point x="120" y="213" type="curve" smooth="yes"/>
      <point x="120" y="177"/>
      <point x="152" y="140"/>
      <point x="225" y="140" type="curve" smooth="yes"/>
      <point x="281" y="140"/>
      <point x="321" y="157"/>
      <point x="321" y="198" type="curve" smooth="yes"/>
      <point x="321" y="214" type="line"/>
      <point x="348" y="214" type="line"/>
      <point x="348" y="198" type="line" smooth="yes"/>
      <point x="348" y="157"/>
      <point x="382" y="140"/>
      <point x="444" y="140" type="curve" smooth="yes"/>
      <point x="516" y="140"/>
      <point x="562" y="169"/>
      <point x="562" y="218" type="curve" smooth="yes"/>
      <point x="562" y="252"/>
      <point x="540" y="288"/>
      <point x="450" y="288" type="curve" smooth="yes"/>
      <point x="418" y="288"/>
      <point x="391" y="286"/>
      <point x="353" y="279" type="curve"/>
      <point x="353" y="283"/>
      <point x="353" y="287"/>
      <point x="353" y="291" type="curve" smooth="yes"/>
      <point x="353" y="375"/>
      <point x="401" y="432"/>
      <point x="476" y="432" type="curve" smooth="yes"/>
      <point x="530" y="432"/>
      <point x="579" y="408"/>
      <point x="579" y="350" type="curve" smooth="yes"/>
      <point x="579" y="329"/>
      <point x="565" y="306"/>
      <point x="550" y="297" type="curve"/>
      <point x="597" y="274"/>
      <point x="628" y="221"/>
      <point x="628" y="166" type="curve" smooth="yes"/>
      <point x="628" y="58"/>
      <point x="558" y="0"/>
      <point x="460" y="0" type="curve" smooth="yes"/>
      <point x="395" y="0"/>
      <point x="352" y="31"/>
      <point x="333" y="82" type="curve"/>
      <point x="312" y="30"/>
      <point x="271" y="-1"/>
      <point x="203" y="-1" type="curve" smooth="yes"/>
      <point x="108" y="-1"/>
      <point x="51" y="76"/>
    </contour>
    <contour>
      <point x="5" y="273" type="curve"/>
      <point x="5" y="308" type="line"/>
      <point x="278" y="308" type="line"/>
      <point x="309" y="280" type="line"/>
      <point x="147" y="280" type="line" smooth="yes"/>
      <point x="76" y="279"/>
      <point x="21" y="276"/>
    </contour>
    <contour>
      <point x="385" y="310" type="curve"/>
      <point x="396" y="313"/>
      <point x="421" y="316"/>
      <point x="445" y="316" type="curve" smooth="yes"/>
      <point x="479" y="316"/>
      <point x="500" y="314"/>
      <point x="522" y="306" type="curve"/>
      <point x="530" y="315"/>
      <point x="536" y="328"/>
      <point x="536" y="342" type="curve" smooth="yes"/>
      <point x="536" y="371"/>
      <point x="506" y="385"/>
      <point x="470" y="385" type="curve" smooth="yes"/>
      <point x="418" y="385"/>
      <point x="389" y="356"/>
    </contour>
  </outline>
</glyph>
<glyph name="si_ShIi" format="1">
  <advance width="631"/>
  <outline>
    <contour>
      <point x="394" y="520" type="curve" smooth="yes"/>
      <point x="394" y="553"/>
      <point x="423" y="580"/>
      <point x="460" y="580" type="curve" smooth="yes"/>
      <point x="497" y="580"/>
      <point x="526" y="553"/>
      <point x="526" y="520" type="curve" smooth="yes"/>
      <point x="526" y="487"/>
      <point x="497" y="460"/>
      <point x="460" y="460" type="curve" smooth="yes"/>
      <point x="423" y="460"/>
      <point x="394" y="487"/>
    </contour>
    <contour>
      <point x="150" y="537" type="curve" smooth="yes"/>
      <point x="150" y="462"/>
      <point x="237" y="413"/>
      <point x="397" y="410" type="curve"/>
      <point x="413" y="432" type="line"/>
      <point x="412" y="431"/>
      <point x="412" y="431"/>
      <point x="411" y="431" type="curve" smooth="yes"/>
      <point x="325" y="431"/>
      <point x="221" y="454"/>
      <point x="221" y="503" type="curve" smooth="yes"/>
      <point x="221" y="538"/>
      <point x="277" y="566"/>
      <point x="358" y="566" type="curve" smooth="yes"/>
      <point x="364" y="566"/>
      <point x="369" y="566"/>
      <point x="375" y="566" type="curve"/>
      <point x="368" y="554"/>
      <point x="361" y="539"/>
      <point x="361" y="520" type="curve" smooth="yes"/>
      <point x="361" y="463"/>
      <point x="414" y="431"/>
      <point x="460" y="431" type="curve" smooth="yes"/>
      <point x="502" y="431"/>
      <point x="559" y="457"/>
      <point x="559" y="525" type="curve" smooth="yes"/>
      <point x="559" y="618"/>
      <point x="456" y="667"/>
      <point x="351" y="667" type="curve" smooth="yes"/>
      <point x="249" y="667"/>
      <point x="150" y="628"/>
    </contour>
  </outline>
</glyph>
<glyph name="si_ShU" format="1">
  <advance width="631"/>
  <outline>
    <contour>
      <point x="306" y="-80" type="curve" smooth="yes"/>
      <point x="306" y="-30"/>
      <point x="334" y="12"/>
      <point x="386" y="24" type="curve"/>
      <point x="412" y="2" type="line"/>
      <point x="376" y="-1"/>
      <point x="351" y="-24"/>
      <point x="351" y="-50" type="curve" smooth="yes"/>
      <point x="351" y="-86"/>
      <point x="394" y="-105"/>
      <point x="446" y="-105" type="curve" smooth="yes"/>
      <point x="507" y="-105"/>
      <point x="554" y="-83"/>
      <point x="554" y="-45" type="curve" smooth="yes"/>
      <point x="554" y="-42"/>
      <point x="553" y="-39"/>
      <point x="553" y="-36" type="curve"/>
      <point x="583" y="-36" type="line"/>
      <point x="585" y="-45"/>
      <point x="586" y="-60"/>
      <point x="586" y="-70" type="curve" smooth="yes"/>
      <point x="586" y="-122"/>
      <point x="542" y="-192"/>
      <point x="441" y="-192" type="curve" smooth="yes"/>
      <point x="373" y="-192"/>
      <point x="306" y="-149"/>
    </contour>
  </outline>
</glyph>
<glyph name="si_ShUu" format="1">
  <advance width="631"/>
  <outline>
    <contour>
      <point x="330" y="-129" type="curve" smooth="yes"/>
      <point x="330" y="-93"/>
      <point x="357" y="-72"/>
      <point x="394" y="-67" type="curve"/>
      <point x="339" y="-39" type="line"/>
      <point x="424" y="-14" type="line"/>
      <point x="395" y="8" type="line"/>
      <point x="422" y="20" type="line"/>
      <point x="480" y="-19" type="line"/>
      <point x="402" y="-43" type="line"/>
      <point x="462" y="-76" type="line"/>
      <point x="434" y="-83"/>
      <point x="380" y="-83"/>
      <point x="380" y="-104" type="curve" smooth="yes"/>
      <point x="380" y="-121"/>
      <point x="412" y="-129"/>
      <point x="454" y="-129" type="curve" smooth="yes"/>
      <point x="508" y="-129"/>
      <point x="552" y="-113"/>
      <point x="552" y="-82" type="curve" smooth="yes"/>
      <point x="552" y="-77"/>
      <point x="551" y="-67"/>
      <point x="546" y="-59" type="curve"/>
      <point x="581" y="-59" type="line"/>
      <point x="585" y="-71"/>
      <point x="585" y="-83"/>
      <point x="585" y="-94" type="curve" smooth="yes"/>
      <point x="585" y="-161"/>
      <point x="534" y="-205"/>
      <point x="452" y="-205" type="curve" smooth="yes"/>
      <point x="394" y="-205"/>
      <point x="330" y="-187"/>
    </contour>
  </outline>
</glyph>
